<svg xmlns="http://www.w3.org/2000/svg" width="32" height="32"><g data-name="Group 18470" transform="translate(-718 -6549)"><rect data-name="Rectangle 122" width="32" height="32" rx="5" transform="translate(718 6549)" fill="#e97777"/><g fill="#fff"><path data-name="Path 224509" d="M731.215 6563.86a3.651 3.651 0 1 0-3.651-3.649 3.651 3.651 0 0 0 3.651 3.649Zm0-5.477a1.826 1.826 0 1 1-1.825 1.828 1.826 1.826 0 0 1 1.825-1.825Z"/><path data-name="Path 224510" d="M738.517 6565.688a2.738 2.738 0 1 0-2.738-2.739 2.738 2.738 0 0 0 2.738 2.739Zm0-3.651a.913.913 0 1 1-.913.913.913.913 0 0 1 .913-.913Z"/><path data-name="Path 224511" d="M738.518 6566.601a4.564 4.564 0 0 0-2.793.958 6.39 6.39 0 0 0-10.899 4.518.913.913 0 1 0 1.826 0 4.564 4.564 0 0 1 9.128 0 .913.913 0 0 0 1.826 0 6.3 6.3 0 0 0-.785-3.058 2.738 2.738 0 0 1 4.436 2.145.913.913 0 1 0 1.826 0 4.564 4.564 0 0 0-4.565-4.563Z"/></g></g></svg>