<svg xmlns="http://www.w3.org/2000/svg" width="21" height="21"><g data-name="Layer 2"><path data-name="Path 1385" d="M5.208 11.113h8.809l-2.7 3.078a.683.683 0 0 0 .1 1 .771.771 0 0 0 1.048-.096l3.714-4.236a.833.833 0 0 0 .067-.106c0-.035.037-.056.052-.092a.647.647 0 0 0 0-.508c0-.035-.037-.056-.052-.092a.833.833 0 0 0-.067-.106l-3.714-4.236a.759.759 0 0 0-.573-.254.767.767 0 0 0-.475.162.7.7 0 0 0-.266.479.683.683 0 0 0 .169.517l2.7 3.078H5.208a.707.707 0 1 0 0 1.412Z" fill="#e97777"/></g></svg>