<svg xmlns="http://www.w3.org/2000/svg" width="32" height="32"><g data-name="Group 18470" transform="translate(-718 -6549)"><rect width="32" height="32" fill="#e97777" data-name="Rectangle 122" opacity=".2" rx="5" transform="translate(718 6549)"/><g fill="#e97777" data-name="Layer 2"><path d="M743.003 6559.031h-.953v-.952a.953.953 0 1 0-1.905 0v.953h-.953a.953.953 0 0 0 0 1.905h.953v.953a.953.953 0 1 0 1.905 0v-.954h.953a.953.953 0 0 0 0-1.905Z" data-name="Path 224513"/><path d="M732.525 6563.793a3.81 3.81 0 1 0-3.81-3.81 3.81 3.81 0 0 0 3.81 3.81Zm0-5.715a1.905 1.905 0 1 1-1.905 1.905 1.905 1.905 0 0 1 1.905-1.905Z" data-name="Path 224514"/><path d="M732.526 6565.698a6.668 6.668 0 0 0-6.668 6.668.953.953 0 0 0 1.905 0 4.763 4.763 0 0 1 9.525 0 .953.953 0 1 0 1.905 0 6.668 6.668 0 0 0-6.667-6.668Z" data-name="Path 224515"/></g></g></svg>