<svg xmlns="http://www.w3.org/2000/svg" width="95" height="94.823"><g data-name="Group 18677" opacity=".2" fill="#e97777" stroke="rgba(0,0,0,0)"><path data-name="Path 224025" d="M77.653 68.899a9.183 9.183 0 0 1-15.933 6.224l-9.212-9.215 13.11-13.084 9.03 9.281.05.05a9.15 9.15 0 0 1 2.955 6.744Z"/><path data-name="Path 224026" d="M42.286 65.816 16.31 91.492l-.025.025A9.18 9.18 0 1 1 3.074 78.769q.223-.231.461-.446L28.74 52.271Z"/><path data-name="Path 224475" d="M94.5 9.688a9.1 9.1 0 0 1-1.826 5.486l-1.9 1.893-16.67 16.7-2.563 2.556-23.94 23.972-27.445-27.717-.462-.462.009-.007a9.084 9.084 0 0 1-2.556-6.332 9.178 9.178 0 0 1 15.514-6.644l.46.469.025.025 14.971 15.338.007-.009 24.192-24.939 5.646-5.822.009-.007a9.18 9.18 0 0 1 16.529 5.5Z"/></g></svg>