<svg xmlns="http://www.w3.org/2000/svg" width="313.18" height="47.86"><path fill="#e97777" stroke="rgba(0,0,0,0)" d="M.499 25.88c0 12.54 9.54 21.3 21.3 21.3 8.7 0 16.2-4.32 19.38-12.48h-8.22c-2.22 4.44-6.18 6.54-11.16 6.54-8.28 0-14.28-5.94-14.28-15.36s6-15.3 14.28-15.3c4.98 0 8.94 2.1 11.16 6.54h8.22c-3.18-8.16-10.68-12.54-19.38-12.54-11.76 0-21.3 8.82-21.3 21.3Zm80.16 4.38c0-10.38-7.44-17.04-16.86-17.04s-16.86 6.66-16.86 17.04 7.14 17.1 16.56 17.1c9.48 0 17.16-6.72 17.16-17.1Zm-26.76 0c0-7.5 4.62-11.1 9.78-11.1 5.1 0 9.96 3.6 9.96 11.1s-5.04 11.16-10.14 11.16c-5.16 0-9.6-3.66-9.6-11.16Zm57 16.56h6.78v-19.5c0-9.24-5.82-14.1-13.56-14.1a12.718 12.718 0 0 0-9.84 4.32v-3.78h-6.84v33.06h6.84V28.34c0-6.06 3.3-9.18 8.34-9.18 4.98 0 8.28 3.12 8.28 9.18Zm16.56-9.18c0 6.72 3.66 9.18 9.54 9.18h5.4v-5.7h-4.2c-2.88 0-3.84-1.02-3.84-3.48v-18.3h8.04v-5.58h-8.04V5.54h-6.9v8.22h-3.9v5.58h3.9Zm35.16-18.66c5.1 0 9.12 3.24 9.24 8.34h-18.3c.72-5.22 4.44-8.34 9.06-8.34Zm15.48 18h-7.38c-1.26 2.58-3.6 4.62-7.8 4.62a9.094 9.094 0 0 1-9.42-8.76h25.26a21.1 21.1 0 0 0 .24-3.36c0-9.72-6.66-16.26-16.08-16.26-9.78 0-16.5 6.66-16.5 17.04s7.02 17.1 16.5 17.1c8.1 0 13.32-4.62 15.18-10.38Zm31.08 9.84h6.78v-19.5c0-9.24-5.82-14.1-13.56-14.1a12.718 12.718 0 0 0-9.84 4.32v-3.78h-6.84v33.06h6.84V28.34c0-6.06 3.3-9.18 8.34-9.18 4.98 0 8.28 3.12 8.28 9.18Zm16.56-9.18c0 6.72 3.66 9.18 9.54 9.18h5.4v-5.7h-4.2c-2.88 0-3.84-1.02-3.84-3.48v-18.3h8.04v-5.58h-8.04V5.54h-6.9v8.22h-3.9v5.58h3.9Zm22.08 9.18h6.9V19.34h6.12v-5.58h-6.12v-2.34c0-3.78 1.44-5.22 5.64-5.22V.5c-8.64 0-12.54 3.3-12.54 10.92v2.34h-3.9v5.58h3.9Zm49.02-33.06h-6.84v18.42c0 6.06-3.3 9.18-8.34 9.18-4.98 0-8.28-3.12-8.28-9.18V13.76h-6.78V33.2c0 9.24 5.88 14.1 13.62 14.1a12.306 12.306 0 0 0 9.78-4.44v3.96h6.84Zm9 33.06h6.84V2.42h-6.84Z" data-name="Path 241868"/></svg>