<svg xmlns="http://www.w3.org/2000/svg" width="407.482" height="45.94"><path fill="#e97777" stroke="rgba(0,0,0,0)" d="M.499 23.96c0 12.54 9.54 21.3 21.3 21.3 8.7 0 16.2-4.32 19.38-12.48h-8.22c-2.22 4.44-6.18 6.54-11.16 6.54-8.28 0-14.28-5.94-14.28-15.36s6-15.3 14.28-15.3c4.98 0 8.94 2.1 11.16 6.54h8.22c-3.18-8.16-10.68-12.54-19.38-12.54-11.76 0-21.3 8.82-21.3 21.3Zm80.16 4.38c0-10.38-7.44-17.04-16.86-17.04s-16.86 6.66-16.86 17.04 7.14 17.1 16.56 17.1c9.48 0 17.16-6.72 17.16-17.1Zm-26.76 0c0-7.5 4.62-11.1 9.78-11.1 5.1 0 9.96 3.6 9.96 11.1s-5.04 11.16-10.14 11.16c-5.16 0-9.6-3.66-9.6-11.16Zm57 16.56h6.78V25.4c0-9.24-5.82-14.1-13.56-14.1a12.718 12.718 0 0 0-9.84 4.32v-3.78h-6.84V44.9h6.84V26.42c0-6.06 3.3-9.18 8.34-9.18 4.98 0 8.28 3.12 8.28 9.18Zm16.56-9.18c0 6.72 3.66 9.18 9.54 9.18h5.4v-5.7h-4.2c-2.88 0-3.84-1.02-3.84-3.48v-18.3h8.04v-5.58h-8.04V3.62h-6.9v8.22h-3.9v5.58h3.9Zm35.16-18.66c5.1 0 9.12 3.24 9.24 8.34h-18.3c.72-5.22 4.44-8.34 9.06-8.34Zm15.48 18h-7.38c-1.26 2.58-3.6 4.62-7.8 4.62a9.094 9.094 0 0 1-9.42-8.76h25.26a21.1 21.1 0 0 0 .24-3.36c0-9.72-6.66-16.26-16.08-16.26-9.78 0-16.5 6.66-16.5 17.04s7.02 17.1 16.5 17.1c8.1 0 13.32-4.62 15.18-10.38Zm31.08 9.84h6.78V25.4c0-9.24-5.82-14.1-13.56-14.1a12.718 12.718 0 0 0-9.84 4.32v-3.78h-6.84V44.9h6.84V26.42c0-6.06 3.3-9.18 8.34-9.18 4.98 0 8.28 3.12 8.28 9.18Zm16.56-9.18c0 6.72 3.66 9.18 9.54 9.18h5.4v-5.7h-4.2c-2.88 0-3.84-1.02-3.84-3.48v-18.3h8.04v-5.58h-8.04V3.62h-6.9v8.22h-3.9v5.58h3.9Zm45.9-.06c-.36-11.94-19.02-8.22-19.02-14.88 0-2.22 1.92-3.72 5.58-3.72 3.72 0 5.94 1.98 6.18 4.86h6.84c-.36-6.6-5.28-10.62-12.78-10.62-7.8 0-12.72 4.26-12.72 9.54 0 12.12 19.2 8.4 19.2 14.88 0 2.28-2.1 3.96-6.06 3.96-3.78 0-6.36-2.22-6.6-4.92h-7.08c.3 6 5.88 10.68 13.8 10.68 7.8 0 12.66-4.2 12.66-9.78Zm8.46.06c0 6.72 3.66 9.18 9.54 9.18h5.4v-5.7h-4.2c-2.88 0-3.84-1.02-3.84-3.48v-18.3h8.04v-5.58h-8.04V3.62h-6.9v8.22h-3.9v5.58h3.9Zm18.96-7.5c0 10.2 6.9 17.22 15.48 17.22a14.23 14.23 0 0 0 11.58-5.46v4.92h6.9V11.84h-6.9v4.8a14.072 14.072 0 0 0-11.46-5.34c-8.7 0-15.6 6.72-15.6 16.92Zm27.06.12c0 7.14-4.86 11.16-10.02 11.16-5.1 0-10.02-4.14-10.02-11.28s4.92-10.98 10.02-10.98c5.16 0 10.02 4.02 10.02 11.1Zm13.62 0c0 10.38 6.72 17.1 16.2 17.1 8.1 0 13.38-4.5 15.24-10.98h-7.38c-1.26 3.42-3.78 5.22-7.86 5.22-5.52 0-9.18-4.08-9.18-11.34 0-7.2 3.66-11.28 9.18-11.28 4.08 0 6.72 2.04 7.86 5.22h7.38c-1.86-6.96-7.14-10.98-15.24-10.98-9.48 0-16.2 6.72-16.2 17.04Zm38.28 16.56h6.84V30.68l12.24 14.22h9.24l-15.24-16.5 15.24-16.56h-9.48l-12 14.46V.5h-6.84Z" data-name="Path 241870"/></svg>