<svg xmlns="http://www.w3.org/2000/svg" width="335.025" height="68.345"><g transform="translate(-21.3 -259.8)"><path fill="#ffd85f" d="M42.072 307.43a18.2 18.2 0 0 1-5.807-13.457 18.658 18.658 0 0 1 5.584-13.457 7.581 7.581 0 0 0-10.721-10.721 34.867 34.867 0 0 0-9.828 24.178 34.1 34.1 0 0 0 10.051 24.178 7.484 7.484 0 0 0 10.721 0 8.027 8.027 0 0 0 0-10.721Z" data-name="Path 224481"/><path fill="#3bb4e7" d="M42.071 280.516a18.243 18.243 0 0 1 13.457-5.751 18.754 18.754 0 0 1 13.457 5.584 7.581 7.581 0 0 0 10.721-10.721 34.867 34.867 0 0 0-24.178-9.828 34.1 34.1 0 0 0-24.178 10.051 7.484 7.484 0 0 0 0 10.721 8.089 8.089 0 0 0 10.721-.056Z" data-name="Path 224482"/><path fill="#ed5c68" d="M68.985 307.43a18.243 18.243 0 0 1-13.457 5.756 18.754 18.754 0 0 1-13.457-5.584 7.581 7.581 0 1 0-10.721 10.721 34.867 34.867 0 0 0 24.178 9.827 34.1 34.1 0 0 0 24.178-10.051 7.484 7.484 0 0 0 0-10.721 8.089 8.089 0 0 0-10.721.052Z" data-name="Path 224483"/><circle cx="7.482" cy="7.482" r="7.482" fill="#308bc5" data-name="Ellipse 2" transform="translate(29.229 267.673)"/><circle cx="7.482" cy="7.482" r="7.482" fill="#d5465f" data-name="Ellipse 3" transform="translate(29.229 305.308)"/><path fill="#2a3039" d="M113.32 301.008c2.122-1.731 2.569-.614 4.3 1.061.838.838 3.406 2.569 1.731 3.853a15.646 15.646 0 0 1-10.888 4.076c-9.827 0-16.919-7.482-16.472-17.142a15.064 15.064 0 0 1 5.36-11.335 16.088 16.088 0 0 1 11.112-3.629 17.806 17.806 0 0 1 5.751 1.061 12.516 12.516 0 0 1 3.629 1.9c2.122 1.731 1.061 2.569-.447 4.3-.447.447-.614.838-1.061 1.061-.838.838-1.508 1.508-2.569.614a10 10 0 0 0-7.706-1.731c-8.543 2.122-8.152 17.31 2.345 17.31a6.067 6.067 0 0 0 4.915-1.399Zm237.645 8.376a2.463 2.463 0 0 1-2.569-2.569v-33.614a2.463 2.463 0 0 1 2.569-2.573h2.792a2.463 2.463 0 0 1 2.569 2.569v33.614a2.463 2.463 0 0 1-2.569 2.569Zm-14.741-3.856c-3.015 2.792-5.975 4.3-10.274 4.3-8.767 0-12.843-7.259-12.843-15.188v-13.68a2.463 2.463 0 0 1 2.569-2.569h2.792a2.463 2.463 0 0 1 2.569 2.569v13.68c0 4.467 2.345 7.929 7.259 7.929 4.69 0 7.706-4.076 7.706-8.32v-13.286a2.463 2.463 0 0 1 2.569-2.569h2.792a2.463 2.463 0 0 1 2.568 2.569v25.853a2.463 2.463 0 0 1-2.568 2.569h-2.345a2.762 2.762 0 0 1-2.568-2.569l-.223-1.284Zm-33.391-26.97h5.36a2.6 2.6 0 0 1 2.569 2.569v1.731a2.463 2.463 0 0 1-2.569 2.569h-5.36v21.386a2.463 2.463 0 0 1-2.568 2.569h-2.792a2.463 2.463 0 0 1-2.569-2.569v-29.312c0-6.421 3.629-11.558 10.274-12.173h4.076a2.6 2.6 0 0 1 2.569 2.569v1.731a2.463 2.463 0 0 1-2.569 2.569h-2.122c-3.183 0-4.467 2.345-4.467 5.36v1.061h.167Zm-19.487 0h5.975a2.463 2.463 0 0 1 2.569 2.569v1.731a2.463 2.463 0 0 1-2.569 2.569h-5.975v13.01q0 3.853 3.853 3.853h1.284a2.463 2.463 0 0 1 2.569 2.569v1.9a2.463 2.463 0 0 1-2.569 2.569h-3.629c-6.421-.447-9.213-4.467-9.213-10.888v-25.239a2.463 2.463 0 0 1 2.565-2.573h2.792a2.463 2.463 0 0 1 2.569 2.569v5.36Zm-85.767 0h5.975a2.463 2.463 0 0 1 2.569 2.569v1.731a2.463 2.463 0 0 1-2.569 2.569h-5.975v13.01c0 2.569 1.284 4.076 3.853 4.076h1.284a2.463 2.463 0 0 1 2.569 2.569v1.731a2.463 2.463 0 0 1-2.569 2.569h-1.731c-7.036 0-11.112-3.015-11.112-10.888v-25.237a2.463 2.463 0 0 1 2.569-2.569h2.792a2.463 2.463 0 0 1 2.569 2.569v5.36c.003-.055-.224-.055-.224-.055Zm-34.843 3.629a13.416 13.416 0 0 1 9.827-4.3c8.767 0 13.289 7.036 13.289 15.188v13.736a2.463 2.463 0 0 1-2.569 2.569h-2.792a2.463 2.463 0 0 1-2.569-2.569v-13.68c0-4.467-2.345-7.929-7.259-7.929-4.69 0-7.706 3.853-7.706 8.32v13.289a2.463 2.463 0 0 1-2.569 2.569h-2.792a2.463 2.463 0 0 1-2.569-2.569v-25.904a2.463 2.463 0 0 1 2.569-2.569h2.345a2.762 2.762 0 0 1 2.569 2.569Zm85.99 0a13.416 13.416 0 0 1 9.827-4.3c8.767 0 13.289 7.036 13.289 15.188v13.736a2.463 2.463 0 0 1-2.569 2.569h-2.792a2.463 2.463 0 0 1-2.569-2.569v-13.68c0-4.467-2.345-7.929-7.259-7.929-4.69 0-7.706 3.853-7.706 8.32v13.289a2.463 2.463 0 0 1-2.569 2.569h-2.792a2.463 2.463 0 0 1-2.569-2.569v-25.904a2.463 2.463 0 0 1 2.569-2.569h2.345a2.762 2.762 0 0 1 2.569 2.569Zm-112.345-4.459c-9.437 0-16.025 6.868-16.025 16.249s6.645 16.249 16.025 16.249c9.6 0 16.249-6.645 16.249-16.249 0-9.441-6.812-16.249-16.249-16.249Zm78.34 19.041c.614 4.3 4.914 6.2 8.99 6.2a13.527 13.527 0 0 0 5.751-1.284c.223-.223.614-.223.838-.447 1.061-.614 1.9-.838 2.792 0l1.508 1.508 1.284 1.284c1.284 1.731.447 2.122-1.061 3.015a20.438 20.438 0 0 1-11.112 3.183c-10.274 0-17.142-6.2-17.142-16.472 0-9.827 6.868-16.249 16.472-16.249 10.051 0 15.635 5.751 15.858 15.858 0 2.792.223 3.629-2.569 3.629h-21.609Zm-78.34-11.782c4.914 0 8.152 4.3 8.152 8.99 0 4.914-3.015 8.767-8.152 8.767s-8.152-3.853-8.152-8.767 3.238-8.994 8.152-8.994Zm78.508 5.137h16.025c-.614-4.076-3.853-5.584-7.706-5.584-4.02-.004-7.202 1.95-8.319 5.58Z" data-name="Path 224484"/></g></svg>