<svg xmlns="http://www.w3.org/2000/svg" width="32" height="32"><g data-name="Group 18470" transform="translate(-718 -6549)" fill="#e97777"><rect data-name="Rectangle 122" width="32" height="32" rx="5" transform="translate(718 6549)" opacity=".2"/><path data-name="Path 224547" d="M739.556 6563.435a.284.284 0 0 1-.3.3h-5.872a.284.284 0 0 1-.3-.3v-.677a.284.284 0 0 1 .3-.3h5.872a.284.284 0 0 1 .3.3Zm2.606 1.9a.284.284 0 0 1-.3.3h-7.242a.284.284 0 0 1-.3-.3v-.677a.284.284 0 0 1 .3-.3h7.175a.284.284 0 0 1 .3.3l.068.677Zm1.98 1.98a.284.284 0 0 1-.3.3h-7.851a.284.284 0 0 1-.3-.3v-.677a.284.284 0 0 1 .3-.3h7.851a.284.284 0 0 1 .3.3v.677Zm0 1.963a.284.284 0 0 1-.3.3h-7.851a.284.284 0 0 1-.3-.3v-.677a.284.284 0 0 1 .3-.3h7.851a.284.284 0 0 1 .3.3v.677Zm-1.98 1.9a.284.284 0 0 1-.3.3h-7.242a.284.284 0 0 1-.3-.3v-.677a.284.284 0 0 1 .3-.3h7.175a.284.284 0 0 1 .3.3l.068.677Zm-2.606 1.963a.284.284 0 0 1-.3.3h-5.872a.284.284 0 0 1-.3-.3v-.677a.284.284 0 0 1 .3-.3h5.872a.284.284 0 0 1 .3.3Zm-11.117-15.584a.284.284 0 0 0 .3.3h5.872a.284.284 0 0 0 .3-.3v-.692a.284.284 0 0 0-.3-.3h-5.872a.284.284 0 0 0-.3.3v.677Zm-2.606 1.963a.284.284 0 0 0 .3.3h7.175a.284.284 0 0 0 .3-.3v-.677a.284.284 0 0 0-.3-.3h-7.175a.284.284 0 0 0-.3.3v.677Zm-1.98 1.963a.284.284 0 0 0 .3.3h7.851a.284.284 0 0 0 .3-.3v-.677a.284.284 0 0 0-.3-.3h-7.848a.284.284 0 0 0-.3.3Zm0 1.963a.284.284 0 0 0 .3.3h7.851a.284.284 0 0 0 .3-.3v-.677a.284.284 0 0 0-.3-.3h-7.848a.284.284 0 0 0-.3.3Zm1.98 1.9a.284.284 0 0 0 .3.3h7.175a.284.284 0 0 0 .3-.3v-.677a.284.284 0 0 0-.3-.3h-7.175a.284.284 0 0 0-.3.3v.677Zm2.606 1.98a.284.284 0 0 0 .3.3h5.872a.284.284 0 0 0 .3-.3v-.677a.284.284 0 0 0-.3-.3h-5.872a.284.284 0 0 0-.3.3v.677Z"/></g></svg>