<svg xmlns="http://www.w3.org/2000/svg" width="369.96" height="61.475"><path fill="#f0553d" d="M57.221 25.034a1.036 1.036 0 0 1-1.11 1.11h-21.4a1.036 1.036 0 0 1-1.11-1.11v-2.466a1.036 1.036 0 0 1 1.11-1.11h21.4a1.036 1.036 0 0 1 1.11 1.11Zm9.5 6.906a1.036 1.036 0 0 1-1.11 1.11H39.216a1.036 1.036 0 0 1-1.11-1.11v-2.466a1.036 1.036 0 0 1 1.11-1.11H65.36a1.036 1.036 0 0 1 1.11 1.11l.247 2.466Zm7.214 7.214a1.036 1.036 0 0 1-1.11 1.11H44.21a1.036 1.036 0 0 1-1.11-1.11v-2.466a1.036 1.036 0 0 1 1.11-1.11h28.61a1.036 1.036 0 0 1 1.11 1.11v2.466Zm0 7.153a1.036 1.036 0 0 1-1.11 1.11H44.21a1.036 1.036 0 0 1-1.11-1.11V43.84a1.036 1.036 0 0 1 1.11-1.11h28.61a1.036 1.036 0 0 1 1.11 1.11v2.466Zm-7.214 6.906a1.036 1.036 0 0 1-1.11 1.11H39.216a1.036 1.036 0 0 1-1.11-1.11v-2.466a1.036 1.036 0 0 1 1.11-1.11H65.36a1.036 1.036 0 0 1 1.11 1.11l.247 2.466Zm-9.5 7.153a1.036 1.036 0 0 1-1.11 1.11h-21.4a1.036 1.036 0 0 1-1.11-1.11V57.9a1.036 1.036 0 0 1 1.11-1.11h21.4a1.036 1.036 0 0 1 1.11 1.11ZM16.71 3.577a1.036 1.036 0 0 0 1.11 1.11h21.4a1.036 1.036 0 0 0 1.11-1.11V1.11A1.036 1.036 0 0 0 39.22 0h-21.4a1.036 1.036 0 0 0-1.11 1.11v2.466Zm-9.5 7.153a1.036 1.036 0 0 0 1.11 1.11h26.144a1.036 1.036 0 0 0 1.11-1.11V8.264a1.036 1.036 0 0 0-1.11-1.11H8.32a1.036 1.036 0 0 0-1.11 1.11v2.466Zm-7.214 7.153a1.036 1.036 0 0 0 1.11 1.11h28.61a1.036 1.036 0 0 0 1.11-1.11v-2.466a1.036 1.036 0 0 0-1.11-1.11H1.106a1.036 1.036 0 0 0-1.11 1.11Zm0 7.153a1.036 1.036 0 0 0 1.11 1.11h28.61a1.036 1.036 0 0 0 1.11-1.11V22.57a1.036 1.036 0 0 0-1.11-1.11H1.106a1.036 1.036 0 0 0-1.11 1.11Zm7.214 6.906a1.036 1.036 0 0 0 1.11 1.11h26.144a1.036 1.036 0 0 0 1.11-1.11v-2.466a1.036 1.036 0 0 0-1.11-1.11H8.32a1.036 1.036 0 0 0-1.11 1.11v2.466Zm9.5 7.214a1.036 1.036 0 0 0 1.11 1.11h21.4a1.036 1.036 0 0 0 1.11-1.11V36.69a1.036 1.036 0 0 0-1.11-1.11h-21.4a1.036 1.036 0 0 0-1.11 1.11v2.466Z" data-name="Path 224485"/><path fill="#202025" d="M101.739 44.21a15.153 15.153 0 0 1-3.33.247 13.511 13.511 0 0 1-6.721-1.357 6.464 6.464 0 0 1-2.9-4.193 55.273 55.273 0 0 1 0-17.265 5.889 5.889 0 0 1 2.9-4.193c1.357-.863 3.576-1.357 6.721-1.357a13.536 13.536 0 0 1 3.145.247 14.116 14.116 0 0 0 2.713.432v4.871c-2.22-.247-3.823-.432-4.5-.432a15.351 15.351 0 0 0-3.823.432c-.678.247-1.11 1.11-1.357 2.22a37.323 37.323 0 0 0-.247 6.228 37.743 37.743 0 0 0 .247 6.228 3.23 3.23 0 0 0 1.357 2.22c.678.432 2.035.432 3.823.432a40.107 40.107 0 0 0 4.686-.432v4.871a8.439 8.439 0 0 1-2.714.801Zm9.619-1.172a5.92 5.92 0 0 1-2.713-4.008c-.432-1.788-.432-4.871-.432-8.879a83.86 83.86 0 0 1 .432-8.879 5.159 5.159 0 0 1 2.713-4.008c1.357-.863 3.823-1.11 7.153-1.11s5.8.432 7.153 1.11a5.92 5.92 0 0 1 2.713 4.008c.432 1.788.432 4.686.432 8.879a83.861 83.861 0 0 1-.432 8.879 5.642 5.642 0 0 1-2.713 4.008c-1.542.863-3.823 1.11-7.153 1.11-3.33.247-5.799-.184-7.153-1.109Zm10.054-4.439a2.512 2.512 0 0 0 .925-1.973 40.422 40.422 0 0 0 .247-6.413 40.42 40.42 0 0 0-.247-6.413c-.247-1.11-.432-1.788-.925-1.973a7.225 7.225 0 0 0-2.9-.432 8.566 8.566 0 0 0-2.9.432 2.511 2.511 0 0 0-.925 1.973 40.42 40.42 0 0 0-.247 6.413 40.422 40.422 0 0 0 .247 6.413c.247 1.11.432 1.788.925 1.973a7.225 7.225 0 0 0 2.9.432c1.355 0 2.218.061 2.9-.432Zm26.144 5.365-8.077-15.785h-.247v15.785h-6.046V16.402h6.289l7.584 14.428h.247V16.402h6.043v27.562Zm15.23 0V21.951h-6.474v-5.3h19.234v5.3h-6.474v22.013Zm15.847 0V16.402h16.525v5.118h-10.486v5.8h8.94v5.118h-8.94v6.166h10.482v5.118h-16.525Zm35.331 0-8.077-15.785h-.247v15.785h-6.043V16.402h6.289l7.584 14.428h.247V16.402h6.043v27.562Zm15.23 0V21.951h-6.482v-5.3h19.238v5.3h-6.474v22.013Zm15.6-.247v-4.871c3.33.247 5.611.432 7.153.432a8.634 8.634 0 0 0 2.713-.247 8.9 8.9 0 0 0 1.357-.432 1.079 1.079 0 0 0 .432-.863v-1.542c0-.863 0-1.542-.247-1.788a2.62 2.62 0 0 0-.678-.863 3.3 3.3 0 0 0-1.788-.432l-4.5-.678a5.581 5.581 0 0 1-4.255-2.466c-.925-1.357-1.11-3.083-1.11-5.549a11.5 11.5 0 0 1 1.11-5.3 6.056 6.056 0 0 1 3.145-2.466 17.442 17.442 0 0 1 5.118-.678 35.394 35.394 0 0 1 7.831.863v4.871c-2.466-.247-4.5-.432-6.474-.432a12.709 12.709 0 0 0-3.823.432c-.432.247-.432.432-.678.863a2.9 2.9 0 0 0-.247 1.542c0 .678 0 1.357.247 1.542.247.247.247.432.432.678.247.247.678.247 1.541.432l4.686.678a8.778 8.778 0 0 1 2.713.863 5.08 5.08 0 0 1 1.788 1.973 14.3 14.3 0 0 1 .925 5.118 12.669 12.669 0 0 1-1.11 5.8 5.447 5.447 0 0 1-2.9 2.651 14.786 14.786 0 0 1-4.933.678c-3.087-.131-5.985-.562-8.452-.809Zm26.144.247V21.951h-6.474v-5.3h19.238v5.3h-6.474v22.013Zm29.289 0-1.357-5.549h-8.262l-1.357 5.549h-6.289l7.4-27.562h8.694l7.4 27.562Zm-5.364-21.766h-.251l-2.713 11.1h5.613Zm27.5 22.013a15.153 15.153 0 0 1-3.33.247 13.511 13.511 0 0 1-6.721-1.357 5.889 5.889 0 0 1-2.9-4.193 55.272 55.272 0 0 1 0-17.265 5.889 5.889 0 0 1 2.9-4.193c1.357-.863 3.576-1.357 6.721-1.357a13.536 13.536 0 0 1 3.145.247 14.116 14.116 0 0 0 2.713.432v4.871c-2.22-.247-3.823-.432-4.5-.432a15.352 15.352 0 0 0-3.823.432 3.23 3.23 0 0 0-1.357 2.22 37.322 37.322 0 0 0-.247 6.228 37.747 37.747 0 0 0 .247 6.228 3.23 3.23 0 0 0 1.357 2.22c.678.432 2.035.432 3.823.432a40.107 40.107 0 0 0 4.686-.432v4.871a14.574 14.574 0 0 1-2.718.8Zm20.779-.247-6.289-11.345h-1.788v11.345h-6.289V16.402h6.289v10.852h1.788l6.289-10.852h6.721l-8.077 13.134 8.077 14.243Zm13.689-19.3v-6.659h-2.466v-1.357h6.474v1.357h-2.466v6.659Zm5.118 0v-8.262h2.463l1.542 5.549 1.542-5.549h2.466v8.2h-1.541V18.19l-1.542 6.413h-1.542l-1.542-6.413v6.413h-1.85Z" data-name="Path 224486"/></svg>