<svg xmlns="http://www.w3.org/2000/svg" width="468.6" height="132.25" viewBox="0 0 468.6 132.25">
  <path id="Path_275429" data-name="Path 275429" d="M37.417,1.775c10.508,0,17.253-1.7,25.205-5.751V-21.939a45.349,45.349,0,0,1-16.4,2.982c-9.017,0-13.916-2.13-13.916-6.035,0-3.621,4.473-5.822,13.987-5.822,6.461,0,13.348,1.562,16.33,2.911V-46.718a58.808,58.808,0,0,0-24.566-4.757C12.78-51.475.852-39.05.852-24.424.852-9.3,13.49,1.775,37.417,1.775Zm65.462,0c23.643,0,37.2-12.212,37.2-27.122,0-15.62-13.561-26.128-37.133-26.128-23.714,0-37.275,10.579-37.275,26.128C65.675-10.508,79.236,1.775,102.879,1.775Zm0-19.525c-3.9,0-6.461-2.911-6.461-7.384,0-4.331,2.556-6.816,6.461-6.816s6.461,2.485,6.461,6.816C109.34-20.661,106.784-17.75,102.879-17.75Zm83.851-8.662L176.861-49.7h-33.3V0h23.43V-23.288L177.145,0H210.16V-49.7H186.73ZM275.2-49.7H213.639v20.164h16.827V0h28.4V-29.536H275.2Zm31.879,29.962h23.217V-30.246H307.075v-2.7h24.14V-49.7h-52.54V0h52.611V-16.756H307.075Zm72.349-6.674L369.555-49.7h-33.3V0h23.43V-23.288L369.839,0h33.015V-49.7h-23.43ZM467.89-49.7H406.333v20.164H423.16V0h28.4V-29.536h16.33ZM37.417,49.038,31.169,29.3H-.71L22.436,79H53.179L76.4,29.3H44.233ZM108.7,80.775c23.643,0,37.2-12.212,37.2-27.122,0-15.62-13.561-26.128-37.133-26.128C85.058,27.525,71.5,38.1,71.5,53.653,71.5,68.492,85.058,80.775,108.7,80.775Zm0-19.525c-3.9,0-6.461-2.911-6.461-7.384,0-4.331,2.556-6.816,6.461-6.816s6.461,2.485,6.461,6.816C115.162,58.339,112.606,61.25,108.7,61.25Zm69.651-18.389L171.678,29.3H139.089L162.8,66.362V79h31.24V66.291l23.5-36.991H184.955ZM279.03,79,264.049,29.3H221.094L206.184,79h27.548l1.349-5.538H249.21L250.559,79ZM242.181,43.855l4.047,17.182h-8.165Zm67.8,16.4h12.141c-1.207,1.917-3.692,3.053-7.81,3.053-5.467,0-8.52-2.911-8.52-7.171,0-6.39,6.532-10.153,17.537-10.153a65.18,65.18,0,0,1,17.324,2.13V31.43a79.353,79.353,0,0,0-25.773-3.905c-26.838,0-38.766,12.354-38.766,26.98,0,15.194,12.638,26.27,36.352,26.27,20.448,0,32.944-9.443,32.944-26.483v-4.97H313.323Zm67.237-.994H400.44V48.754H377.223v-2.7h24.14V29.3h-52.54V79h52.611V62.244H377.223Z" transform="translate(0.71 51.475)" fill="#fff"/>
</svg>
