<svg xmlns="http://www.w3.org/2000/svg" width="32" height="32"><g data-name="Group 18470" transform="translate(-718 -6549)"><rect width="32" height="32" fill="#e97777" data-name="Rectangle 122" rx="5" transform="translate(718 6549)"/><g fill="none" stroke="#fff" data-name="Group 30912" transform="translate(-401.207 81.624)"><path d="M1132.7 6487.072a4.994 4.994 0 0 1-1.593-3.692 5.119 5.119 0 0 1 1.532-3.692 2.08 2.08 0 0 0-2.939-2.945 9.567 9.567 0 0 0-2.7 6.634 9.357 9.357 0 0 0 2.758 6.634 2.053 2.053 0 0 0 2.942 0 2.2 2.2 0 0 0 0-2.939Z" data-name="Path 224481"/><path d="M1132.699 6479.684a5.006 5.006 0 0 1 3.692-1.578 5.146 5.146 0 0 1 3.692 1.532 2.08 2.08 0 0 0 2.942-2.942 9.567 9.567 0 0 0-6.634-2.7 9.357 9.357 0 0 0-6.634 2.758 2.053 2.053 0 0 0 0 2.942 2.22 2.22 0 0 0 2.942-.012Z" data-name="Path 224482"/><path d="M1140.087 6487.069a5.006 5.006 0 0 1-3.7 1.575 5.146 5.146 0 0 1-3.692-1.532 2.08 2.08 0 1 0-2.942 2.942 9.567 9.567 0 0 0 6.634 2.7 9.357 9.357 0 0 0 6.634-2.758 2.053 2.053 0 0 0 0-2.942 2.22 2.22 0 0 0-2.934.015Z" data-name="Path 224483"/><circle cx="2.053" cy="2.053" r="2.053" data-name="Ellipse 2" transform="translate(1129.176 6476.16)"/><circle cx="2.053" cy="2.053" r="2.053" data-name="Ellipse 3" transform="translate(1129.176 6486.487)"/></g></g></svg>