<svg xmlns="http://www.w3.org/2000/svg" width="376" height="62.479"><path fill="#f0553d" d="M58.155 25.443a1.053 1.053 0 0 1-1.128 1.128H35.281a1.053 1.053 0 0 1-1.128-1.128v-2.507a1.053 1.053 0 0 1 1.128-1.128h21.745a1.053 1.053 0 0 1 1.128 1.128Zm9.651 7.019a1.053 1.053 0 0 1-1.128 1.128H39.856a1.053 1.053 0 0 1-1.128-1.128v-2.507a1.053 1.053 0 0 1 1.128-1.128h26.571a1.053 1.053 0 0 1 1.128 1.128l.251 2.507Zm7.332 7.332a1.053 1.053 0 0 1-1.128 1.128H44.932a1.053 1.053 0 0 1-1.128-1.128v-2.507a1.053 1.053 0 0 1 1.128-1.128h29.077a1.053 1.053 0 0 1 1.128 1.128v2.507Zm0 7.269a1.053 1.053 0 0 1-1.128 1.128H44.932a1.053 1.053 0 0 1-1.128-1.128v-2.507a1.053 1.053 0 0 1 1.128-1.128h29.077a1.053 1.053 0 0 1 1.128 1.128v2.507Zm-7.332 7.019a1.053 1.053 0 0 1-1.128 1.128H39.856a1.053 1.053 0 0 1-1.128-1.128v-2.507a1.053 1.053 0 0 1 1.128-1.128h26.571a1.053 1.053 0 0 1 1.128 1.128l.251 2.507Zm-9.651 7.269a1.053 1.053 0 0 1-1.128 1.128H35.281a1.053 1.053 0 0 1-1.128-1.128v-2.507a1.053 1.053 0 0 1 1.128-1.128h21.745a1.053 1.053 0 0 1 1.128 1.128ZM16.983 3.635a1.053 1.053 0 0 0 1.128 1.128h21.745a1.053 1.053 0 0 0 1.128-1.128V1.128A1.053 1.053 0 0 0 39.856 0H18.111a1.053 1.053 0 0 0-1.128 1.128v2.507Zm-9.651 7.269a1.053 1.053 0 0 0 1.128 1.128h26.571a1.053 1.053 0 0 0 1.128-1.128V8.4a1.053 1.053 0 0 0-1.128-1.128H8.46A1.053 1.053 0 0 0 7.332 8.4v2.5ZM0 18.173a1.053 1.053 0 0 0 1.128 1.128h29.077a1.053 1.053 0 0 0 1.128-1.128v-2.507a1.053 1.053 0 0 0-1.128-1.128H1.128A1.053 1.053 0 0 0 0 15.666Zm0 7.269a1.053 1.053 0 0 0 1.128 1.128h29.077a1.053 1.053 0 0 0 1.128-1.128v-2.507a1.053 1.053 0 0 0-1.128-1.128H1.128A1.053 1.053 0 0 0 0 22.935Zm7.332 7.019a1.053 1.053 0 0 0 1.128 1.128h26.571a1.053 1.053 0 0 0 1.128-1.128v-2.507a1.053 1.053 0 0 0-1.128-1.128H8.46a1.053 1.053 0 0 0-1.128 1.128v2.507Zm9.651 7.332a1.053 1.053 0 0 0 1.128 1.128h21.745a1.053 1.053 0 0 0 1.128-1.128v-2.507a1.053 1.053 0 0 0-1.128-1.128H18.111a1.053 1.053 0 0 0-1.128 1.128v2.507Z" data-name="Path 224485"/><path fill="#202025" d="M103.4 44.931a15.4 15.4 0 0 1-3.384.251 13.73 13.73 0 0 1-6.831-1.379 6.569 6.569 0 0 1-2.945-4.261 56.175 56.175 0 0 1 0-17.547 5.985 5.985 0 0 1 2.945-4.261c1.379-.877 3.635-1.379 6.831-1.379a13.756 13.756 0 0 1 3.2.251 14.346 14.346 0 0 0 2.757.439v4.951c-2.256-.251-3.885-.439-4.575-.439a15.6 15.6 0 0 0-3.885.439c-.689.251-1.128 1.128-1.379 2.256a37.931 37.931 0 0 0-.251 6.329 38.359 38.359 0 0 0 .251 6.329 3.283 3.283 0 0 0 1.379 2.256c.689.439 2.068.439 3.885.439a40.755 40.755 0 0 0 4.763-.439v4.951a8.578 8.578 0 0 1-2.761.814Zm9.776-1.191a6.017 6.017 0 0 1-2.757-4.073c-.439-1.817-.439-4.951-.439-9.024a85.231 85.231 0 0 1 .439-9.024 5.243 5.243 0 0 1 2.757-4.073c1.379-.877 3.885-1.128 7.269-1.128s5.891.439 7.269 1.128a6.017 6.017 0 0 1 2.757 4.073c.439 1.817.439 4.763.439 9.024a85.226 85.226 0 0 1-.439 9.024 5.734 5.734 0 0 1-2.757 4.073c-1.567.877-3.885 1.128-7.269 1.128-3.383.252-5.894-.186-7.269-1.126Zm10.215-4.509a2.553 2.553 0 0 0 .94-2.005 41.081 41.081 0 0 0 .251-6.517 41.082 41.082 0 0 0-.251-6.517c-.251-1.128-.439-1.817-.94-2.005a7.343 7.343 0 0 0-2.945-.439 8.708 8.708 0 0 0-2.945.439 2.553 2.553 0 0 0-.94 2.005 41.081 41.081 0 0 0-.251 6.517 41.08 41.08 0 0 0 .251 6.517c.251 1.128.439 1.817.94 2.005a7.342 7.342 0 0 0 2.945.439c1.378-.002 2.256.061 2.945-.439Zm26.571 5.452-8.211-16.044h-.251v16.043h-6.14V16.67h6.391l7.709 14.661h.251V16.67h6.14v28.012Zm15.479 0V22.31h-6.58v-5.389h19.552v5.389h-6.58v22.372Zm16.105 0V16.67h16.795v5.2h-10.654v5.891h9.087v5.2h-9.087v6.27h10.653v5.2h-16.794Zm35.908 0-8.209-16.043h-.251v16.043h-6.143V16.67h6.392l7.708 14.661h.251V16.67h6.141v28.012Zm15.479 0V22.31h-6.582v-5.389h19.552v5.389h-6.58v22.372Zm15.855-.251v-4.951c3.384.251 5.7.439 7.269.439a8.774 8.774 0 0 0 2.757-.251 9.034 9.034 0 0 0 1.379-.439 1.1 1.1 0 0 0 .439-.877v-1.567c0-.877 0-1.567-.251-1.817a2.662 2.662 0 0 0-.689-.877 3.356 3.356 0 0 0-1.817-.439l-4.575-.689a5.672 5.672 0 0 1-4.324-2.507c-.94-1.379-1.128-3.133-1.128-5.64a11.688 11.688 0 0 1 1.128-5.389 6.154 6.154 0 0 1 3.2-2.507 17.725 17.725 0 0 1 5.2-.689 35.97 35.97 0 0 1 7.959.877v4.951c-2.507-.251-4.575-.439-6.58-.439a12.916 12.916 0 0 0-3.885.439c-.439.251-.439.439-.689.877a2.949 2.949 0 0 0-.251 1.567c0 .689 0 1.379.251 1.567.251.251.251.439.439.689.251.251.689.251 1.567.439l4.763.689a8.923 8.923 0 0 1 2.757.877 5.164 5.164 0 0 1 1.817 2.005 14.536 14.536 0 0 1 .94 5.2 12.876 12.876 0 0 1-1.128 5.891 5.536 5.536 0 0 1-2.945 2.695 15.029 15.029 0 0 1-5.013.689c-3.139-.125-6.084-.563-8.591-.814Zm26.571.251V22.31h-6.58v-5.389h19.552v5.389h-6.58v22.372Zm29.767 0-1.379-5.64h-8.4l-1.379 5.64h-6.392l7.52-28.012h8.836l7.52 28.012Zm-5.452-22.121h-.251l-2.757 11.28h5.7Zm27.948 22.369a15.4 15.4 0 0 1-3.384.251 13.73 13.73 0 0 1-6.831-1.379 5.985 5.985 0 0 1-2.945-4.261 56.173 56.173 0 0 1 0-17.547 5.985 5.985 0 0 1 2.945-4.261c1.379-.877 3.635-1.379 6.831-1.379a13.757 13.757 0 0 1 3.2.251 14.346 14.346 0 0 0 2.757.439v4.951c-2.256-.251-3.885-.439-4.575-.439a15.6 15.6 0 0 0-3.885.439 3.283 3.283 0 0 0-1.379 2.256 37.934 37.934 0 0 0-.251 6.329 38.365 38.365 0 0 0 .251 6.329 3.283 3.283 0 0 0 1.379 2.256c.689.439 2.068.439 3.885.439a40.755 40.755 0 0 0 4.763-.439v4.951a14.816 14.816 0 0 1-2.761.814Zm21.119-.251-6.39-11.529h-1.82v11.531h-6.392V16.67h6.392v11.029h1.82l6.392-11.029h6.831l-8.209 13.348 8.209 14.476Zm13.91-19.613v-6.768h-2.507V16.92h6.58v1.379h-2.507v6.768Zm5.2 0v-8.4h2.507l1.567 5.64 1.567-5.64h2.507v8.335h-1.567v-6.517l-1.567 6.517h-1.567l-1.567-6.517v6.517h-1.88Z" data-name="Path 224486"/></svg>