<svg xmlns="http://www.w3.org/2000/svg" width="395.825" height="132.25" viewBox="0 0 395.825 132.25">
  <path id="Path_275405" data-name="Path 275405" d="M34.009,0C61.131,0,71.5-12.922,71.5-25.276,71.5-39.05,60.066-49.7,36.139-49.7H2.627V0ZM31.027-33.086h3.195c4.686,0,6.6,3.692,6.6,7.81,0,4.97-2.272,8.662-7.313,8.662H31.027ZM103.376,0V-49.7h-28.4V0Zm37.346-18.744h12.141c-1.207,1.917-3.692,3.053-7.81,3.053-5.467,0-8.52-2.911-8.52-7.171,0-6.39,6.532-10.153,17.537-10.153a65.18,65.18,0,0,1,17.324,2.13V-47.57a79.353,79.353,0,0,0-25.773-3.905c-26.838,0-38.766,12.354-38.766,26.98,0,15.194,12.638,26.27,36.352,26.27,20.448,0,32.944-9.443,32.944-26.483v-4.97H144.059ZM207.959,0V-49.7h-28.4V0Zm65.036-49.7H211.438v20.164h16.827V0h28.4V-29.536h16.33ZM340.587,0,325.606-49.7H282.651L267.741,0h27.548l1.349-5.538h14.129L312.116,0ZM303.738-35.145l4.047,17.182H299.62ZM371.33-49.7h-28.4V0h55.522V-20.022H371.33ZM56.161,51.239c6.106-1.136,8.946-4.4,8.946-9.23,0-7.455-6.532-12.709-21.513-12.709H2.627V79H42.174c18.318,0,25.418-6.532,25.418-15.975C67.592,57.132,64.4,52.73,56.161,51.239ZM34.719,43.287c2.059,0,3.337,1.136,3.337,3.053s-1.207,3.266-3.479,3.266h-4.26V43.287Zm-4.4,22.01V57.842h5.112c2.769,0,4.047,1.633,4.047,3.692,0,2.2-1.491,3.763-4.473,3.763Zm68.87-36h-28.4V79h55.522V58.978H99.187Zm65.249,51.475c23.643,0,37.2-12.212,37.2-27.122,0-15.62-13.561-26.128-37.133-26.128-23.714,0-37.275,10.579-37.275,26.128C127.232,68.492,140.793,80.775,164.436,80.775Zm0-19.525c-3.9,0-6.461-2.911-6.461-7.384,0-4.331,2.556-6.816,6.461-6.816s6.461,2.485,6.461,6.816C170.9,58.339,168.341,61.25,164.436,61.25Zm76.112,19.525c23.643,0,37.2-12.212,37.2-27.122,0-15.62-13.561-26.128-37.133-26.128-23.714,0-37.275,10.579-37.275,26.128C203.344,68.492,216.9,80.775,240.548,80.775Zm0-19.525c-3.9,0-6.461-2.911-6.461-7.384,0-4.331,2.556-6.816,6.461-6.816s6.461,2.485,6.461,6.816C247.009,58.339,244.453,61.25,240.548,61.25ZM369.058,29.3H329.511L326.1,47.973,322.837,29.3H282.651L280.237,79H303.17l1.207-30.459L310.483,79h27.761l5.893-30.956L345.557,79H371.9Z" transform="translate(-2.627 51.475)" fill="#fff"/>
</svg>
