<svg xmlns="http://www.w3.org/2000/svg" width="477.049" height="128.7" viewBox="0 0 477.049 128.7">
  <path id="Path_276692" data-name="Path 276692" d="M31.027-19.738H54.244V-30.246H31.027v-2.7h24.14V-49.7H2.627V0H55.238V-16.756H31.027Zm69.3,7.1V-35.145H60.208v22.507Zm73.556-19.525c0-11.076-8.307-17.537-21.513-17.537H105.577V0h28.4V-18.46L142.142,0h31.666l-9.443-17.75A14.943,14.943,0,0,0,173.879-32.163Zm-39.9,7.81V-33.37h4.9c3.479,0,5.609,1.562,5.609,4.331,0,2.911-2.059,4.686-5.609,4.686Zm71.5,4.615h23.217V-30.246H205.474v-2.7h24.14V-49.7h-52.54V0h52.611V-16.756H205.474ZM294.437-49.7H232.88v20.164h16.827V0h28.4V-29.536h16.33ZM362.029,0,347.048-49.7H304.093L289.183,0h27.548l1.349-5.538h14.129L333.558,0ZM325.18-35.145l4.047,17.182h-8.165ZM392.772,0V-49.7h-28.4V0Zm33.654-49.7h-28.4V0h55.522V-20.022H426.426ZM62.409,29.3H.852V49.464H17.679V79h28.4V49.464h16.33Zm41.109,15.62h-9.23V29.3h-28.4V79h28.4V61.676h9.23V79h28.4V29.3h-28.4Zm62.054,14.342h23.217V48.754H165.572v-2.7h24.14V29.3h-52.54V79h52.611V62.244H165.572Zm97.483-12.425c0-11.076-8.307-17.537-21.513-17.537H194.753V79h28.4V60.54L231.318,79h31.666l-9.443-17.75A14.943,14.943,0,0,0,263.055,46.837Zm-39.9,7.81V45.63h4.9c3.479,0,5.609,1.562,5.609,4.331,0,2.911-2.059,4.686-5.609,4.686ZM334.978,79,320,29.3H277.042L262.132,79H289.68l1.349-5.538h14.129L306.507,79ZM298.129,43.855l4.047,17.182h-8.165ZM337.321,29.3V79h28.4V68.918h12c18.247,0,28.045-8.307,28.045-19.6,0-11.928-8.023-20.022-24.211-20.022Zm28.4,26.128v-9.8h4.473c4.26,0,6.461,1.917,6.461,4.9,0,2.911-2.343,4.9-7.455,4.9Zm72.988-12.567L432.035,29.3H399.446L423.16,66.362V79H454.4V66.291L477.9,29.3H445.312Z" transform="translate(-0.852 49.7)" fill="#fff"/>
</svg>
