<svg xmlns="http://www.w3.org/2000/svg" width="376" height="91.631" data-name="download (2)"><path fill="#212067" fill-rule="evenodd" d="M362.661 13.384a7.463 7.463 0 0 0 5.464 2.321 7.567 7.567 0 0 0 5.561-2.321A7.5 7.5 0 0 0 376 7.9a7.668 7.668 0 0 0-2.314-5.531A7.49 7.49 0 0 0 368.125 0a7.388 7.388 0 0 0-5.464 2.371 7.68 7.68 0 0 0-2.313 5.529 7.516 7.516 0 0 0 2.313 5.484Zm-166.07 20.2a.293.293 0 0 1-.293.293h-10.83v20.549a4.9 4.9 0 0 0 1.28 3.754 5.862 5.862 0 0 0 3.741 1.334 52.373 52.373 0 0 0 5.492-.018l.3-.015a.293.293 0 0 1 .308.293v10.984a.293.293 0 0 1-.261.291l-.2.021q-12.728 1.362-18-2.52-5.359-3.95-5.359-14.124V33.881h-8.271a.293.293 0 0 1-.293-.293V21.926a.293.293 0 0 1 .293-.293h8.271v-8.157a.586.586 0 0 1 .349-.536l11.938-5.272a.293.293 0 0 1 .411.268v13.7h10.831a.293.293 0 0 1 .293.293Zm23.027-3.463a13.3 13.3 0 0 1 5.857-7.112 17.63 17.63 0 0 1 8.26-2.353c.146-.006.369-.01.549-.013a.292.292 0 0 1 .3.292v13.4a.475.475 0 0 1-.522.47 14.811 14.811 0 0 0-9.864 2.425q-4.577 3.062-4.577 10.174v23.321a.293.293 0 0 1-.293.293h-12.119a.293.293 0 0 1-.293-.293v-48.8a.293.293 0 0 1 .293-.293h12.113a.293.293 0 0 1 .293.293Zm60.044-8.494a.293.293 0 0 0-.293.293v5.535q-5.71-7.21-16.046-7.21a22.268 22.268 0 0 0-16.882 7.555 26.161 26.161 0 0 0-7.039 18.52 26.161 26.161 0 0 0 7.039 18.52 22.268 22.268 0 0 0 16.882 7.56q10.336 0 16.046-7.211v5.535a.293.293 0 0 0 .293.293h12.113a.293.293 0 0 0 .292-.293v-48.8a.293.293 0 0 0-.292-.293ZM255.939 56.4a14.249 14.249 0 0 0 19.54-.049 13.6 13.6 0 0 0 3.888-10.025 13.6 13.6 0 0 0-3.888-10.026 13.255 13.255 0 0 0-9.795-3.9 13.092 13.092 0 0 0-9.745 3.9 13.69 13.69 0 0 0-3.839 10.025 13.86 13.86 0 0 0 3.839 10.075Zm91.282-28.6a22.374 22.374 0 0 0-16.981-7.556q-10.334 0-15.947 7.21v-5.529a.293.293 0 0 0-.292-.293h-12.112a.294.294 0 0 0-.295.293V90.48a.294.294 0 0 0 .295.293h12.113a.293.293 0 0 0 .292-.293V65.191q5.61 7.21 15.947 7.211a22.374 22.374 0 0 0 16.981-7.556 26.157 26.157 0 0 0 7.038-18.52 26.157 26.157 0 0 0-7.039-18.526Zm-29.087 28.6a14.246 14.246 0 0 0 19.538-.049 13.589 13.589 0 0 0 3.889-10.025 13.588 13.588 0 0 0-3.889-10.026 13.251 13.251 0 0 0-9.793-3.9 13.087 13.087 0 0 0-9.745 3.9 13.689 13.689 0 0 0-3.84 10.025 13.858 13.858 0 0 0 3.84 10.075Zm43.983 14.62a.293.293 0 0 1-.292-.293v-48.8a.293.293 0 0 1 .292-.293h12.113a.294.294 0 0 1 .295.293v48.8a.294.294 0 0 1-.295.293ZM135.442 38.868q-2.609-1.235-2.609-3.21a3.39 3.39 0 0 1 1.624-2.963 7.194 7.194 0 0 1 4.085-1.086 7.966 7.966 0 0 1 7.13 3.691.417.417 0 0 0 .518.158l10.714-4.758a.291.291 0 0 0 .133-.415c-.118-.2-.273-.46-.377-.623a19.308 19.308 0 0 0-7.191-6.7 22.233 22.233 0 0 0-10.927-2.716 20.983 20.983 0 0 0-13.339 4.2 13.815 13.815 0 0 0-5.364 11.508A12.349 12.349 0 0 0 122.447 44a15.366 15.366 0 0 0 6.35 4.692 66.191 66.191 0 0 0 7.481 2.469 37.167 37.167 0 0 1 6.349 2.222q2.609 1.235 2.609 3.21 0 4.247-6.792 4.247-6.466 0-8.961-4.795a.584.584 0 0 0-.753-.275l-10.684 4.75a.292.292 0 0 0-.145.393l.122.25Q123.624 72.4 138.444 72.4q8.466 0 14.126-4.1t5.66-11.7a13.275 13.275 0 0 0-2.609-8.4 14.526 14.526 0 0 0-6.349-4.79 65.457 65.457 0 0 0-7.482-2.371 34.7 34.7 0 0 1-6.348-2.171Z" data-name="Path 237618"/><path fill="#4945ff" d="M16.188.859h58.4a16.188 16.188 0 0 1 16.185 16.188v58.4a16.188 16.188 0 0 1-16.188 16.185h-58.4A16.188 16.188 0 0 1 0 75.444v-58.4A16.188 16.188 0 0 1 16.188.859Z" data-name="Path 237623"/><path fill="#fff" fill-rule="evenodd" d="M62.937 28.241H31.962v15.473h15.5a.452.452 0 0 1 .452.452v15.5H63.39V28.694a.452.452 0 0 0-.453-.453Z" data-name="Path 237619"/><path fill="#fff" fill-rule="evenodd" d="M31.965 28.24v15.472H17.041a.226.226 0 0 1-.16-.386Z" data-name="Path 237620" opacity=".42"/><path fill="#fff" fill-rule="evenodd" d="M48.306 74.754a.226.226 0 0 1-.386-.16V59.668h15.472Z" data-name="Path 237621" opacity=".42"/><path fill="#fff" d="M31.969 43.714h15.73a.226.226 0 0 1 .226.226v15.729h-15.5a.452.452 0 0 1-.452-.452Z" data-name="Path 237622" opacity=".42"/></svg>