<svg data-name="Component 24 – 1" xmlns="http://www.w3.org/2000/svg" xmlns:xlink="http://www.w3.org/1999/xlink" width="25" height="25"><defs><linearGradient id="a" y1="-.019" x2="1" y2=".968" gradientUnits="objectBoundingBox"><stop offset=".039" stop-color="#8549e4"/><stop offset=".16" stop-color="#a746bf"/><stop offset=".311" stop-color="#cd4497"/><stop offset=".451" stop-color="#e8427b"/><stop offset=".572" stop-color="#f9416a"/><stop offset=".661" stop-color="#ff4164"/><stop offset=".721" stop-color="#ff515d"/><stop offset=".841" stop-color="#ff7d4a"/><stop offset="1" stop-color="#ffc12f"/></linearGradient><linearGradient id="b" x1="-.158" y1="-.142" x2="1.085" y2="1.076" xlink:href="#a"/><linearGradient id="c" x1="-.5" y1="-.539" x2="1.633" y2="1.664" xlink:href="#a"/></defs><g data-name="Group 30937"><g data-name="Group 681"><g data-name="Group 680" transform="translate(4.074 3.843)"><path data-name="Path 1339" d="M566 234.478c2.271 0 2.539.009 3.436.049a4.7 4.7 0 0 1 1.579.293 2.815 2.815 0 0 1 1.614 1.614 4.71 4.71 0 0 1 .293 1.579c.041.9.049 1.166.049 3.436s-.009 2.539-.049 3.436a4.71 4.71 0 0 1-.293 1.579 2.815 2.815 0 0 1-1.614 1.614 4.708 4.708 0 0 1-1.579.293c-.9.041-1.165.049-3.436.049s-2.54-.009-3.436-.049a4.707 4.707 0 0 1-1.579-.293 2.815 2.815 0 0 1-1.614-1.614 4.7 4.7 0 0 1-.293-1.579c-.041-.9-.049-1.166-.049-3.436s.009-2.539.049-3.436a4.7 4.7 0 0 1 .293-1.579 2.815 2.815 0 0 1 1.614-1.614 4.7 4.7 0 0 1 1.579-.293c.9-.041 1.166-.049 3.436-.049m0-1.532c-2.309 0-2.6.01-3.506.051a6.242 6.242 0 0 0-2.064.4 4.348 4.348 0 0 0-2.487 2.487 6.244 6.244 0 0 0-.4 2.064c-.041.907-.051 1.2-.051 3.506s.01 2.6.051 3.506a6.244 6.244 0 0 0 .4 2.064 4.348 4.348 0 0 0 2.487 2.487 6.241 6.241 0 0 0 2.064.4c.907.041 1.2.051 3.506.051s2.6-.01 3.506-.051a6.242 6.242 0 0 0 2.064-.4 4.348 4.348 0 0 0 2.487-2.487 6.242 6.242 0 0 0 .4-2.064c.041-.907.051-1.2.051-3.506s-.01-2.6-.051-3.506a6.242 6.242 0 0 0-.4-2.064 4.348 4.348 0 0 0-2.487-2.487 6.243 6.243 0 0 0-2.064-.4c-.907-.041-1.2-.051-3.506-.051Z" transform="translate(-557.5 -232.946)" fill="url(#a)"/><path data-name="Path 1340" d="M582.543 253.622a4.367 4.367 0 1 0 4.367 4.367 4.367 4.367 0 0 0-4.367-4.367Zm0 7.2a2.835 2.835 0 1 1 2.835-2.835 2.835 2.835 0 0 1-2.835 2.836Z" transform="translate(-574.039 -249.485)" fill="url(#b)"/><circle data-name="Ellipse 24" cx="1.02" cy="1.02" r="1.02" transform="translate(12.022 2.944)" fill="url(#c)"/></g></g></g></svg>