<svg data-name="Component 24 – 7" xmlns="http://www.w3.org/2000/svg" width="25" height="25"><g data-name="Group 682"><g data-name="Group 681"><g data-name="Group 680" fill="#fff" transform="translate(4.074 3.843)"><path data-name="Path 1339" d="M8.5 1.532c2.271 0 2.539.009 3.436.049a4.7 4.7 0 0 1 1.579.293 2.815 2.815 0 0 1 1.614 1.614 4.71 4.71 0 0 1 .293 1.579c.041.9.049 1.166.049 3.436s-.009 2.539-.049 3.436a4.71 4.71 0 0 1-.293 1.579 2.815 2.815 0 0 1-1.614 1.614 4.708 4.708 0 0 1-1.579.293c-.9.041-1.165.049-3.436.049s-2.54-.009-3.436-.049a4.707 4.707 0 0 1-1.579-.293 2.815 2.815 0 0 1-1.614-1.614 4.7 4.7 0 0 1-.293-1.579c-.041-.9-.049-1.166-.049-3.436s.009-2.539.049-3.436a4.7 4.7 0 0 1 .293-1.579 2.815 2.815 0 0 1 1.614-1.614 4.7 4.7 0 0 1 1.579-.293c.9-.041 1.166-.049 3.436-.049M8.5 0C6.191 0 5.9.01 4.994.051a6.242 6.242 0 0 0-2.064.4A4.348 4.348 0 0 0 .443 2.938a6.244 6.244 0 0 0-.4 2.064c-.041.907-.051 1.2-.051 3.506s.01 2.6.051 3.506a6.244 6.244 0 0 0 .4 2.064 4.348 4.348 0 0 0 2.487 2.487 6.241 6.241 0 0 0 2.064.4c.907.041 1.2.051 3.506.051s2.6-.01 3.506-.051a6.242 6.242 0 0 0 2.064-.4 4.348 4.348 0 0 0 2.487-2.487 6.242 6.242 0 0 0 .4-2.064c.041-.907.051-1.2.051-3.506s-.01-2.6-.051-3.506a6.242 6.242 0 0 0-.4-2.064A4.348 4.348 0 0 0 14.07.451a6.243 6.243 0 0 0-2.064-.4C11.099.01 10.806 0 8.5 0Z"/><path data-name="Path 1340" d="M8.504 4.137a4.367 4.367 0 1 0 4.367 4.367 4.367 4.367 0 0 0-4.367-4.367Zm0 7.2a2.835 2.835 0 1 1 2.835-2.835 2.835 2.835 0 0 1-2.835 2.836Z"/><circle data-name="Ellipse 24" cx="1.02" cy="1.02" r="1.02" transform="translate(12.022 2.944)"/></g></g></g></svg>