<svg xmlns="http://www.w3.org/2000/svg" width="32" height="32"><g data-name="Group 18470" transform="translate(-718 -6549)"><rect data-name="Rectangle 122" width="32" height="32" rx="5" transform="translate(718 6549)" fill="#e97777" opacity=".2"/><g data-name="Group 31441"><path data-name="Exclusion 4" d="M733.547 6574.997a9.539 9.539 0 1 1 9.559-9.54 9.554 9.554 0 0 1-9.559 9.54Zm.016-7.065a.833.833 0 0 0-.891.823v1.968c0 .762.613.922 1.129.922a3.02 3.02 0 0 0 .545-.053l.018-.011a.142.142 0 0 0 .035-.025.086.086 0 0 0 .031-.066v-2.741a.809.809 0 0 0-.867-.817Zm-2.42-1.012a.774.774 0 0 0-.547.235l-1.395 1.395a.836.836 0 0 0-.283.686c.053.538.664.988.85 1.113a.083.083 0 0 0 .066.018.078.078 0 0 0 .066-.03l1.945-1.938a.752.752 0 0 0 .18-.854 1.008 1.008 0 0 0-.882-.625Zm4.8 0a.992.992 0 0 0-.861.611.775.775 0 0 0 .17.875l1.395 1.395a.87.87 0 0 0 .615.286c.547 0 1.016-.6 1.191-.854.018-.018.018-.036.018-.066a.081.081 0 0 0-.031-.066l-1.943-1.938a.772.772 0 0 0-.556-.24Zm-2.383-2.734h-.012a1.279 1.279 0 0 0-1.268 1.286 1.287 1.287 0 0 0 1.283 1.274h.01a1.28 1.28 0 0 0 0-2.561Zm3.281.393a.762.762 0 0 0-.6.269.924.924 0 0 0-.2.6.829.829 0 0 0 .82.885h1.967a.836.836 0 0 0 .68-.28 1.861 1.861 0 0 0 .186-1.386.216.216 0 0 0-.037-.055.083.083 0 0 0-.066-.03h-2.752Zm-8.562 0a.837.837 0 0 0-.684.283 1.86 1.86 0 0 0-.184 1.383.121.121 0 0 0 .033.061.087.087 0 0 0 .066.024h2.748a.763.763 0 0 0 .609-.27.927.927 0 0 0 .2-.6.821.821 0 0 0-.822-.884Zm1.553-3.753c-.543 0-1.01.594-1.186.849a.1.1 0 0 0-.018.066.084.084 0 0 0 .023.066l1.945 1.944a.775.775 0 0 0 .553.242 1 1 0 0 0 .867-.617.769.769 0 0 0-.17-.87l-1.4-1.395a.869.869 0 0 0-.616-.281Zm7.432-.28a.083.083 0 0 0-.066.03l-1.945 1.938a.758.758 0 0 0-.178.855 1 1 0 0 0 .879.622.755.755 0 0 0 .543-.233l1.4-1.395a.831.831 0 0 0 .281-.68 1.864 1.864 0 0 0-.848-1.119.083.083 0 0 0-.068-.015Zm-4.588 1.624a.81.81 0 0 0 .869.8.953.953 0 0 0 .609-.206.765.765 0 0 0 .277-.612v-1.962c0-.761-.617-.921-1.135-.921a3.019 3.019 0 0 0-.537.052l-.012.006a.121.121 0 0 0-.043.036.08.08 0 0 0-.031.061v2.747Z" fill="#e97777"/></g></g></svg>