<svg xmlns="http://www.w3.org/2000/svg" width="341.213" height="115.102"><path data-name="Path 241867" d="m164.35 55.618 15.126 19.449h-10.69l-12.682-17v17h-8.928V36.51h8.928v17.061l12.739-17.117h10.578Zm42.708 8.474h-19.562c.171 3.469 2.5 5.346 6.2 5.346 2.616 0 4.265-.682 4.948-2.388h8.246c-.8 5.232-6.142 8.7-13.194 8.7-9.042 0-14.558-5.118-14.558-13.933 0-8.7 5.687-13.933 14.331-13.933 8.246 0 13.876 5.118 13.876 12.625-.057 1.194-.114 2.388-.284 3.583Zm-8.075-5.232c-.057-3.469-2.047-5.346-5.63-5.346s-5.857 2.161-5.914 5.346Zm13.137-10.35h8.417v3.81c1.535-2.957 4.606-4.606 8.587-4.606 6.426 0 9.725 3.64 9.725 10.862v16.435h-8.53V61.418c0-4.436-1.251-6.483-4.663-6.483s-5.118 2.218-5.118 6.256v13.876h-8.417Zm49.817 19.79v6.711a37.577 37.577 0 0 1-5.63.455c-3.981 0-9.44-.91-9.44-9.781V55.163h-4.208v-6.654h4.208v-7.9h8.417v7.9h6.028v6.654h-5.971v8.815c0 3.924 1.592 4.493 3.7 4.493a24.8 24.8 0 0 0 2.896-.172Zm3.867-27.24a5.176 5.176 0 1 1 .4 1.99 4.038 4.038 0 0 1-.4-1.991Zm.967 7.45h8.36v26.5h-8.355Zm13.305 13.249c0-8.36 5.459-13.933 14.217-13.933 7.9 0 13.08 4.208 13.762 10.805h-8.417c-.626-2.445-2.218-3.64-5.289-3.64-3.64 0-5.857 2.445-5.857 6.824s2.218 6.824 5.857 6.824c3.071 0 4.663-1.081 5.289-3.412h8.417c-.682 6.426-5.857 10.578-13.762 10.578-8.817-.056-14.217-5.686-14.217-14.046Zm31.619 0c0-8.075 5.63-13.933 14.786-13.933s14.729 5.914 14.729 13.933-5.63 13.933-14.729 13.933-14.784-5.857-14.784-13.933Zm21.1 0c0-4.038-2.388-6.881-6.312-6.881-3.981 0-6.312 2.843-6.312 6.881s2.275 6.881 6.312 6.881 6.312-2.843 6.312-6.881Z"/><circle data-name="Ellipse 1730" cx="57.551" cy="57.551" fill="#f05a22" r="57.551"/><path data-name="Path 241868" d="M57.551 49.874a7.766 7.766 0 1 1-5.459 2.332 7.618 7.618 0 0 1 5.459-2.332m19.79 2.388h16.606a.516.516 0 0 1 .4.171 1.191 1.191 0 0 1 .227.341c.4 2.1 1.479 10.066-5.232 10.066h-11.83c-6.54 0-6.654-10.578-.057-10.578M37.704 62.84H21.155a.516.516 0 0 1-.4-.171 1.19 1.19 0 0 1-.227-.341c-.4-2.1-1.479-10.066 5.232-10.066h11.887c6.54 0 6.654 10.578.057 10.578m30.084-23.032 11.715-11.715a.516.516 0 0 1 .4-.171.48.48 0 0 1 .4.114c1.763 1.194 8.189 6.085 3.412 10.862l-8.417 8.417c-4.55 4.493-12.17-2.9-7.507-7.507M47.258 75.294 35.543 87.009a.516.516 0 0 1-.4.171.48.48 0 0 1-.4-.114c-1.763-1.194-8.189-6.085-3.412-10.862l8.417-8.417c4.609-4.549 12.173 2.901 7.51 7.507Zm5-37.59V21.155a.516.516 0 0 1 .171-.4 1.19 1.19 0 0 1 .341-.227c2.1-.4 10.066-1.479 10.066 5.232v11.829c0 6.54-10.578 6.654-10.578.057M62.84 77.398v16.549a.516.516 0 0 1-.171.4 1.189 1.189 0 0 1-.341.227c-2.1.4-10.066 1.479-10.066-5.232V77.455c0-6.54 10.578-6.71 10.578-.057Zm-23.089-30.14L28.036 35.543a.516.516 0 0 1-.171-.4.48.48 0 0 1 .114-.4c1.194-1.763 6.085-8.189 10.862-3.412l8.417 8.417c4.55 4.606-2.843 12.17-7.507 7.507m35.543 20.586 11.715 11.715a.516.516 0 0 1 .171.4.48.48 0 0 1-.114.4c-1.194 1.763-6.085 8.189-10.862 3.412l-8.417-8.417c-4.549-4.606 2.843-12.17 7.507-7.507" fill="#fff"/></svg>