<svg xmlns="http://www.w3.org/2000/svg" width="184" height="47"><defs><clipPath id="a"><path data-name="Rectangle 185" transform="translate(625 136.5)" fill="#fff" stroke="#707070" d="M0 0h184v47H0z"/></clipPath></defs><g data-name="Mask Group 6" transform="translate(-625 -136.5)" clip-path="url(#a)"><g transform="translate(625 136.5)"><path data-name="Path 241867" d="m67.023 22.711 6.184 7.956h-4.371l-5.185-6.951v6.951h-3.649V14.899h3.65v6.975l5.208-7h4.324Zm17.46 3.464h-8a2.228 2.228 0 0 0 2.534 2.185c1.069 0 1.744-.279 2.023-.976h3.371c-.325 2.139-2.511 3.557-5.394 3.557-3.7 0-5.952-2.092-5.952-5.7 0-3.557 2.325-5.7 5.859-5.7 3.371 0 5.673 2.092 5.673 5.161-.023.488-.046.977-.116 1.465Zm-3.3-2.139a2.04 2.04 0 0 0-2.3-2.185 2.192 2.192 0 0 0-2.418 2.185Zm5.371-4.231h3.441v1.562a3.718 3.718 0 0 1 3.511-1.883c2.627 0 3.976 1.488 3.976 4.441v6.719h-3.49v-5.557c0-1.813-.511-2.65-1.906-2.65s-2.092.907-2.092 2.557v5.673h-3.442Zm20.366 8.091v2.743a15.361 15.361 0 0 1-2.3.186c-1.627 0-3.859-.372-3.859-4v-4.3h-1.72v-2.72h1.72v-3.232h3.441v3.232h2.464v2.72h-2.444v3.6c0 1.6.651 1.837 1.511 1.837a10.143 10.143 0 0 0 1.186-.066Zm1.581-11.136a2.116 2.116 0 1 1 .163.814 1.65 1.65 0 0 1-.162-.815Zm.4 3.046h3.418V30.64h-3.418Zm5.44 5.417c0-3.418 2.232-5.7 5.812-5.7 3.232 0 5.347 1.72 5.626 4.417h-3.441a1.906 1.906 0 0 0-2.162-1.488c-1.488 0-2.395 1-2.395 2.79s.907 2.79 2.395 2.79c1.255 0 1.906-.442 2.162-1.395h3.441c-.279 2.627-2.395 4.324-5.626 4.324-3.609-.02-5.818-2.321-5.818-5.739Zm12.926 0c0-3.3 2.3-5.7 6.045-5.7s6.022 2.418 6.022 5.7-2.3 5.7-6.022 5.7-6.051-2.4-6.051-5.701Zm8.625 0a2.59 2.59 0 1 0-2.581 2.813 2.544 2.544 0 0 0 2.581-2.813Z"/><ellipse data-name="Ellipse 1730" cx="23.528" cy="23.5" rx="23.528" ry="23.5" fill="#f05a22"/><path data-name="Path 241868" d="M23.528 20.367a3.172 3.172 0 1 1-2.232.951 3.117 3.117 0 0 1 2.232-.951m8.091.975h6.788a.211.211 0 0 1 .163.07.485.485 0 0 1 .093.139c.163.859.6 4.108-2.139 4.108h-4.836c-2.674 0-2.72-4.316-.023-4.316m-16.248 4.315H8.648a.211.211 0 0 1-.163-.07.485.485 0 0 1-.093-.139c-.163-.859-.6-4.108 2.139-4.108h4.859c2.674 0 2.72 4.316.023 4.316m12.3-9.4 4.789-4.781a.211.211 0 0 1 .163-.07.2.2 0 0 1 .163.046c.721.487 3.348 2.483 1.395 4.432l-3.441 3.435c-1.86 1.833-4.975-1.184-3.069-3.063M19.317 30.74l-4.787 4.777a.211.211 0 0 1-.163.07.2.2 0 0 1-.163-.046c-.721-.487-3.348-2.483-1.395-4.432l3.441-3.435c1.884-1.857 4.976 1.186 3.067 3.066Zm2.046-15.339V8.648a.211.211 0 0 1 .07-.162.487.487 0 0 1 .139-.093c.86-.162 4.115-.6 4.115 2.135v4.827c0 2.669-4.324 2.715-4.324.023m4.324 16.221v6.753a.21.21 0 0 1-.07.162.486.486 0 0 1-.139.093c-.86.162-4.115.6-4.115-2.135v-4.855c.002-2.664 4.327-2.734 4.327-.018Zm-9.439-12.3-4.787-4.782a.211.211 0 0 1-.07-.162.2.2 0 0 1 .046-.162c.488-.719 2.488-3.342 4.441-1.392l3.441 3.435c1.86 1.88-1.162 4.966-3.069 3.063m14.531 8.4 4.789 4.781a.21.21 0 0 1 .07.162.2.2 0 0 1-.047.162c-.488.719-2.488 3.342-4.441 1.392l-3.435-3.433c-1.86-1.88 1.162-4.966 3.069-3.063" fill="#fff"/></g></g></svg>