<svg xmlns="http://www.w3.org/2000/svg" xmlns:xlink="http://www.w3.org/1999/xlink" width="184" height="47" viewBox="0 0 184 47">
  <defs>
    <clipPath id="clip-path">
      <rect id="Rectangle_185" data-name="Rectangle 185" width="184" height="47" transform="translate(625 136.5)" fill="#fff" stroke="#707070" stroke-width="1"/>
    </clipPath>
  </defs>
  <g id="Mask_Group_6" data-name="Mask Group 6" transform="translate(-625 -136.5)" clip-path="url(#clip-path)">
    <g id="download_2_" data-name="download (2)" transform="translate(625 136.846)">
      <g id="Group_31477" data-name="Group 31477" transform="translate(56.475 16.959)">
        <path id="Path_257700" data-name="Path 257700" d="M245.31,83.058l4.4-5.468h3.564l-4.18,5,4.4,7.315h-3.639L246.8,84.625l-1.493,1.81v3.471H242.1V77.59h3.21Z" transform="translate(-242.1 -76.449)"/>
        <path id="Path_257701" data-name="Path 257701" d="M300.912,94.442a4.937,4.937,0,1,1-4.945-4.852A4.571,4.571,0,0,1,300.912,94.442Zm-6.681,0c0,1.829.634,2.594,1.736,2.594s1.754-.765,1.754-2.594-.653-2.594-1.754-2.594S294.231,92.613,294.231,94.442Z" transform="translate(-279.624 -85.65)"/>
        <path id="Path_257702" data-name="Path 257702" d="M339.76,89.767H342.6l.093,1.885a3.232,3.232,0,0,1,3.191-2.071,3,3,0,0,1,3.228,3.3V99.1h-3.173V93.723c0-1.288-.541-1.717-1.325-1.717-.914,0-1.68.6-1.68,2.146V99.1H339.76Z" transform="translate(-316.979 -85.642)"/>
        <path id="Path_257703" data-name="Path 257703" d="M391.858,82.9h-2.781v3.751a1.087,1.087,0,0,0,1.232,1.25,2.192,2.192,0,0,0,1.362-.411l.336,1.959a4.961,4.961,0,0,1-2.631.709c-2.127,0-3.452-.821-3.471-2.986V82.9h-1.6V80.637h1.6v-2.09l3.172-.877v2.967h2.781V82.9Z" transform="translate(-351.129 -76.511)"/>
        <path id="Path_257704" data-name="Path 257704" d="M419.84,94.442a4.537,4.537,0,0,1,4.889-4.852,4.259,4.259,0,0,1,4.628,4.423,10.6,10.6,0,0,1-.075,1.232h-6.364a1.8,1.8,0,0,0,1.96,1.81,1.7,1.7,0,0,0,1.754-1.064l2.538.84c-.541,1.6-2.333,2.463-4.292,2.463C421.781,99.294,419.84,97.521,419.84,94.442Zm3.1-.9h3.415c-.131-1.12-.672-1.736-1.624-1.736S423.143,92.352,422.938,93.546Z" transform="translate(-378.378 -85.65)"/>
        <path id="Path_257705" data-name="Path 257705" d="M467.28,89.767h2.837l.093,1.885A3.232,3.232,0,0,1,473.4,89.58a3,3,0,0,1,3.229,3.3V99.1h-3.172V93.723c0-1.288-.541-1.717-1.325-1.717-.914,0-1.68.6-1.68,2.146V99.1H467.28Z" transform="translate(-414.752 -85.642)"/>
        <path id="Path_257706" data-name="Path 257706" d="M519.368,82.9h-2.781v3.751a1.087,1.087,0,0,0,1.232,1.25,2.192,2.192,0,0,0,1.362-.411l.336,1.959a4.962,4.962,0,0,1-2.631.709c-2.127,0-3.452-.821-3.471-2.986V82.9h-1.6V80.637h1.6v-2.09l3.172-.877v2.967h2.781V82.9Z" transform="translate(-448.894 -76.511)"/>
        <path id="Path_257707" data-name="Path 257707" d="M553.862,118.328a1.875,1.875,0,1,1-1.866-1.7A1.644,1.644,0,0,1,553.862,118.328Z" transform="translate(-478.275 -106.382)" fill="#3dcca8"/>
        <path id="Path_257708" data-name="Path 257708" d="M576.654,91.773a1.545,1.545,0,0,0-1.661,1.4l-2.687-.635c.336-1.792,1.829-2.949,4.535-2.949s4.311,1.232,4.311,3.546v3.415c0,.5.224.728.653.728a1.582,1.582,0,0,0,.541-.075l-.187,1.81a3.163,3.163,0,0,1-1.362.261,2.224,2.224,0,0,1-2.37-1.4,3.4,3.4,0,0,1-3.042,1.418c-1.922,0-3.135-.9-3.135-2.575,0-1.344.784-2.239,2.519-2.594L578,93.453v-.261a1.285,1.285,0,0,0-1.344-1.418Zm-.261,5.468a1.491,1.491,0,0,0,1.6-1.586v-.523l-1.512.317c-.747.149-1.1.411-1.1.97S575.833,97.241,576.393,97.241Z" transform="translate(-495.235 -85.65)"/>
        <path id="Path_257709" data-name="Path 257709" d="M618.82,74.23c0-1.064.56-1.53,1.848-1.53s1.847.467,1.847,1.53-.56,1.512-1.847,1.512S618.82,75.275,618.82,74.23Zm3.434,11.925h-3.172V76.824h3.172Z" transform="translate(-530.941 -72.7)"/>
      </g>
      <g id="Group_31479" data-name="Group 31479">
        <path id="Path_4548" d="M23.327,0A23.327,23.327,0,1,1,0,23.327,23.327,23.327,0,0,1,23.327,0Z" fill="#3dcca8"/>
        <g id="Group_31478" data-name="Group 31478" transform="translate(10.047 9.564)">
          <path id="Path_4549" d="M49.709,44.252V54.644a.4.4,0,0,1-.331.4c-1.327.266-6.308.931-6.308-3.319v-7.4a3.319,3.319,0,1,1,6.639,0" transform="translate(-43.07 -41)" fill="#fff"/>
          <path id="Path_4550" d="M92.409,72.722V83.149a.4.4,0,0,1-.331.366c-1.327.264-6.308.928-6.308-3.322v-7.4a3.319,3.319,0,1,1,6.639,0" transform="translate(-75.809 -62.829)" fill="#fff"/>
          <path id="Path_4551" d="M135.119,101.192v10.427a.4.4,0,0,1-.331.366c-1.327.264-6.308.928-6.308-3.322v-7.4a3.319,3.319,0,1,1,6.639,0" transform="translate(-108.556 -84.657)" fill="#fff"/>
        </g>
      </g>
    </g>
  </g>
</svg>
