<svg id="download_2_" data-name="download (2)" xmlns="http://www.w3.org/2000/svg" width="341.051" height="107.475" viewBox="0 0 341.051 107.475">
  <g id="Group_31477" data-name="Group 31477" transform="translate(130.099 39.067)">
    <path id="Path_257700" data-name="Path 257700" d="M249.494,90.186l10.146-12.6h8.211l-9.63,11.521,10.146,16.852h-8.383L252.933,93.8l-3.439,4.17v8H242.1V77.59h7.394Z" transform="translate(-242.1 -74.962)"/>
    <path id="Path_257701" data-name="Path 257701" d="M313.782,100.767c0,7.05-4.643,11.177-11.392,11.177s-11.349-4.127-11.349-11.177,4.643-11.177,11.349-11.177S313.782,93.717,313.782,100.767Zm-15.39,0c0,4.213,1.462,5.976,4,5.976s4.041-1.763,4.041-5.976-1.5-5.976-4.041-5.976S298.391,96.554,298.391,100.767Z" transform="translate(-264.741 -80.514)"/>
    <path id="Path_257702" data-name="Path 257702" d="M339.76,90.01h6.534l.215,4.342a7.446,7.446,0,0,1,7.351-4.772c4.428,0,7.437,2.622,7.437,7.609V111.5H353.99V99.124c0-2.966-1.247-3.955-3.052-3.955-2.107,0-3.869,1.376-3.869,4.944V111.5H339.76V90.01Z" transform="translate(-287.28 -80.509)"/>
    <path id="Path_257703" data-name="Path 257703" d="M401.711,89.707h-6.406v8.641c0,2.064,1.032,2.88,2.837,2.88a5.049,5.049,0,0,0,3.138-.946l.774,4.514a11.43,11.43,0,0,1-6.062,1.634c-4.9,0-7.953-1.892-8-6.878V89.707h-3.7v-5.2H388V79.691l7.308-2.021v6.835h6.406v5.2Z" transform="translate(-307.885 -74.999)"/>
    <path id="Path_257704" data-name="Path 257704" d="M419.84,100.767c0-7.093,4.6-11.177,11.263-11.177s10.662,4.256,10.662,10.189a24.425,24.425,0,0,1-.172,2.837h-14.66c.43,3.009,2.021,4.17,4.514,4.17a3.917,3.917,0,0,0,4.041-2.45l5.847,1.935c-1.247,3.7-5.374,5.675-9.888,5.675-7.136,0-11.607-4.084-11.607-11.177Zm7.136-2.064h7.867c-.3-2.579-1.548-4-3.74-4S427.449,95.953,426.976,98.7Z" transform="translate(-324.327 -80.514)"/>
    <path id="Path_257705" data-name="Path 257705" d="M467.28,90.01h6.534l.215,4.342a7.446,7.446,0,0,1,7.351-4.772c4.428,0,7.437,2.622,7.437,7.609V111.5H481.51V99.124c0-2.966-1.247-3.955-3.052-3.955-2.107,0-3.869,1.376-3.869,4.944V111.5H467.28V90.01Z" transform="translate(-346.274 -80.509)"/>
    <path id="Path_257706" data-name="Path 257706" d="M529.221,89.707h-6.406v8.641c0,2.064,1.032,2.88,2.837,2.88a5.05,5.05,0,0,0,3.138-.946l.774,4.514a11.43,11.43,0,0,1-6.062,1.634c-4.9,0-7.953-1.892-8-6.878V89.707h-3.7v-5.2h3.7V79.691l7.308-2.021v6.835h6.406v5.2Z" transform="translate(-366.874 -74.999)"/>
    <path id="Path_257707" data-name="Path 257707" d="M558.728,120.542c0,2.407-1.634,3.869-4.3,3.869s-4.3-1.462-4.3-3.869,1.634-3.912,4.3-3.912S558.728,118.092,558.728,120.542Z" transform="translate(-384.602 -93.023)" fill="#3dcca8"/>
    <path id="Path_257708" data-name="Path 257708" d="M582.4,94.62c-1.892,0-3.31.817-3.826,3.224l-6.191-1.462c.774-4.127,4.213-6.792,10.447-6.792s9.931,2.837,9.931,8.168v7.867c0,1.161.516,1.677,1.5,1.677a3.643,3.643,0,0,0,1.247-.172l-.43,4.17a7.285,7.285,0,0,1-3.138.6c-2.708,0-4.772-1.032-5.46-3.224-1.2,2.192-4.084,3.267-7.007,3.267-4.428,0-7.222-2.064-7.222-5.933,0-3.1,1.806-5.159,5.8-5.976l7.437-1.548v-.6a2.961,2.961,0,0,0-3.1-3.267Zm-.6,12.6a3.434,3.434,0,0,0,3.7-3.654v-1.2l-3.482.731c-1.72.344-2.536.946-2.536,2.235s1.032,1.892,2.322,1.892Z" transform="translate(-394.835 -80.514)"/>
    <path id="Path_257709" data-name="Path 257709" d="M618.82,76.225c0-2.45,1.29-3.525,4.256-3.525s4.256,1.075,4.256,3.525-1.29,3.482-4.256,3.482S618.82,78.633,618.82,76.225Zm7.91,27.471h-7.308V82.2h7.308Z" transform="translate(-416.38 -72.7)"/>
  </g>
  <g id="Group_31479" data-name="Group 31479">
    <path id="Path_4548" d="M53.738,0A53.738,53.738,0,1,1,0,53.738,53.737,53.737,0,0,1,53.738,0Z" fill="#3dcca8"/>
    <g id="Group_31478" data-name="Group 31478" transform="translate(23.145 22.032)">
      <path id="Path_4549" d="M58.364,48.491v23.94a.92.92,0,0,1-.763.919c-3.058.613-14.531,2.144-14.531-7.647V48.647a7.647,7.647,0,1,1,15.294,0" transform="translate(-43.07 -41)" fill="#fff"/>
      <path id="Path_4550" d="M101.064,76.961v24.021a.92.92,0,0,1-.763.844c-3.058.607-14.531,2.139-14.531-7.652V77.117a7.647,7.647,0,1,1,15.294,0" transform="translate(-62.824 -54.171)" fill="#fff"/>
      <path id="Path_4551" d="M143.774,105.431v24.021a.92.92,0,0,1-.763.844c-3.058.607-14.531,2.139-14.531-7.652V105.587a7.647,7.647,0,1,1,15.294,0" transform="translate(-82.583 -67.342)" fill="#fff"/>
    </g>
  </g>
</svg>
