<svg xmlns="http://www.w3.org/2000/svg" width="32" height="32" viewBox="0 0 32 32">
  <g id="Group_18470" data-name="Group 18470" transform="translate(-718 -6549)">
    <rect id="Rectangle_122" data-name="Rectangle 122" width="32" height="32" rx="5" transform="translate(718 6549)" fill="#e97777"/>
    <g id="Group_31654" data-name="Group 31654" transform="translate(724.498 6555.502)">
      <path id="Exclusion_6" data-name="Exclusion 6" d="M23873.5,4322.509a9.5,9.5,0,1,1,6.717-2.781A9.445,9.445,0,0,1,23873.5,4322.509Zm4.059-9.692a1.353,1.353,0,0,0-1.355,1.349v3.015c0,.656.3,1.438,1.738,1.438a4.161,4.161,0,0,0,.834-.084.16.16,0,0,0,.131-.149v-4.22A1.349,1.349,0,0,0,23877.561,4312.817Zm-4.059-2.709a1.356,1.356,0,0,0-1.354,1.354v3.015c0,.656.3,1.438,1.738,1.438a4.675,4.675,0,0,0,.828-.083.17.17,0,0,0,.137-.15v-4.22A1.353,1.353,0,0,0,23873.5,4310.108Zm-4.057-2.7a1.356,1.356,0,0,0-1.355,1.354v3.015c0,1.184.945,1.433,1.738,1.433a4.232,4.232,0,0,0,.834-.084.153.153,0,0,0,.131-.162v-4.2A1.352,1.352,0,0,0,23869.445,4307.4Z" transform="translate(-23864 -4303.511)" fill="#fff"/>
    </g>
  </g>
</svg>
