<svg xmlns="http://www.w3.org/2000/svg" width="32" height="32"><g data-name="Group 18470" transform="translate(-718 -6549)"><rect data-name="Rectangle 122" width="32" height="32" rx="5" transform="translate(718 6549)" fill="#e97777"/><g transform="translate(723 6554)" fill="#fff" data-name="Layer 2"><circle data-name="Ellipse 38" cx="1" cy="1" r="1" transform="translate(10 10)"/><circle data-name="Ellipse 39" cx="1" cy="1" r="1" transform="translate(14 10)"/><circle data-name="Ellipse 40" cx="1" cy="1" r="1" transform="translate(6 10)"/><path data-name="Path 224512" d="M17.387 4.514A9.118 9.118 0 0 0 2.544 14.545a.966.966 0 0 1 .082.584l-.8 3.855a.906.906 0 0 0 .912 1.094h.182l3.9-.784a1.149 1.149 0 0 1 .584.082A9.118 9.118 0 0 0 17.433 4.533Zm.757 7.622A7.294 7.294 0 0 1 8.115 17.68a2.972 2.972 0 0 0-1.14-.237 3.128 3.128 0 0 0-.511.046l-2.571.52.52-2.571a2.817 2.817 0 0 0-.191-1.65 7.3 7.3 0 1 1 13.922-1.65Z"/></g></g></svg>