<svg xmlns="http://www.w3.org/2000/svg" width="25" height="25" data-name="Component 27 – 7"><g data-name="Group 689"><g data-name="Group 688"><g fill="#fefefe" data-name="Group 687"><path d="M13.682 11.583c.222-.249.4-.5.632-.717a3.47 3.47 0 0 1 2.5-.985 5.779 5.779 0 0 1 1.57.191 3.068 3.068 0 0 1 2.178 2.291 9.6 9.6 0 0 1 .29 2.625c0 1.866-.005 3.731 0 5.6 0 .174-.048.22-.221.219q-1.441-.012-2.883 0c-.169 0-.206-.051-.205-.211q.008-2.663 0-5.326a4.79 4.79 0 0 0-.155-1.322 1.487 1.487 0 0 0-1.635-1.159 1.787 1.787 0 0 0-1.878 1.784 6.66 6.66 0 0 0-.051.833v5.179c0 .172-.042.223-.218.221q-1.452-.013-2.9 0c-.155 0-.2-.041-.2-.2q.007-5.127 0-10.254c0-.169.055-.208.215-.207q1.379.01 2.758 0c.169 0 .213.053.209.214-.012.407-.006.816-.006 1.224Z" data-name="Path 1343"/><path d="M8.417 15.49v5.073c0 .188-.046.245-.24.242-.961-.01-1.922-.008-2.882 0-.154 0-.2-.037-.2-.2q.007-5.136 0-10.271c0-.142.034-.192.185-.191.975.006 1.949.008 2.924 0 .187 0 .213.071.212.231q-.004 2.558.001 5.116Z" data-name="Path 1344"/><path d="M8.681 6.752a1.919 1.919 0 1 1-1.916-1.909 1.925 1.925 0 0 1 1.916 1.909Z" data-name="Path 1345"/></g></g></g></svg>