<svg xmlns="http://www.w3.org/2000/svg" width="31" height="31"><g fill="#e97777" data-name="Layer 2"><path d="M15.956 2.03A10.477 10.477 0 0 0 5.479 12.403c0 7.176 9.233 15.165 9.626 15.505a1.31 1.31 0 0 0 1.7 0c.458-.34 9.626-8.329 9.626-15.506A10.477 10.477 0 0 0 15.956 2.03Zm0 23.115c-2.187-2.082-7.858-7.858-7.858-12.742a7.858 7.858 0 1 1 15.715 0c.001 4.845-5.67 10.659-7.857 12.742Z" data-name="Path 1417"/><path d="M15.956 7.269a4.584 4.584 0 1 0 4.584 4.584 4.584 4.584 0 0 0-4.584-4.584Zm0 6.548a1.964 1.964 0 1 1 1.964-1.964 1.964 1.964 0 0 1-1.964 1.964Z" data-name="Path 1418"/></g></svg>