<svg xmlns="http://www.w3.org/2000/svg" width="179.578" height="51.611"><g fill="#fff" data-name="Group 18428"><g data-name="Group 18414"><path d="M42.445 37.624a5.052 5.052 0 0 1-8.766 3.424l-5.069-5.069 7.212-7.2 4.968 5.106.028.028a5.034 5.034 0 0 1 1.627 3.711Z" data-name="Path 224025"/><path d="M22.989 35.928 8.698 50.053l-.014.014a5.05 5.05 0 0 1-7.268-7.013q.123-.127.254-.245l13.862-14.333Z" data-name="Path 224026"/><path d="M51.713 5.051a5.007 5.007 0 0 1-1 3.018L49.67 9.11l-9.171 9.185-1.41 1.406-13.171 13.188-15.1-15.248-.254-.254h.005a5 5 0 0 1-1.406-3.484 5.049 5.049 0 0 1 8.535-3.655l.253.258.014.014 8.236 8.438v-.005L39.51 5.233l3.106-3.2h.005a5.051 5.051 0 0 1 9.093 3.027Z" data-name="Path 224475"/></g><path d="M57.75 26.816c0 6.615 4.283 11.013 9.636 11.013a8.355 8.355 0 0 0 7.036-3.441v3.1h5.392V16.3h-5.392v3.021a8.377 8.377 0 0 0-7-3.365c-5.389 0-9.672 4.245-9.672 10.86Zm16.672.076c0 4.015-2.677 6.233-5.621 6.233-2.868 0-5.583-2.294-5.583-6.309s2.715-6.156 5.583-6.156c2.944 0 5.621 2.217 5.621 6.232Zm9.254-.076c0 6.615 4.283 11.013 9.674 11.013a8.006 8.006 0 0 0 6.959-3.48v3.136h5.43v-28.3h-5.43v10.057a8.693 8.693 0 0 0-6.921-3.288c-5.43.002-9.712 4.247-9.712 10.862Zm16.672.076c0 4.015-2.677 6.233-5.621 6.233-2.868 0-5.583-2.294-5.583-6.309s2.715-6.156 5.583-6.156c2.944 0 5.621 2.217 5.621 6.232Zm9.254-.076c0 6.615 4.283 11.013 9.674 11.013a8.006 8.006 0 0 0 6.959-3.48v3.136h5.43v-28.3h-5.43v10.057a8.693 8.693 0 0 0-6.921-3.288c-5.43.002-9.713 4.247-9.713 10.862Zm16.672.076c0 4.015-2.677 6.233-5.621 6.233-2.868 0-5.583-2.294-5.583-6.309s2.715-6.156 5.583-6.156c2.941 0 5.62 2.217 5.62 6.232Zm22.33 10.592h6.042l-7.036-10.63 6.959-10.554h-5.735l-3.9 6.539-4.321-6.539h-6.042l7 10.554-6.921 10.63h5.736l3.862-6.577Zm14.3-18.125V16.3h-5.353v31.279h5.353V34.468a8.648 8.648 0 0 0 7 3.365c5.43 0 9.674-4.4 9.674-11.013s-4.244-10.86-9.674-10.86a8.463 8.463 0 0 0-6.999 3.399Zm11.2 7.456c0 4.015-2.715 6.309-5.621 6.309-2.868 0-5.583-2.218-5.583-6.233s2.715-6.233 5.583-6.233c2.911.002 5.626 2.143 5.626 6.158Z" data-name="Path 224472"/></g></svg>