<svg xmlns="http://www.w3.org/2000/svg" width="32" height="32"><g data-name="Group 18470" transform="translate(-718 -6549)"><rect width="32" height="32" fill="#e97777" data-name="Rectangle 122" rx="5" transform="translate(718 6549)"/><g data-name="Layer 2"><path fill="#fff" d="m739.705 6572.791-2-7.929a5.292 5.292 0 0 0 1.134-3.3 5.195 5.195 0 1 0-10.388 0 5.291 5.291 0 0 0 1.16 3.321l-2.021 7.908a.89.89 0 0 0 .319.926.853.853 0 0 0 .963.052l4.614-2.758 4.917 2.766a.777.777 0 0 0 .441.115.86.86 0 0 0 .7-.33.893.893 0 0 0 .161-.771Zm-6.06-14.757a3.525 3.525 0 1 1-3.462 3.524 3.494 3.494 0 0 1 3.463-3.524Zm.268 11.2a.853.853 0 0 0-.866 0l-3.245 1.938 1.247-5.022a5.064 5.064 0 0 0 5.125 0l1.324 5.1Z" data-name="Path 224516"/></g></g></svg>