<svg data-name="Component 60 – 10" xmlns="http://www.w3.org/2000/svg" width="25" height="25"><path data-name="Path 1400" d="M12.887 18.017c-2.774 0-5.927-3.342-5.675-6.116.252-2.648 3.783-5.107 6.4-4.729 2.3.315 4.351 3.216 4.225 5.517-.126 2.427-2.522 5.328-4.95 5.328Z" fill="#23272a"/><path data-name="Path 1401" d="M14.874 19.435c-.189-.063-.473-.126-.631-.189-.189-.094-.41-.094-1.1-.063a7.1 7.1 0 0 1-1.482-.063 6.661 6.661 0 0 1-5.265-4.792 6 6 0 0 1-.158-1.86 4.518 4.518 0 0 0-.189-1.829 3.806 3.806 0 0 1 3.594-5.107 4.007 4.007 0 0 1 1.578.347c.252.126.41.158 1.387.158a5.445 5.445 0 0 1 1.671.158 6.659 6.659 0 0 1 4.442 3.593 6.371 6.371 0 0 1 .6 3.531 1.875 1.875 0 0 0 .095 1.167 3.864 3.864 0 0 1-1.2 4.193 5.1 5.1 0 0 1-1.608.788 4.421 4.421 0 0 1-1.7-.032h-.031Zm-.853-2.423a3.284 3.284 0 0 0 2.3-1.608 2.425 2.425 0 0 0-.284-2.649c-.5-.567-1.261-.883-3.058-1.324-1.2-.284-1.482-.41-1.734-.694a.506.506 0 0 1-.063-.725 1.559 1.559 0 0 1 1.293-.536 1.7 1.7 0 0 1 1.86 1.009c.41.631.82.788 1.356.536.693-.347.63-1.482-.127-2.144a4.024 4.024 0 0 0-2.837-.851 3.979 3.979 0 0 0-2.964.914 1.761 1.761 0 0 0-.6 1.576 1.594 1.594 0 0 0 .63 1.545c.567.536 1.04.725 2.743 1.135 1.2.284 1.514.441 1.8.757a.769.769 0 0 1 .189.567.67.67 0 0 1-.284.631 2.141 2.141 0 0 1-1.671.5 1.723 1.723 0 0 1-1.671-1.2c-.315-.6-.567-.82-.977-.82-.914 0-1.23.757-.757 1.734a3.129 3.129 0 0 0 2.27 1.639 9.09 9.09 0 0 0 2.617 0h-.031Z" fill="#fff"/></svg>