<svg data-name="Component 60 – 1" xmlns="http://www.w3.org/2000/svg" width="25" height="25"><path data-name="Path 1400" d="M12.825 17.808c-2.526 0-5.4-3.053-5.167-5.588.23-2.419 3.445-4.666 5.827-4.32 2.1.288 3.962 2.938 3.846 5.04-.114 2.217-2.3 4.867-4.507 4.867Z" fill="#23272a"/><path data-name="Path 1401" d="M14.902 19.431c-.189-.063-.473-.126-.631-.189-.189-.094-.41-.094-1.1-.063a7.1 7.1 0 0 1-1.481-.063 6.66 6.66 0 0 1-5.264-4.791 6 6 0 0 1-.158-1.86 4.517 4.517 0 0 0-.189-1.828 3.805 3.805 0 0 1 3.594-5.106 4.007 4.007 0 0 1 1.576.347c.252.126.41.158 1.387.158a5.444 5.444 0 0 1 1.671.158 6.658 6.658 0 0 1 4.443 3.591 6.37 6.37 0 0 1 .6 3.53 1.874 1.874 0 0 0 .095 1.166 3.863 3.863 0 0 1-1.2 4.192 5.1 5.1 0 0 1-1.608.788 4.42 4.42 0 0 1-1.7-.032h-.031Zm-.852-2.427a3.283 3.283 0 0 0 2.3-1.607 2.425 2.425 0 0 0-.284-2.648c-.5-.567-1.261-.882-3.058-1.324-1.2-.284-1.482-.41-1.734-.694a.506.506 0 0 1-.063-.725 1.559 1.559 0 0 1 1.292-.536 1.7 1.7 0 0 1 1.86 1.009c.41.631.819.788 1.356.536.693-.347.63-1.481-.126-2.143a4.024 4.024 0 0 0-2.837-.851 3.978 3.978 0 0 0-2.963.914 1.761 1.761 0 0 0-.6 1.576 1.594 1.594 0 0 0 .63 1.545c.567.536 1.04.725 2.742 1.135 1.2.284 1.513.441 1.8.757a.769.769 0 0 1 .189.567.67.67 0 0 1-.284.631 2.141 2.141 0 0 1-1.671.5 1.723 1.723 0 0 1-1.671-1.2c-.315-.6-.567-.819-.977-.819-.914 0-1.229.757-.757 1.733a3.128 3.128 0 0 0 2.27 1.639 9.089 9.089 0 0 0 2.617 0h-.031Z" fill="#00aff0"/></svg>