<svg xmlns="http://www.w3.org/2000/svg" width="321.301" height="82.702"><g data-name="Group 18424" fill="#8e75ff" fill-rule="evenodd"><path data-name="Path 224476" d="M69.308 12.806H22.637v23.4h22.965a1.482 1.482 0 0 1 1.482 1.482v22.647H70.79V14.291a1.482 1.482 0 0 0-1.482-1.485Z"/><path data-name="Path 224477" d="M22.635 12.806v23.4H.741a.742.742 0 0 1-.52-1.271l22.414-22.129Zm25.711 69.683a.742.742 0 0 1-1.262-.528V60.335H70.79L48.346 82.487Z" opacity=".405"/><path data-name="Path 224478" d="M22.635 36.206h23.709a.741.741 0 0 1 .74.74v23.389H24.115a1.482 1.482 0 0 1-1.482-1.482V36.206Z" opacity=".405"/></g><path data-name="Path 224479" d="M309.845 11.33a6.445 6.445 0 0 0 4.692 1.964 6.547 6.547 0 0 0 4.779-1.964 6.31 6.31 0 0 0 1.986-4.641 6.447 6.447 0 0 0-1.986-4.681A6.483 6.483 0 0 0 314.537 0a6.391 6.391 0 0 0-4.692 2 6.454 6.454 0 0 0-1.986 4.687 6.308 6.308 0 0 0 1.986 4.643Zm-143.739 17.1a.253.253 0 0 1-.252.249h-9.305V46.07a4.115 4.115 0 0 0 1.1 3.178 5.078 5.078 0 0 0 3.213 1.127 44.978 44.978 0 0 0 4.716-.014l.263-.014a.249.249 0 0 1 .263.249v9.295a.249.249 0 0 1-.222.249l-.171.019q-10.931 1.15-15.46-2.135-4.608-3.344-4.605-11.955V28.678h-7.108a.249.249 0 0 1-.249-.249V18.56a.25.25 0 0 1 .249-.249h7.106v-6.9a.505.505 0 0 1 .3-.461L156.2 6.488a.249.249 0 0 1 .352.228v11.595h9.3a.25.25 0 0 1 .249.249v9.869Zm19.776-2.93a11.292 11.292 0 0 1 5.028-6.022 15.306 15.306 0 0 1 7.569-2 .251.251 0 0 1 .252.252v11.335a.406.406 0 0 1-.447.4 12.871 12.871 0 0 0-8.474 2.053q-3.929 2.588-3.928 8.612v19.737a.249.249 0 0 1-.252.249h-10.408a.249.249 0 0 1-.249-.249v-41.31a.25.25 0 0 1 .249-.249h10.408a.25.25 0 0 1 .249.249V25.505Zm51.568-7.192a.249.249 0 0 0-.252.249v4.687q-4.9-6.107-13.781-6.106a19.249 19.249 0 0 0-14.5 6.4 21.964 21.964 0 0 0-6.046 15.675 21.964 21.964 0 0 0 6.046 15.677 19.249 19.249 0 0 0 14.5 6.4q8.879 0 13.781-6.1v4.684a.253.253 0 0 0 .252.249h10.405a.251.251 0 0 0 .252-.249V18.557a.249.249 0 0 0-.252-.249H237.45Zm-20.372 29.43a11.753 11.753 0 0 0 20.12-8.528 11.714 11.714 0 1 0-23.419 0 11.633 11.633 0 0 0 3.3 8.528Zm79.509-24.2a19.348 19.348 0 0 0-14.585-6.4q-8.879 0-13.7 6.1V18.56a.249.249 0 0 0-.249-.249h-10.404a.249.249 0 0 0-.249.249v58.027a.251.251 0 0 0 .249.252h10.408a.253.253 0 0 0 .249-.252v-21.4q4.819 6.1 13.7 6.1a19.348 19.348 0 0 0 14.585-6.4 21.973 21.973 0 0 0 6.044-15.677 21.973 21.973 0 0 0-6.047-15.674Zm-24.985 24.2a11.756 11.756 0 0 0 20.122-8.528 11.714 11.714 0 1 0-23.419 0 11.642 11.642 0 0 0 3.3 8.528Zm37.774 12.375a.249.249 0 0 1-.249-.249V18.557a.25.25 0 0 1 .249-.249h10.408a.249.249 0 0 1 .249.249v41.312a.249.249 0 0 1-.249.249h-10.407ZM114.912 32.9q-2.243-1.044-2.24-2.717a2.855 2.855 0 0 1 1.4-2.509 6.252 6.252 0 0 1 3.508-.921 6.872 6.872 0 0 1 6.122 3.126.36.36 0 0 0 .442.135l9.205-4.028a.249.249 0 0 0 .114-.352q-.159-.265-.325-.526a16.434 16.434 0 0 0-6.174-5.67 19.31 19.31 0 0 0-9.384-2.3 18.2 18.2 0 0 0-11.459 3.554 11.631 11.631 0 0 0-4.605 9.739 10.362 10.362 0 0 0 2.24 6.816 13.185 13.185 0 0 0 5.453 3.971 57.212 57.212 0 0 0 6.426 2.089 32.338 32.338 0 0 1 5.453 1.883q2.239 1.044 2.24 2.717 0 3.6-5.832 3.595-5.555 0-7.7-4.058a.5.5 0 0 0-.645-.236l-9.18 4.025a.249.249 0 0 0-.125.336l.1.209q4.811 9.509 17.541 9.509a20.367 20.367 0 0 0 12.131-3.468 11.445 11.445 0 0 0 4.863-9.909 11.136 11.136 0 0 0-2.24-7.108 12.461 12.461 0 0 0-5.453-4.053 56.864 56.864 0 0 0-6.426-2.007 29.983 29.983 0 0 1-5.453-1.842Z" fill="#2f2e8b" fill-rule="evenodd"/></svg>