<svg xmlns="http://www.w3.org/2000/svg" width="32" height="32"><g data-name="Group 18470" transform="translate(-718 -6549)"><rect width="32" height="32" fill="#e97777" data-name="Rectangle 122" rx="5" transform="translate(718 6549)"/><g fill="#fff" data-name="Group 30911"><path fill-rule="evenodd" d="M741.356 6557.457h-12.692v6.338h6.352a.185.185 0 0 1 .185.185v6.352h6.34v-12.689a.185.185 0 0 0-.185-.186Z" data-name="Path 224494"/><path fill-rule="evenodd" d="M728.666 6557.457v6.338h-6.116a.093.093 0 0 1-.066-.158Z" data-name="Path 224495" opacity=".42"/><path fill-rule="evenodd" d="M735.361 6576.515a.093.093 0 0 1-.158-.066v-6.115h6.34Z" data-name="Path 224496" opacity=".42"/><path d="M728.668 6563.796h6.445a.093.093 0 0 1 .093.093v6.442h-6.352a.185.185 0 0 1-.185-.185Z" data-name="Path 224497" opacity=".42"/></g></g></svg>