<svg xmlns="http://www.w3.org/2000/svg" width="172.779" height="62.92"><path data-name="Path 241867" d="M29.66 34.88c0-15.24-22.08-9.36-22.08-18.78 0-4.02 3.06-5.94 7.02-5.82 4.32.12 6.78 2.7 7.02 5.52h7.56c-.6-7.14-6.24-11.34-14.22-11.34C6.44 4.46.62 9.02.62 16.34c0 15.36 22.14 8.82 22.14 18.9 0 3.54-2.7 6.12-7.5 6.12-4.74 0-7.14-2.76-7.44-6.18H.5c0 7.38 6.42 11.94 14.76 11.94 9.3 0 14.4-6 14.4-12.24Zm9.18 2.64c0 6.72 3.66 9.18 9.54 9.18h5.4V41h-4.2c-2.88 0-3.84-1.02-3.84-3.48v-18.3h8.04v-5.58h-8.04V5.42h-6.9v8.22h-3.9v5.58h3.9Zm28.08-8.22c0-7.02 3.12-9.12 8.16-9.12h1.74V13.1c-4.68 0-7.98 2.04-9.9 5.34v-4.8h-6.84V46.7h6.84Zm13.92.72c0 10.2 6.9 17.22 15.48 17.22a14.23 14.23 0 0 0 11.58-5.46v4.92h6.9V13.64h-6.9v4.8a14.072 14.072 0 0 0-11.46-5.34c-8.7 0-15.6 6.72-15.6 16.92Zm27.06.12c0 7.14-4.86 11.16-10.02 11.16-5.1 0-10.02-4.14-10.02-11.28s4.92-10.98 10.02-10.98c5.16 0 10.02 4.02 10.02 11.1Zm22.74-11.64v-4.86h-6.84v48.78h6.84V41.9a14.947 14.947 0 0 0 11.52 5.34c8.7 0 15.54-7.02 15.54-17.22s-6.84-16.92-15.54-16.92a14.425 14.425 0 0 0-11.52 5.4Zm20.1 11.52c0 7.14-4.92 11.28-10.08 11.28-5.1 0-10.02-4.02-10.02-11.16 0-7.08 4.92-11.1 10.02-11.1 5.16 0 10.08 3.84 10.08 10.98Zm13.74 16.68h6.84V13.64h-6.84Zm3.48-37.44a4.316 4.316 0 0 0 4.32-4.38A4.316 4.316 0 0 0 167.96.5a4.329 4.329 0 0 0-4.38 4.38 4.329 4.329 0 0 0 4.38 4.38Z" fill="#e97777" stroke="rgba(0,0,0,0)"/></svg>