<svg xmlns="http://www.w3.org/2000/svg" width="25" height="25" data-name="Component 26 – 1"><g data-name="Group 30937"><g data-name="Group 684"><g data-name="Group 683"><path fill="#5a99ec" d="M9.257 19.446a10.134 10.134 0 0 0 10.2-10.2c0-.155 0-.31-.01-.464a7.3 7.3 0 0 0 1.797-1.863 7.152 7.152 0 0 1-2.06.565A3.6 3.6 0 0 0 20.761 5.5a7.191 7.191 0 0 1-2.277.871 3.589 3.589 0 0 0-6.111 3.271 10.181 10.181 0 0 1-7.392-3.747 3.589 3.589 0 0 0 1.11 4.788 3.561 3.561 0 0 1-1.624-.449v.046a3.588 3.588 0 0 0 2.877 3.516 3.582 3.582 0 0 1-1.619.061 3.59 3.59 0 0 0 3.35 2.491 7.2 7.2 0 0 1-4.454 1.535 7.276 7.276 0 0 1-.856-.05 10.152 10.152 0 0 0 5.5 1.611" data-name="Path 1341"/></g></g></g></svg>