<svg xmlns="http://www.w3.org/2000/svg" width="32" height="32"><g data-name="Group 18470" transform="translate(-718 -6549)" fill="#e97777"><rect data-name="Rectangle 122" width="32" height="32" rx="5" transform="translate(718 6549)" opacity=".2"/><path data-name="Path 257689" d="M723.798 6565.332a9.848 9.848 0 1 1 9.848 9.86 9.847 9.847 0 0 1-9.848-9.86Zm9.648 3.372a9.654 9.654 0 0 1-2.276-.2 1.74 1.74 0 0 1-1.243-1 6.218 6.218 0 0 1-.323-2.376 15.147 15.147 0 0 1 .1-1.673q.1-.811.192-1.337l.067-.349a.178.178 0 0 0 0-.031.2.2 0 0 0-.165-.2l-1.27-.2h-.027a.2.2 0 0 0-.194.154 21.757 21.757 0 0 0-.286 1.607 16.526 16.526 0 0 0-.143 1.742 8.9 8.9 0 0 0 0 1.219 5.916 5.916 0 0 0 .555 2.583 2.938 2.938 0 0 0 1.728 1.39 10.574 10.574 0 0 0 3.393.416h.183a10.561 10.561 0 0 0 3.393-.416 2.954 2.954 0 0 0 1.728-1.39 5.92 5.92 0 0 0 .555-2.583 9.054 9.054 0 0 0 0-1.219 16.559 16.559 0 0 0-.143-1.742 25.267 25.267 0 0 0-.214-1.271c-.04-.194-.051-.254-.073-.336a.2.2 0 0 0-.194-.154h-.033l-1.27.2a.2.2 0 0 0-.167.2.206.206 0 0 0 0 .031l.067.349q.1.528.194 1.337a15.335 15.335 0 0 1 .1 1.673 6.079 6.079 0 0 1-.323 2.374 1.74 1.74 0 0 1-1.237 1 9.643 9.643 0 0 1-2.274.205Z"/></g></svg>