<svg xmlns="http://www.w3.org/2000/svg" width="224.996" height="266.528"><g fill="#3544b1"><path data-name="Path 257680" d="M10.109 103.376a103.631 103.631 0 1 1 0 .017ZM111.52 138.82a101.475 101.475 0 0 1-23.92-2.144 18.29 18.29 0 0 1-13.068-10.508q-3.511-8.1-3.4-24.973a159.152 159.152 0 0 1 1.1-17.59q1.01-8.529 2.021-14.057l.709-3.664a2.049 2.049 0 0 0 0-.323 2.123 2.123 0 0 0-1.736-2.08l-13.352-2.08h-.289a2.123 2.123 0 0 0-2.036 1.619c-.229.849-.361 1.49-.76 3.528-.764 3.931-1.469 7.765-2.254 13.357a173.865 173.865 0 0 0-1.5 18.311 93.574 93.574 0 0 0 0 12.818q.471 16.982 5.833 27.146t18.163 14.613q12.8 4.462 35.663 4.369h1.919q22.888.093 35.663-4.369t18.163-14.613q5.362-10.164 5.838-27.146a94.974 94.974 0 0 0 0-12.818 173.838 173.838 0 0 0-1.507-18.311c-.781-5.519-1.49-9.34-2.25-13.357-.425-2.038-.535-2.671-.764-3.528a2.1 2.1 0 0 0-2.042-1.622h-.344l-13.352 2.08a2.1 2.1 0 0 0-1.753 2.08 2.035 2.035 0 0 0 0 .323l.7 3.664q1.01 5.545 2.042 14.057a161.259 161.259 0 0 1 1.087 17.59q.17 16.847-3.4 24.951a18.286 18.286 0 0 1-13 10.529 101.341 101.341 0 0 1-23.9 2.157Z"/><path data-name="Path 257681" d="M199.175 251.268c0-8.95 2.547-15.229 12.911-15.229s12.909 6.279 12.909 15.229-2.547 15.225-12.9 15.225-12.92-6.271-12.92-15.225Zm19.237 0c0-6.224-.807-9.765-6.326-9.765s-6.343 3.549-6.343 9.765.819 9.765 6.343 9.765 6.326-3.562 6.326-9.765Z"/><path data-name="Path 257682" d="M20.358 265.351a.849.849 0 0 0 .747.424h2.416a.849.849 0 0 0 .849-.849v-27.329a.849.849 0 0 0-.849-.849h-4.81a.849.849 0 0 0-.849.849v21.691a13.162 13.162 0 0 1-6.734 1.7c-3.078 0-4.585-1.338-4.585-4.3v-19.091a.849.849 0 0 0-.849-.849H.85a.849.849 0 0 0-.849.849v19.653c0 5.579 2.615 9.234 9.994 9.234a16.724 16.724 0 0 0 9.417-3.019l.849 1.923Z"/><path data-name="Path 257683" d="M74.592 245.274c0-5.519-2.73-9.243-9.621-9.243a16.6 16.6 0 0 0-9.3 2.883c-1.219-1.8-3.549-2.883-7.443-2.883a15.092 15.092 0 0 0-8.763 3.019l-.849-1.923a.849.849 0 0 0-.751-.425h-2.433a.849.849 0 0 0-.849.849v27.342a.849.849 0 0 0 .849.849h4.81a.849.849 0 0 0 .849-.849V243.24a11.726 11.726 0 0 1 6.1-1.7c2.62 0 4.127.964 4.127 3.723v19.67a.849.849 0 0 0 .849.849h4.81a.849.849 0 0 0 .849-.849v-21.7a11.333 11.333 0 0 1 6.109-1.7c2.547 0 4.127.964 4.127 3.723v19.653a.849.849 0 0 0 .849.849h4.81a.849.849 0 0 0 .849-.849Z"/><path data-name="Path 257684" d="M89.463 263.474a15.365 15.365 0 0 0 9.438 3.019c8.491 0 11.62-5.693 11.62-15.225s-3.158-15.245-11.62-15.245a14.719 14.719 0 0 0-7.791 2.271v-8.776a.849.849 0 0 0-.849-.875h-4.848a.849.849 0 0 0-.849.849v35.443a.849.849 0 0 0 .849.849h2.416a.849.849 0 0 0 .747-.425Zm7.9-2.5a12.408 12.408 0 0 1-6.271-1.7v-16.035a12.411 12.411 0 0 1 6.271-1.7c5.693 0 6.572 4.36 6.572 9.71s-.849 9.706-6.564 9.706Z"/><path data-name="Path 257685" d="M134.565 241.75a16.055 16.055 0 0 0-2.259-.144 14.229 14.229 0 0 0-7.447 1.741v21.576a.849.849 0 0 1-.849.849h-4.814a.849.849 0 0 1-.849-.849v-27.326a.849.849 0 0 1 .849-.849h2.416a.849.849 0 0 1 .752.425l.849 1.923a14.758 14.758 0 0 1 9.188-3.019 13.663 13.663 0 0 1 2.283.192c.424 0 .79.722.79 1.184v3.481a.849.849 0 0 1-.849.849h-.068"/><path data-name="Path 257686" d="M151.242 252.372c-2.887.348-4.6 1.444-4.6 4.475 0 2.212.96 4.3 4.471 4.3a10.7 10.7 0 0 0 6.224-1.927v-7.519Zm7.693 11.1a14.1 14.1 0 0 1-8.771 3.019c-7.5 0-9.994-4.645-9.994-9.3 0-6.279 4.067-8.954 10.64-9.472l6.513-.522v-1.452c0-2.972-1.4-4.127-5.7-4.127a24.37 24.37 0 0 0-7.932 1.328.949.949 0 0 1-.27 0 .849.849 0 0 1-.849-.849v-3.847a.849.849 0 0 1 .556-.819 27.791 27.791 0 0 1 8.975-1.452c9.531 0 11.735 4.182 11.735 10.351v18.55a.849.849 0 0 1-.849.849h-2.412a.848.848 0 0 1-.751-.425Z"/><path data-name="Path 257687" d="M192.054 259.798a.894.894 0 0 1 .259 0 .849.849 0 0 1 .849.849v3.855a.849.849 0 0 1-.526.8 20.905 20.905 0 0 1-7.485 1.223c-10.291 0-13.467-6.165-13.467-15.229s3.146-15.227 13.47-15.227a20.69 20.69 0 0 1 7.434 1.172.849.849 0 0 1 .539.807v3.851a.849.849 0 0 1-.849.849 1.51 1.51 0 0 1-.276 0 19.962 19.962 0 0 0-6.487-.917c-5.638 0-7.273 3.847-7.273 9.476s1.635 9.472 7.273 9.472a19.871 19.871 0 0 0 6.483-.959"/></g></svg>