<svg xmlns="http://www.w3.org/2000/svg" width="184" height="47"><defs><clipPath id="a"><path data-name="Rectangle 185" transform="translate(625 136.5)" fill="#fff" stroke="#707070" d="M0 0h184v47H0z"/></clipPath></defs><g data-name="Mask Group 6" transform="translate(-625 -136.5)" clip-path="url(#a)"><path data-name="Path 257680" d="M625 159.961a23.5 23.5 0 1 1 23.5 23.528 23.5 23.5 0 0 1-23.5-23.528Zm23.022 8.046a23.034 23.034 0 0 1-5.43-.487 4.152 4.152 0 0 1-2.967-2.385 14.837 14.837 0 0 1-.771-5.669 36.136 36.136 0 0 1 .251-3.993q.229-1.936.459-3.191l.161-.832a.432.432 0 0 0 0-.073.482.482 0 0 0-.394-.472l-3.031-.472h-.065a.482.482 0 0 0-.464.368c-.052.193-.082.338-.173.8a55.149 55.149 0 0 0-.512 3.032 39.448 39.448 0 0 0-.341 4.157 21.235 21.235 0 0 0 0 2.91 14.116 14.116 0 0 0 1.324 6.163 7.011 7.011 0 0 0 4.123 3.317 25.234 25.234 0 0 0 8.1.992h.436a25.2 25.2 0 0 0 8.1-.992 7.049 7.049 0 0 0 4.123-3.317 14.126 14.126 0 0 0 1.325-6.163 21.586 21.586 0 0 0 0-2.91 39.482 39.482 0 0 0-.342-4.157 59.374 59.374 0 0 0-.511-3.032c-.1-.463-.122-.606-.174-.8a.476.476 0 0 0-.464-.368h-.078l-3.031.472a.476.476 0 0 0-.4.472.459.459 0 0 0 0 .073l.16.832q.229 1.259.464 3.191a36.61 36.61 0 0 1 .247 3.993 14.5 14.5 0 0 1-.771 5.664 4.151 4.151 0 0 1-2.951 2.39 23.006 23.006 0 0 1-5.426.49Z" fill="#3544b1"/></g></svg>