<svg xmlns="http://www.w3.org/2000/svg" width="276.701" height="45.94"><path data-name="Path 257691" d="M.501 29.66c0 10.62 7.44 15.66 16.2 15.66 8.7 0 16.38-5.04 16.38-15.66V3.2h-6.84v26.58c0 6.48-3.66 9.54-9.48 9.54-5.76 0-9.42-3.06-9.42-9.54V3.2H.501Zm88.32 15.24h6.78V25.4c0-9.24-5.88-14.1-13.62-14.1-4.8 0-9.48 2.52-11.52 6.54-2.28-4.32-6.66-6.54-11.88-6.54a12.591 12.591 0 0 0-9.78 4.32v-3.78h-6.84V44.9h6.84V26.42c0-6.06 3.3-9.18 8.34-9.18 4.98 0 8.28 3.12 8.28 9.18V44.9h6.78V26.42c0-6.06 3.3-9.18 8.34-9.18 4.98 0 8.28 3.12 8.28 9.18Zm22.32-28.14V.5h-6.84v44.4h6.84v-4.8a14.05 14.05 0 0 0 11.52 5.34c8.7 0 15.54-7.02 15.54-17.22s-6.78-16.92-15.54-16.92a14.134 14.134 0 0 0-11.52 5.46Zm20.1 11.46c0 7.14-4.92 11.28-10.08 11.28-5.1 0-10.02-4.02-10.02-11.16 0-7.08 4.92-11.1 10.02-11.1 5.16 0 10.08 3.84 10.08 10.98Zm20.58-.72c0-7.02 3.12-9.12 8.16-9.12h1.74V11.3c-4.68 0-7.98 2.04-9.9 5.34v-4.8h-6.84V44.9h6.84Zm13.92.72c0 10.2 6.9 17.22 15.48 17.22a14.23 14.23 0 0 0 11.58-5.46v4.92h6.9V11.84h-6.9v4.8a14.072 14.072 0 0 0-11.46-5.34c-8.7 0-15.6 6.72-15.6 16.92Zm27.06.12c0 7.14-4.86 11.16-10.02 11.16-5.1 0-10.02-4.14-10.02-11.28s4.92-10.98 10.02-10.98c5.16 0 10.02 4.02 10.02 11.1Zm13.62 0c0 10.38 6.72 17.1 16.2 17.1 8.1 0 13.38-4.5 15.24-10.98h-7.38c-1.26 3.42-3.78 5.22-7.86 5.22-5.52 0-9.18-4.08-9.18-11.34 0-7.2 3.66-11.28 9.18-11.28 4.08 0 6.72 2.04 7.86 5.22h7.38c-1.86-6.96-7.14-10.98-15.24-10.98-9.48 0-16.2 6.72-16.2 17.04Zm69.78 0c0-10.38-7.44-17.04-16.86-17.04s-16.86 6.66-16.86 17.04 7.14 17.1 16.56 17.1c9.48 0 17.16-6.72 17.16-17.1Zm-26.76 0c0-7.5 4.62-11.1 9.78-11.1 5.1 0 9.96 3.6 9.96 11.1s-5.04 11.16-10.14 11.16c-5.16 0-9.6-3.66-9.6-11.16Z" fill="#e97777" stroke="rgba(0,0,0,0)"/></svg>