<svg xmlns="http://www.w3.org/2000/svg" width="497.002" height="47.74"><path data-name="Path 241869" d="M20.402 39.68 8.042 5H.722l15.72 41.7h7.92L40.022 5h-7.2Zm25.32 7.02h6.84V13.64h-6.84Zm3.48-37.44a4.316 4.316 0 0 0 4.32-4.38A4.316 4.316 0 0 0 49.202.5a4.329 4.329 0 0 0-4.38 4.38 4.329 4.329 0 0 0 4.38 4.38Zm19.2 20.04c0-7.02 3.12-9.12 8.16-9.12h1.74V13.1c-4.68 0-7.98 2.04-9.9 5.34v-4.8h-6.84V46.7h6.84Zm17.28 8.22c0 6.72 3.66 9.18 9.54 9.18h5.4V41h-4.2c-2.88 0-3.84-1.02-3.84-3.48v-18.3h8.04v-5.58h-8.04V5.42h-6.9v8.22h-3.9v5.58h3.9Zm52.74-7.38c0-10.38-7.44-17.04-16.86-17.04s-16.86 6.66-16.86 17.04 7.14 17.1 16.56 17.1c9.48 0 17.16-6.72 17.16-17.1Zm-26.76 0c0-7.5 4.62-11.1 9.78-11.1 5.1 0 9.96 3.6 9.96 11.1s-5.04 11.16-10.14 11.16c-5.16 0-9.6-3.66-9.6-11.16Zm46.86-4.38c0 12.54 9.54 21.3 21.3 21.3 8.7 0 16.2-4.32 19.38-12.48h-8.22c-2.22 4.44-6.18 6.54-11.16 6.54-8.28 0-14.28-5.94-14.28-15.36s6-15.3 14.28-15.3c4.98 0 8.94 2.1 11.16 6.54h8.22c-3.18-8.16-10.68-12.54-19.38-12.54-11.76 0-21.3 8.82-21.3 21.3Zm80.16 4.38c0-10.38-7.44-17.04-16.86-17.04s-16.86 6.66-16.86 17.04 7.14 17.1 16.56 17.1c9.48 0 17.16-6.72 17.16-17.1Zm-26.76 0c0-7.5 4.62-11.1 9.78-11.1 5.1 0 9.96 3.6 9.96 11.1s-5.04 11.16-10.14 11.16c-5.16 0-9.6-3.66-9.6-11.16Zm80.4 16.56h6.78V27.2c0-9.24-5.88-14.1-13.62-14.1-4.8 0-9.48 2.52-11.52 6.54-2.28-4.32-6.66-6.54-11.88-6.54a12.591 12.591 0 0 0-9.78 4.32v-3.78h-6.84V46.7h6.84V28.22c0-6.06 3.3-9.18 8.34-9.18 4.98 0 8.28 3.12 8.28 9.18V46.7h6.78V28.22c0-6.06 3.3-9.18 8.34-9.18 4.98 0 8.28 3.12 8.28 9.18Zm62.34 0h6.78V27.2c0-9.24-5.88-14.1-13.62-14.1-4.8 0-9.48 2.52-11.52 6.54-2.28-4.32-6.66-6.54-11.88-6.54a12.591 12.591 0 0 0-9.78 4.32v-3.78h-6.84V46.7h6.84V28.22c0-6.06 3.3-9.18 8.34-9.18 4.98 0 8.28 3.12 8.28 9.18V46.7h6.78V28.22c0-6.06 3.3-9.18 8.34-9.18 4.98 0 8.28 3.12 8.28 9.18Zm29.4-27.84c5.1 0 9.12 3.24 9.24 8.34h-18.3c.72-5.22 4.44-8.34 9.06-8.34Zm15.48 18h-7.38c-1.26 2.58-3.6 4.62-7.8 4.62a9.094 9.094 0 0 1-9.42-8.76h25.26a21.1 21.1 0 0 0 .24-3.36c0-9.72-6.66-16.26-16.08-16.26-9.78 0-16.5 6.66-16.5 17.04s7.02 17.1 16.5 17.1c8.1 0 13.32-4.62 15.18-10.38Zm14.46-7.56c0-7.02 3.12-9.12 8.16-9.12h1.74V13.1c-4.68 0-7.98 2.04-9.9 5.34v-4.8h-6.84V46.7h6.84Zm13.92.84c0 10.38 6.72 17.1 16.2 17.1 8.1 0 13.38-4.5 15.24-10.98h-7.38c-1.26 3.42-3.78 5.22-7.86 5.22-5.52 0-9.18-4.08-9.18-11.34 0-7.2 3.66-11.28 9.18-11.28 4.08 0 6.72 2.04 7.86 5.22h7.38c-1.86-6.96-7.14-10.98-15.24-10.98-9.48 0-16.2 6.72-16.2 17.04Zm52.2-11.28c5.1 0 9.12 3.24 9.24 8.34h-18.3c.72-5.22 4.44-8.34 9.06-8.34Zm15.48 18h-7.38c-1.26 2.58-3.6 4.62-7.8 4.62a9.094 9.094 0 0 1-9.42-8.76h25.26a21.1 21.1 0 0 0 .24-3.36c0-9.72-6.66-16.26-16.08-16.26-9.78 0-16.5 6.66-16.5 17.04s7.02 17.1 16.5 17.1c8.1 0 13.32-4.62 15.18-10.38Z" fill="#e97777" stroke="rgba(0,0,0,0)"/></svg>