<svg xmlns="http://www.w3.org/2000/svg" width="32" height="32"><g data-name="Group 18470" transform="translate(-718 -6549)"><rect data-name="Rectangle 122" width="32" height="32" rx="5" transform="translate(718 6549)" fill="#e97777"/><g data-name="Group 30913"><g data-name="Group 18474" transform="translate(725.273 6555.997)" fill="#fff"><path data-name="Path 224498" d="M0 0h4.023l1.689 3.931L7.463 0h4.023L7.77 8.722H3.716Z"/><circle data-name="Ellipse 29" cx="1.419" cy="1.419" r="1.419" transform="translate(14.613 9.809)"/><path data-name="Path 224499" d="M16.153 4.094v3.942h-.305a2.466 2.466 0 0 0-2.386 1.991H9.471a6.391 6.391 0 0 1 6.377-5.945c.1 0 .2 0 .3.006Z"/><path data-name="Path 224500" d="M16.107 17.996v-3.942h-.305a2.466 2.466 0 0 1-2.386-1.991H9.425a6.391 6.391 0 0 0 6.377 5.945c.1 0 .2 0 .3-.006Z"/></g></g></g></svg>