<svg xmlns="http://www.w3.org/2000/svg" width="31" height="31"><g data-name="Layer 2"><path data-name="Path 1414" d="M24.759 8.948h-3.933v-2a3.3 3.3 0 0 0-3.278-3.324h-3.933a3.3 3.3 0 0 0-3.278 3.328v2H6.404a3.964 3.964 0 0 0-3.933 3.99v10.649a3.964 3.964 0 0 0 3.933 3.993h18.355a3.964 3.964 0 0 0 3.933-3.993V12.942a3.964 3.964 0 0 0-3.933-3.994Zm-5.244 2.662v13.314h-7.867V11.611Zm-6.556-4.658a.661.661 0 0 1 .656-.666h3.933a.661.661 0 0 1 .656.666v2h-5.245ZM5.093 23.591V12.942a1.321 1.321 0 0 1 1.311-1.331h2.622v13.313H6.404a1.321 1.321 0 0 1-1.311-1.333Zm20.977 0a1.321 1.321 0 0 1-1.311 1.333h-2.622V11.611h2.622a1.321 1.321 0 0 1 1.312 1.331Z" fill="#e97777"/></g></svg>