<svg data-name="Layer 2" xmlns="http://www.w3.org/2000/svg" width="35" height="35"><path data-name="Path 239616" d="M27.89 29.358H7.34a1.468 1.468 0 0 0 0 2.936h20.55a1.468 1.468 0 0 0 0-2.936Z"/><path data-name="Path 239617" d="M7.34 26.422h.13l6.121-.558a2.936 2.936 0 0 0 1.776-.837l13.213-13.21a2.818 2.818 0 0 0-.1-3.978l-4.024-4.022a2.936 2.936 0 0 0-3.9-.1L7.34 16.925a2.936 2.936 0 0 0-.837 1.776l-.633 6.121a1.464 1.464 0 0 0 1.468 1.6Zm15.075-20.55 4.007 4.007-2.936 2.862-3.933-3.933ZM9.351 18.951l8.264-8.206 3.963 3.963-8.22 8.22-4.4.411Z"/></svg>