<svg xmlns="http://www.w3.org/2000/svg" width="30" height="30"><g data-name="Layer 2"><path d="M25.779 7.856h-1.228V6.629a1.228 1.228 0 1 0-2.455 0v1.227h-1.227a1.228 1.228 0 0 0 0 2.455h1.228v1.228a1.228 1.228 0 1 0 2.455 0v-1.228h1.228a1.228 1.228 0 0 0 0-2.455Z" data-name="Path 224513"/><path d="M12.275 13.995a4.91 4.91 0 1 0-4.91-4.911 4.91 4.91 0 0 0 4.91 4.91Zm0-7.365A2.455 2.455 0 1 1 9.82 9.084a2.455 2.455 0 0 1 2.455-2.455Z" data-name="Path 224514"/><path d="M12.276 16.449a8.593 8.593 0 0 0-8.593 8.593 1.228 1.228 0 0 0 2.455 0 6.138 6.138 0 0 1 12.276 0 1.228 1.228 0 1 0 2.455 0 8.593 8.593 0 0 0-8.593-8.593Z" data-name="Path 224515"/></g></svg>