<svg xmlns="http://www.w3.org/2000/svg" width="30" height="30"><g data-name="Layer 2"><circle data-name="Ellipse 38" cx="2" cy="2" r="2" transform="translate(13 13)"/><circle data-name="Ellipse 39" cx="2" cy="2" r="2" transform="translate(19 13)"/><circle data-name="Ellipse 40" cx="2" cy="2" r="2" transform="translate(7 13)"/><path data-name="Path 224512" d="M23.53 6.47A12.338 12.338 0 0 0 3.443 20.043a1.308 1.308 0 0 1 .111.79L2.468 26.05a1.226 1.226 0 0 0 1.234 1.482h.247l5.281-1.061a1.555 1.555 0 0 1 .79.111A12.338 12.338 0 0 0 23.591 6.495Zm1.024 10.315a9.871 9.871 0 0 1-13.572 7.5 4.022 4.022 0 0 0-1.542-.321 4.232 4.232 0 0 0-.691.062l-3.479.7.7-3.479a3.813 3.813 0 0 0-.259-2.233 9.872 9.872 0 1 1 18.841-2.233Z"/></g></svg>