<svg xmlns="http://www.w3.org/2000/svg" width="260" height="66"><defs><clipPath id="a"><path fill="#fff" stroke="#707070" d="M1039 26.5h260v66h-260z" data-name="Rectangle 188"/></clipPath></defs><g clip-path="url(#a)" data-name="Mask Group 7" transform="translate(-1039 -26.5)"><g transform="translate(1017.7 -226.119)"><path fill="#ffd85f" d="M36.967 295.724a13.727 13.727 0 0 1-4.38-10.15 14.073 14.073 0 0 1 4.211-10.15 5.718 5.718 0 1 0-8.086-8.086 26.3 26.3 0 0 0-7.412 18.236 25.72 25.72 0 0 0 7.581 18.236 5.645 5.645 0 0 0 8.086 0 6.055 6.055 0 0 0 0-8.086Z" data-name="Path 224481"/><path fill="#3bb4e7" d="M36.967 275.425a13.76 13.76 0 0 1 10.15-4.338 14.145 14.145 0 0 1 10.15 4.211 5.718 5.718 0 0 0 8.086-8.086 26.3 26.3 0 0 0-18.237-7.412 25.721 25.721 0 0 0-18.236 7.581 5.645 5.645 0 0 0 0 8.086 6.1 6.1 0 0 0 8.087-.042Z" data-name="Path 224482"/><path fill="#ed5c68" d="M57.266 295.724a13.76 13.76 0 0 1-10.15 4.338 14.145 14.145 0 0 1-10.15-4.211 5.718 5.718 0 1 0-8.086 8.086 26.3 26.3 0 0 0 18.236 7.412 25.721 25.721 0 0 0 18.236-7.581 5.645 5.645 0 0 0 0-8.086 6.1 6.1 0 0 0-8.086.042Z" data-name="Path 224483"/><circle cx="5.643" cy="5.643" r="5.643" fill="#308bc5" data-name="Ellipse 2" transform="translate(27.28 265.738)"/><circle cx="5.643" cy="5.643" r="5.643" fill="#d5465f" data-name="Ellipse 3" transform="translate(27.28 294.124)"/><path fill="#2a3039" d="M90.705 290.88c1.6-1.306 1.937-.463 3.243.8.632.632 2.569 1.937 1.306 2.906a11.8 11.8 0 0 1-8.212 3.074 12.071 12.071 0 0 1-12.424-12.929 11.362 11.362 0 0 1 4.043-8.549 12.134 12.134 0 0 1 8.381-2.737 13.43 13.43 0 0 1 4.338.8 9.44 9.44 0 0 1 2.737 1.432c1.6 1.306.8 1.937-.337 3.243-.337.337-.463.632-.8.8-.632.632-1.137 1.137-1.937.463a7.539 7.539 0 0 0-5.812-1.306c-6.444 1.6-6.149 13.056 1.769 13.056a4.576 4.576 0 0 0 3.705-1.053Zm179.241 6.317a1.857 1.857 0 0 1-1.937-1.937v-25.353a1.857 1.857 0 0 1 1.937-1.937h2.106a1.857 1.857 0 0 1 1.937 1.937v25.353a1.857 1.857 0 0 1-1.937 1.937Zm-11.118-2.906a10.588 10.588 0 0 1-7.749 3.243c-6.612 0-9.686-5.475-9.686-11.455v-10.318a1.857 1.857 0 0 1 1.937-1.937h2.108a1.857 1.857 0 0 1 1.937 1.937v10.318c0 3.369 1.769 5.98 5.475 5.98a6.006 6.006 0 0 0 5.812-6.275v-10.023a1.857 1.857 0 0 1 1.937-1.937h2.106a1.857 1.857 0 0 1 1.937 1.937v19.5a1.857 1.857 0 0 1-1.937 1.937h-1.767a2.083 2.083 0 0 1-1.937-1.937l-.168-.969Zm-25.185-20.342h4.043a1.958 1.958 0 0 1 1.937 1.937v1.306a1.857 1.857 0 0 1-1.937 1.937h-4.043v16.13a1.857 1.857 0 0 1-1.937 1.937H229.6a1.857 1.857 0 0 1-1.937-1.937v-22.11c0-4.843 2.737-8.718 7.749-9.181h3.074a1.958 1.958 0 0 1 1.937 1.937v1.306a1.857 1.857 0 0 1-1.937 1.937h-1.6c-2.4 0-3.369 1.769-3.369 4.043v.8h.126Zm-14.7 0h4.506a1.857 1.857 0 0 1 1.937 1.937v1.306a1.857 1.857 0 0 1-1.937 1.937h-4.506v9.813a2.568 2.568 0 0 0 2.906 2.906h.969a1.857 1.857 0 0 1 1.937 1.937v1.432a1.857 1.857 0 0 1-1.937 1.937h-2.737c-4.843-.337-6.949-3.369-6.949-8.212v-19.035a1.857 1.857 0 0 1 1.937-1.937h2.106a1.857 1.857 0 0 1 1.937 1.937v4.043Zm-64.688 0h4.506a1.857 1.857 0 0 1 1.937 1.937v1.306a1.857 1.857 0 0 1-1.937 1.937h-4.506v9.813c0 1.937.969 3.074 2.906 3.074h.969a1.857 1.857 0 0 1 1.937 1.937v1.306a1.857 1.857 0 0 1-1.937 1.937h-1.306c-5.306 0-8.381-2.274-8.381-8.212v-19.035a1.857 1.857 0 0 1 1.937-1.937h2.106a1.857 1.857 0 0 1 1.937 1.937v4.043c.002-.042-.166-.042-.166-.042Zm-26.28 2.737a10.119 10.119 0 0 1 7.412-3.243c6.612 0 10.023 5.306 10.023 11.455v10.36a1.857 1.857 0 0 1-1.937 1.937h-2.106a1.857 1.857 0 0 1-1.937-1.937v-10.316c0-3.369-1.769-5.98-5.475-5.98-3.538 0-5.812 2.906-5.812 6.275v10.023a1.857 1.857 0 0 1-1.937 1.937H124.1a1.857 1.857 0 0 1-1.937-1.937v-19.541a1.857 1.857 0 0 1 1.937-1.937h1.769a2.083 2.083 0 0 1 1.937 1.937Zm64.857 0a10.119 10.119 0 0 1 7.412-3.243c6.612 0 10.023 5.306 10.023 11.455v10.36a1.857 1.857 0 0 1-1.937 1.937h-2.106a1.857 1.857 0 0 1-1.937-1.937v-10.316c0-3.369-1.769-5.98-5.475-5.98-3.538 0-5.812 2.906-5.812 6.275v10.023a1.857 1.857 0 0 1-1.937 1.937h-2.106a1.857 1.857 0 0 1-1.937-1.937v-19.541a1.857 1.857 0 0 1 1.937-1.937h1.769a2.083 2.083 0 0 1 1.937 1.937Zm-84.735-3.369c-7.117 0-12.087 5.18-12.087 12.255s5.012 12.255 12.087 12.255c7.244 0 12.255-5.012 12.255-12.255a11.835 11.835 0 0 0-12.253-12.254Zm59.087 14.361c.463 3.243 3.706 4.675 6.781 4.675a10.2 10.2 0 0 0 4.338-.969c.168-.168.463-.168.632-.337.8-.463 1.432-.632 2.106 0l1.137 1.137.969.969c.969 1.306.337 1.6-.8 2.274a15.415 15.415 0 0 1-8.381 2.4c-7.749 0-12.929-4.675-12.929-12.424 0-7.412 5.18-12.255 12.424-12.255 7.581 0 11.792 4.338 11.961 11.961 0 2.106.168 2.737-1.937 2.737h-16.3Zm-59.087-8.886c3.706 0 6.149 3.243 6.149 6.78 0 3.706-2.274 6.612-6.149 6.612s-6.149-2.906-6.149-6.612 2.445-6.779 6.151-6.779Zm59.214 3.875h12.087c-.463-3.074-2.906-4.211-5.812-4.211-3.031.001-5.432 1.475-6.274 4.213Z" data-name="Path 224484"/></g></g></svg>