<svg xmlns="http://www.w3.org/2000/svg" width="260" height="66"><defs><clipPath id="a"><path fill="#fff" stroke="#707070" d="M595 246.5h260v66H595z" data-name="Rectangle 189"/></clipPath></defs><g clip-path="url(#a)" data-name="Mask Group 8" transform="translate(-595 -246.5)"><path fill="#f0553d" d="M634.917 275.964a.723.723 0 0 1-.774.774h-14.926a.723.723 0 0 1-.774-.774v-1.721a.723.723 0 0 1 .774-.774h14.926a.723.723 0 0 1 .774.774Zm6.624 4.818a.723.723 0 0 1-.774.774h-18.41a.723.723 0 0 1-.774-.774v-1.721a.723.723 0 0 1 .774-.774H640.6a.723.723 0 0 1 .774.774l.172 1.721Zm5.033 5.033a.723.723 0 0 1-.774.774h-19.959a.723.723 0 0 1-.774-.774v-1.721a.723.723 0 0 1 .774-.774H645.8a.723.723 0 0 1 .774.774v1.721Zm0 4.99a.723.723 0 0 1-.774.774h-19.959a.723.723 0 0 1-.774-.774v-1.721a.723.723 0 0 1 .774-.774H645.8a.723.723 0 0 1 .774.774v1.716Zm-5.033 4.818a.723.723 0 0 1-.774.774h-18.41a.723.723 0 0 1-.774-.774V293.9a.723.723 0 0 1 .774-.774H640.6a.723.723 0 0 1 .774.774l.172 1.721Zm-6.624 4.99a.723.723 0 0 1-.774.774h-14.926a.723.723 0 0 1-.774-.774v-1.723a.723.723 0 0 1 .774-.774h14.926a.723.723 0 0 1 .774.774Zm-28.26-39.616a.723.723 0 0 0 .774.774h14.926a.723.723 0 0 0 .774-.774v-1.721a.723.723 0 0 0-.774-.774h-14.926a.723.723 0 0 0-.774.774v1.721Zm-6.624 4.99a.723.723 0 0 0 .774.774h18.238a.723.723 0 0 0 .774-.774v-1.721a.723.723 0 0 0-.774-.774h-18.238a.723.723 0 0 0-.774.774v1.721Zm-5.033 4.99a.723.723 0 0 0 .774.774h19.959a.723.723 0 0 0 .774-.774v-1.721a.723.723 0 0 0-.774-.774h-19.959a.723.723 0 0 0-.774.774Zm0 4.99a.723.723 0 0 0 .774.774h19.959a.723.723 0 0 0 .774-.774v-1.721a.723.723 0 0 0-.774-.774h-19.959a.723.723 0 0 0-.774.774Zm5.033 4.818a.723.723 0 0 0 .774.774h18.238a.723.723 0 0 0 .774-.774v-1.721a.723.723 0 0 0-.774-.774h-18.238a.723.723 0 0 0-.774.774v1.721Zm6.624 5.033a.723.723 0 0 0 .774.774h14.926a.723.723 0 0 0 .774-.774v-1.721a.723.723 0 0 0-.774-.774h-14.926a.723.723 0 0 0-.774.774v1.721Z" data-name="Path 224485"/><path fill="#202025" d="M665.973 289.341a10.572 10.572 0 0 1-2.323.172 9.425 9.425 0 0 1-4.689-.946 4.509 4.509 0 0 1-2.022-2.925 38.559 38.559 0 0 1 0-12.044 4.108 4.108 0 0 1 2.022-2.925 9 9 0 0 1 4.689-.946 9.441 9.441 0 0 1 2.194.172 9.849 9.849 0 0 0 1.893.3v3.4c-1.549-.172-2.667-.3-3.14-.3a10.709 10.709 0 0 0-2.667.3c-.473.172-.774.774-.946 1.549a26.036 26.036 0 0 0-.172 4.344 26.33 26.33 0 0 0 .172 4.344 2.254 2.254 0 0 0 .946 1.549 6.035 6.035 0 0 0 2.667.3 27.978 27.978 0 0 0 3.269-.3v3.4a5.888 5.888 0 0 1-1.893.556Zm6.71-.817a4.13 4.13 0 0 1-1.893-2.8 33 33 0 0 1-.3-6.194 58.5 58.5 0 0 1 .3-6.194 3.6 3.6 0 0 1 1.893-2.8c.946-.6 2.667-.774 4.99-.774a12.2 12.2 0 0 1 4.99.774 4.13 4.13 0 0 1 1.893 2.8 32.264 32.264 0 0 1 .3 6.194 58.5 58.5 0 0 1-.3 6.194 3.936 3.936 0 0 1-1.893 2.8c-1.075.6-2.667.774-4.99.774-2.323.173-4.043-.129-4.99-.774Zm7.011-3.1a1.752 1.752 0 0 0 .645-1.376 58.242 58.242 0 0 0 0-8.947c-.172-.774-.3-1.247-.645-1.377a5.04 5.04 0 0 0-2.022-.3 5.977 5.977 0 0 0-2.022.3 1.752 1.752 0 0 0-.645 1.377 58.24 58.24 0 0 0 0 8.947c.172.774.3 1.247.645 1.376a5.04 5.04 0 0 0 2.022.3c.947.004 1.55.047 2.023-.297Zm18.238 3.742-5.635-11.012h-.172v11.012h-4.215v-19.225h4.387l5.291 10.065h.172v-10.065h4.215v19.227Zm10.625 0v-15.353h-4.516v-3.7h13.42v3.7h-4.516v15.356Zm11.055 0v-19.225h11.528v3.57h-7.313v4.043h6.24v3.57h-6.24v4.3h7.312v3.57h-11.527Zm24.647 0-5.635-11.012h-.172v11.012h-4.215v-19.225h4.387l5.291 10.065h.172v-10.065h4.215v19.227Zm10.625 0v-15.353h-4.517v-3.7h13.42v3.7h-4.52v15.356Zm10.883-.169v-3.4c2.323.172 3.914.3 4.99.3a6.023 6.023 0 0 0 1.893-.172 6.2 6.2 0 0 0 .946-.3.753.753 0 0 0 .3-.6v-1.075c0-.6 0-1.075-.172-1.247a1.828 1.828 0 0 0-.473-.6 2.3 2.3 0 0 0-1.247-.3l-3.14-.473a3.893 3.893 0 0 1-2.968-1.721 6.678 6.678 0 0 1-.774-3.871 8.022 8.022 0 0 1 .774-3.7 4.225 4.225 0 0 1 2.194-1.721 12.167 12.167 0 0 1 3.57-.473 24.69 24.69 0 0 1 5.463.6v3.4c-1.721-.172-3.14-.3-4.517-.3a8.867 8.867 0 0 0-2.667.3c-.3.172-.3.3-.473.6a2.024 2.024 0 0 0-.172 1.075c0 .473 0 .946.172 1.075.172.172.172.3.3.473.172.172.473.172 1.075.3l3.269.473a6.124 6.124 0 0 1 1.893.6 3.545 3.545 0 0 1 1.247 1.376 9.978 9.978 0 0 1 .645 3.57 8.838 8.838 0 0 1-.774 4.043 3.8 3.8 0 0 1-2.022 1.85 10.316 10.316 0 0 1-3.441.473c-2.15-.081-4.171-.383-5.891-.555Zm18.238.172v-15.356h-4.516v-3.7h13.42v3.7h-4.516v15.356Zm20.432 0-.946-3.871h-5.764l-.946 3.871h-4.387l5.162-19.227h6.065l5.162 19.227Zm-3.742-15.184h-.172l-1.893 7.743h3.914Zm19.183 15.356a10.573 10.573 0 0 1-2.323.172 9.425 9.425 0 0 1-4.689-.946 4.108 4.108 0 0 1-2.022-2.925 38.558 38.558 0 0 1 0-12.044 4.108 4.108 0 0 1 2.022-2.925 9 9 0 0 1 4.689-.946 9.442 9.442 0 0 1 2.194.172 9.849 9.849 0 0 0 1.893.3v3.4c-1.549-.172-2.667-.3-3.14-.3a10.709 10.709 0 0 0-2.667.3 2.253 2.253 0 0 0-.946 1.549 26.036 26.036 0 0 0-.172 4.344 26.332 26.332 0 0 0 .172 4.344 2.254 2.254 0 0 0 .946 1.549 6.035 6.035 0 0 0 2.667.3 27.978 27.978 0 0 0 3.269-.3v3.4a10.17 10.17 0 0 1-1.893.556Zm14.5-.172-4.387-7.915h-1.247v7.915h-4.387v-19.228h4.387v7.571h1.247l4.387-7.571h4.689l-5.635 9.162 5.635 9.938Zm9.549-13.463v-4.646h-1.721v-.946h4.517v.946h-1.721v4.646Zm3.57 0v-5.765h1.721l1.075 3.871 1.074-3.871h1.721v5.721h-1.075v-4.474l-1.075 4.474h-1.075l-1.075-4.474v4.474h-1.29Z" data-name="Path 224486"/></g></svg>