<svg xmlns="http://www.w3.org/2000/svg" width="376" height="76.704"><g transform="translate(-21.3 -259.8)"><path fill="#ffd85f" d="M44.612 313.254a20.426 20.426 0 0 1-6.517-15.1 20.94 20.94 0 0 1 6.267-15.1 8.508 8.508 0 0 0-12.032-12.032 39.131 39.131 0 0 0-11.03 27.13 38.272 38.272 0 0 0 11.28 27.135 8.4 8.4 0 0 0 12.032 0 9.009 9.009 0 0 0 0-12.033Z" data-name="Path 224481"/><path fill="#3bb4e7" d="M44.612 283.049a20.474 20.474 0 0 1 15.1-6.455 21.047 21.047 0 0 1 15.1 6.267 8.508 8.508 0 1 0 12.032-12.032A39.131 39.131 0 0 0 59.715 259.8a38.272 38.272 0 0 0-27.135 11.28 8.4 8.4 0 0 0 0 12.032 9.079 9.079 0 0 0 12.032-.063Z" data-name="Path 224482"/><path fill="#ed5c68" d="M74.817 313.255a20.475 20.475 0 0 1-15.1 6.455 21.047 21.047 0 0 1-15.1-6.267 8.51 8.51 0 0 0-12.037 12.032 39.131 39.131 0 0 0 27.135 11.029 38.272 38.272 0 0 0 27.135-11.28 8.4 8.4 0 0 0 0-12.032 9.079 9.079 0 0 0-12.033.063Z" data-name="Path 224483"/><circle cx="8.397" cy="8.397" r="8.397" fill="#308bc5" data-name="Ellipse 2" transform="translate(30.199 268.636)"/><circle cx="8.397" cy="8.397" r="8.397" fill="#d5465f" data-name="Ellipse 3" transform="translate(30.199 310.873)"/><path fill="#2a3039" d="M124.574 306.048c2.381-1.943 2.883-.689 4.825 1.191.94.94 3.823 2.883 1.943 4.324-3.823 3.133-7.207 4.575-12.22 4.575-11.029 0-18.988-8.4-18.487-19.239.251-5.013 2.131-9.588 6.016-12.721a18.056 18.056 0 0 1 12.471-4.073 19.984 19.984 0 0 1 6.455 1.191 14.046 14.046 0 0 1 4.073 2.131c2.381 1.943 1.191 2.883-.5 4.825-.5.5-.689.94-1.191 1.191-.94.94-1.692 1.692-2.883.689a11.218 11.218 0 0 0-8.648-1.943c-9.588 2.381-9.149 19.427 2.632 19.427a6.809 6.809 0 0 0 5.514-1.568Zm266.709 9.4a2.764 2.764 0 0 1-2.883-2.883V274.84a2.764 2.764 0 0 1 2.883-2.883h3.133a2.764 2.764 0 0 1 2.883 2.883v37.725a2.764 2.764 0 0 1-2.883 2.883Zm-16.544-4.324c-3.384 3.133-6.705 4.825-11.531 4.825-9.839 0-14.413-8.147-14.413-17.045v-15.353a2.764 2.764 0 0 1 2.883-2.883h3.133a2.764 2.764 0 0 1 2.883 2.883v15.353c0 5.013 2.632 8.9 8.147 8.9 5.264 0 8.648-4.575 8.648-9.337v-14.916a2.764 2.764 0 0 1 2.883-2.883h3.133a2.764 2.764 0 0 1 2.883 2.883v29.015a2.764 2.764 0 0 1-2.883 2.883h-2.632a3.1 3.1 0 0 1-2.883-2.883l-.251-1.441Zm-37.475-30.268h6.016a2.914 2.914 0 0 1 2.883 2.883v1.943a2.764 2.764 0 0 1-2.883 2.883h-6.016v24a2.764 2.764 0 0 1-2.883 2.883h-3.132a2.764 2.764 0 0 1-2.883-2.883v-32.9c0-7.207 4.073-12.972 11.531-13.661h4.575a2.914 2.914 0 0 1 2.883 2.883v1.943a2.764 2.764 0 0 1-2.883 2.883h-2.381c-3.572 0-5.013 2.632-5.013 6.016v1.191h.188Zm-21.871 0h6.705a2.764 2.764 0 0 1 2.883 2.883v1.943a2.764 2.764 0 0 1-2.883 2.883h-6.705v14.6q0 4.324 4.324 4.324h1.441a2.764 2.764 0 0 1 2.883 2.883v2.132a2.764 2.764 0 0 1-2.883 2.883h-4.073c-7.207-.5-10.34-5.013-10.34-12.22V274.84a2.764 2.764 0 0 1 2.883-2.883h3.133a2.764 2.764 0 0 1 2.883 2.883v6.016Zm-96.256 0h6.705a2.764 2.764 0 0 1 2.883 2.883v1.943a2.764 2.764 0 0 1-2.883 2.883h-6.705v14.6c0 2.883 1.441 4.575 4.324 4.575h1.441a2.764 2.764 0 0 1 2.883 2.883v1.943a2.764 2.764 0 0 1-2.883 2.883h-1.943c-7.9 0-12.471-3.384-12.471-12.22v-28.325a2.764 2.764 0 0 1 2.883-2.883h3.133a2.764 2.764 0 0 1 2.883 2.883v6.016c.002-.064-.249-.064-.249-.064Zm-39.1 4.073a15.056 15.056 0 0 1 11.029-4.825c9.839 0 14.915 7.9 14.915 17.045v15.416a2.764 2.764 0 0 1-2.883 2.883h-3.133a2.764 2.764 0 0 1-2.883-2.883v-15.353c0-5.013-2.632-8.9-8.147-8.9-5.264 0-8.648 4.324-8.648 9.337v14.915a2.764 2.764 0 0 1-2.883 2.883h-3.135a2.764 2.764 0 0 1-2.883-2.883v-29.076a2.764 2.764 0 0 1 2.883-2.883h2.632a3.1 3.1 0 0 1 2.883 2.883Zm96.507 0a15.056 15.056 0 0 1 11.029-4.825c9.839 0 14.915 7.9 14.915 17.045v15.416a2.764 2.764 0 0 1-2.883 2.883h-3.136a2.764 2.764 0 0 1-2.883-2.883v-15.353c0-5.013-2.632-8.9-8.147-8.9-5.264 0-8.648 4.324-8.648 9.337v14.915a2.764 2.764 0 0 1-2.883 2.883h-3.133a2.764 2.764 0 0 1-2.883-2.883v-29.076a2.764 2.764 0 0 1 2.883-2.883h2.632a3.1 3.1 0 0 1 2.883 2.883Zm-126.085-5.013c-10.591 0-17.985 7.708-17.985 18.236s7.457 18.236 17.985 18.236c10.779 0 18.236-7.457 18.236-18.236-.003-10.591-7.646-18.236-18.239-18.236Zm87.921 21.369c.689 4.825 5.515 6.956 10.089 6.956a15.181 15.181 0 0 0 6.455-1.441c.251-.251.689-.251.94-.5 1.191-.689 2.131-.94 3.133 0l1.692 1.692 1.441 1.441c1.441 1.943.5 2.381-1.191 3.384a22.938 22.938 0 0 1-12.471 3.572c-11.531 0-19.239-6.956-19.239-18.487 0-11.029 7.708-18.236 18.487-18.236 11.28 0 17.547 6.455 17.8 17.8 0 3.133.251 4.073-2.883 4.073h-24.256Zm-87.921-13.223c5.515 0 9.149 4.825 9.149 10.089 0 5.515-3.384 9.839-9.149 9.839s-9.149-4.324-9.149-9.839 3.631-10.088 9.146-10.088Zm88.109 5.765h17.981c-.689-4.575-4.324-6.267-8.648-6.267-4.511.001-8.083 2.195-9.336 6.268Z" data-name="Path 224484"/></g></svg>