<svg xmlns="http://www.w3.org/2000/svg" width="299.74" height="47.74" viewBox="0 0 299.74 47.74">
  <g id="Component_818_4" data-name="Component 818 – 4" transform="translate(0.5 0.5)">
    <path id="Path_261499" data-name="Path 261499" d="M27.48,0h8.94L18-20.82,36.12-41.7H27.54L11.34-22.68V-41.7H4.5V0h6.84V-18.66Zm46.5-16.56c0-10.38-7.44-17.04-16.86-17.04S40.26-26.94,40.26-16.56,47.4.54,56.82.54C66.3.54,73.98-6.18,73.98-16.56Zm-26.76,0c0-7.5,4.62-11.1,9.78-11.1,5.1,0,9.96,3.6,9.96,11.1S61.92-5.4,56.82-5.4C51.66-5.4,47.22-9.06,47.22-16.56ZM104.22,0H111V-19.5c0-9.24-5.82-14.1-13.56-14.1a12.718,12.718,0,0,0-9.84,4.32v-3.78H80.76V0H87.6V-18.48c0-6.06,3.3-9.18,8.34-9.18,4.98,0,8.28,3.12,8.28,9.18Zm16.56-9.18c0,6.72,3.66,9.18,9.54,9.18h5.4V-5.7h-4.2c-2.88,0-3.84-1.02-3.84-3.48v-18.3h8.04v-5.58h-8.04v-8.22h-6.9v8.22h-3.9v5.58h3.9Zm35.16-18.66c5.1,0,9.12,3.24,9.24,8.34h-18.3C147.6-24.72,151.32-27.84,155.94-27.84Zm15.48,18h-7.38c-1.26,2.58-3.6,4.62-7.8,4.62a9.094,9.094,0,0,1-9.42-8.76h25.26a21.1,21.1,0,0,0,.24-3.36c0-9.72-6.66-16.26-16.08-16.26-9.78,0-16.5,6.66-16.5,17.04S146.76.54,156.24.54C164.34.54,169.56-4.08,171.42-9.84ZM202.5,0h6.78V-19.5c0-9.24-5.82-14.1-13.56-14.1a12.718,12.718,0,0,0-9.84,4.32v-3.78h-6.84V0h6.84V-18.48c0-6.06,3.3-9.18,8.34-9.18,4.98,0,8.28,3.12,8.28,9.18Zm16.56-9.18c0,6.72,3.66,9.18,9.54,9.18H234V-5.7h-4.2c-2.88,0-3.84-1.02-3.84-3.48v-18.3H234v-5.58h-8.04v-8.22h-6.9v8.22h-3.9v5.58h3.9Zm28.32,5.22a4.316,4.316,0,0,0-4.32-4.38,4.329,4.329,0,0,0-4.38,4.38A4.329,4.329,0,0,0,243.06.42,4.316,4.316,0,0,0,247.38-3.96Zm5.1-12.72c0,10.2,6.9,17.22,15.48,17.22a14.23,14.23,0,0,0,11.58-5.46V0h6.9V-33.06h-6.9v4.8a14.072,14.072,0,0,0-11.46-5.34C259.38-33.6,252.48-26.88,252.48-16.68Zm27.06.12c0,7.14-4.86,11.16-10.02,11.16-5.1,0-10.02-4.14-10.02-11.28s4.92-10.98,10.02-10.98C274.68-27.66,279.54-23.64,279.54-16.56ZM295.44,0h6.84V-33.06h-6.84Zm3.48-37.44a4.316,4.316,0,0,0,4.32-4.38,4.316,4.316,0,0,0-4.32-4.38,4.329,4.329,0,0,0-4.38,4.38A4.329,4.329,0,0,0,298.92-37.44Z" transform="translate(-4.5 46.2)" fill="#5765f2" stroke="rgba(0,0,0,0)" stroke-width="1"/>
  </g>
</svg>
