<svg id="download_2_" data-name="download (2)" xmlns="http://www.w3.org/2000/svg" width="376" height="118.489" viewBox="0 0 376 118.489">
  <g id="Group_31477" data-name="Group 31477" transform="translate(143.43 43.071)">
    <path id="Path_257700" data-name="Path 257700" d="M250.252,91.477,261.437,77.59h9.053l-10.617,12.7,11.185,18.579h-9.242l-7.773-13.413-3.792,4.6v8.816H242.1V77.59h8.152Z" transform="translate(-242.1 -74.693)"/>
    <path id="Path_257701" data-name="Path 257701" d="M316.112,101.913c0,7.773-5.119,12.323-12.56,12.323s-12.512-4.55-12.512-12.323,5.119-12.323,12.512-12.323S316.112,94.14,316.112,101.913Zm-16.968,0c0,4.645,1.611,6.588,4.408,6.588s4.455-1.943,4.455-6.588-1.659-6.588-4.455-6.588S299.145,97.268,299.145,101.913Z" transform="translate(-262.046 -79.584)"/>
    <path id="Path_257702" data-name="Path 257702" d="M339.76,90.054h7.2l.237,4.787a8.209,8.209,0,0,1,8.1-5.261c4.882,0,8.2,2.891,8.2,8.389v15.783h-8.057V100.1c0-3.27-1.374-4.36-3.365-4.36-2.322,0-4.266,1.517-4.266,5.45v12.56H339.76v-23.7Z" transform="translate(-281.902 -79.58)"/>
    <path id="Path_257703" data-name="Path 257703" d="M403.5,90.941h-7.062v9.526c0,2.275,1.138,3.175,3.128,3.175a5.567,5.567,0,0,0,3.46-1.043l.853,4.977a12.6,12.6,0,0,1-6.683,1.8c-5.4,0-8.768-2.085-8.816-7.583V90.941H384.3V85.206h4.076V79.9l8.057-2.228v7.536H403.5v5.735Z" transform="translate(-300.055 -74.726)"/>
    <path id="Path_257704" data-name="Path 257704" d="M419.84,101.913c0-7.82,5.071-12.323,12.418-12.323s11.754,4.692,11.754,11.233a26.934,26.934,0,0,1-.19,3.128H427.66c.474,3.318,2.228,4.6,4.977,4.6,2.37,0,3.744-1,4.455-2.7l6.446,2.133c-1.375,4.076-5.924,6.256-10.9,6.256-7.868,0-12.8-4.5-12.8-12.323Zm7.868-2.275h8.673c-.332-2.844-1.706-4.408-4.123-4.408S428.229,96.6,427.708,99.638Z" transform="translate(-314.539 -79.584)"/>
    <path id="Path_257705" data-name="Path 257705" d="M467.28,90.054h7.2l.237,4.787a8.209,8.209,0,0,1,8.1-5.261c4.882,0,8.2,2.891,8.2,8.389v15.783h-8.057V100.1c0-3.27-1.374-4.36-3.365-4.36-2.322,0-4.266,1.517-4.266,5.45v12.56H467.28v-23.7Z" transform="translate(-333.874 -79.58)"/>
    <path id="Path_257706" data-name="Path 257706" d="M531.005,90.941h-7.062v9.526c0,2.275,1.137,3.175,3.128,3.175a5.567,5.567,0,0,0,3.46-1.043l.853,4.977a12.6,12.6,0,0,1-6.683,1.8c-5.4,0-8.768-2.085-8.816-7.583V90.941H511.81V85.206h4.076V79.9l8.057-2.228v7.536h7.062v5.735Z" transform="translate(-352.022 -74.726)"/>
    <path id="Path_257707" data-name="Path 257707" d="M559.609,120.943c0,2.654-1.8,4.266-4.74,4.266s-4.74-1.611-4.74-4.266,1.8-4.313,4.74-4.313S559.609,118.241,559.609,120.943Z" transform="translate(-367.64 -90.604)" fill="#3dcca8"/>
    <path id="Path_257708" data-name="Path 257708" d="M583.435,95.135c-2.085,0-3.649.9-4.218,3.555l-6.825-1.611c.853-4.55,4.645-7.488,11.517-7.488s10.948,3.128,10.948,9.005v8.673c0,1.28.569,1.848,1.659,1.848a4.016,4.016,0,0,0,1.374-.19l-.474,4.6a8.031,8.031,0,0,1-3.46.664c-2.986,0-5.261-1.137-6.019-3.555-1.327,2.417-4.5,3.6-7.725,3.6-4.882,0-7.962-2.275-7.962-6.541,0-3.412,1.991-5.687,6.4-6.588l8.2-1.706v-.664a3.264,3.264,0,0,0-3.412-3.6Zm-.664,13.887a3.786,3.786,0,0,0,4.076-4.029v-1.327l-3.839.806c-1.9.379-2.8,1.043-2.8,2.465s1.138,2.085,2.559,2.085Z" transform="translate(-376.655 -79.584)"/>
    <path id="Path_257709" data-name="Path 257709" d="M618.82,76.586c0-2.7,1.422-3.886,4.692-3.886s4.692,1.185,4.692,3.886-1.422,3.839-4.692,3.839S618.82,79.241,618.82,76.586Zm8.721,30.286h-8.057v-23.7h8.057Z" transform="translate(-395.635 -72.7)"/>
  </g>
  <g id="Group_31479" data-name="Group 31479">
    <path id="Path_4548" d="M59.244,0A59.244,59.244,0,1,1,0,59.244,59.243,59.243,0,0,1,59.244,0Z" fill="#3dcca8"/>
    <g id="Group_31478" data-name="Group 31478" transform="translate(25.517 24.29)">
      <path id="Path_4549" d="M59.931,49.259V75.652a1.014,1.014,0,0,1-.841,1.013c-3.371.675-16.02,2.364-16.02-8.43V49.43a8.43,8.43,0,1,1,16.861,0" transform="translate(-43.07 -41)" fill="#fff"/>
      <path id="Path_4550" d="M102.631,77.729v26.482a1.015,1.015,0,0,1-.841.93c-3.371.669-16.02,2.358-16.02-8.436V77.9a8.43,8.43,0,1,1,16.861,0" transform="translate(-60.473 -52.603)" fill="#fff"/>
      <path id="Path_4551" d="M145.341,106.2v26.482a1.015,1.015,0,0,1-.841.93c-3.371.669-16.02,2.358-16.02-8.436v-18.8a8.43,8.43,0,0,1,16.861,0" transform="translate(-77.879 -64.206)" fill="#fff"/>
    </g>
  </g>
</svg>
