<svg xmlns="http://www.w3.org/2000/svg" xmlns:xlink="http://www.w3.org/1999/xlink" width="250" height="64" viewBox="0 0 250 64">
  <defs>
    <clipPath id="clip-path">
      <rect id="Rectangle_6585" data-name="Rectangle 6585" width="250" height="64" transform="translate(625 136.5)" fill="#fff" stroke="#707070" stroke-width="1"/>
    </clipPath>
  </defs>
  <g id="Mask_Group_37" data-name="Mask Group 37" transform="translate(-625 -136.5)" clip-path="url(#clip-path)">
    <g id="download_2_" data-name="download (2)" transform="translate(625 137.5)">
      <g id="Group_31477" data-name="Group 31477" transform="translate(75.148 22.566)">
        <path id="Path_257700" data-name="Path 257700" d="M246.371,84.866l5.86-7.276h4.743l-5.562,6.655,5.86,9.734H252.43l-4.072-7.028-1.987,2.409v4.619H242.1V77.59h4.271Z" transform="translate(-242.1 -76.072)"/>
        <path id="Path_257701" data-name="Path 257701" d="M304.176,96.046c0,4.072-2.682,6.456-6.581,6.456s-6.556-2.384-6.556-6.456,2.682-6.456,6.556-6.456S304.176,91.974,304.176,96.046Zm-8.89,0c0,2.434.844,3.452,2.309,3.452s2.334-1.018,2.334-3.452-.869-3.452-2.334-3.452S295.286,93.613,295.286,96.046Z" transform="translate(-275.849 -84.347)"/>
        <path id="Path_257702" data-name="Path 257702" d="M339.76,89.828h3.774l.124,2.508A4.3,4.3,0,0,1,347.9,89.58c2.558,0,4.3,1.515,4.3,4.4v8.269h-4.221V95.093c0-1.713-.72-2.285-1.763-2.285-1.217,0-2.235.795-2.235,2.856v6.581H339.76V89.828Z" transform="translate(-309.446 -84.34)"/>
        <path id="Path_257703" data-name="Path 257703" d="M394.357,84.623h-3.7v4.991a1.446,1.446,0,0,0,1.639,1.664,2.917,2.917,0,0,0,1.813-.546l.447,2.607a6.6,6.6,0,0,1-3.5.944c-2.831,0-4.594-1.093-4.619-3.973V84.623H384.3v-3h2.136V78.837l4.221-1.167v3.948h3.7v3Z" transform="translate(-340.161 -76.127)"/>
        <path id="Path_257704" data-name="Path 257704" d="M419.84,96.046c0-4.1,2.657-6.456,6.506-6.456s6.158,2.458,6.158,5.885a14.108,14.108,0,0,1-.1,1.639h-8.468a2.4,2.4,0,0,0,2.607,2.409,2.263,2.263,0,0,0,2.334-1.415l3.377,1.117c-.72,2.136-3.1,3.278-5.711,3.278C422.423,102.5,419.84,100.144,419.84,96.046Zm4.122-1.192h4.544c-.174-1.49-.894-2.309-2.16-2.309S424.235,93.265,423.962,94.854Z" transform="translate(-364.669 -84.347)"/>
        <path id="Path_257705" data-name="Path 257705" d="M467.28,89.828h3.775l.124,2.508a4.3,4.3,0,0,1,4.246-2.756c2.558,0,4.3,1.515,4.3,4.4v8.269H475.5V95.093c0-1.713-.72-2.285-1.763-2.285-1.217,0-2.235.795-2.235,2.856v6.581H467.28Z" transform="translate(-397.384 -84.34)"/>
        <path id="Path_257706" data-name="Path 257706" d="M521.867,84.623h-3.7v4.991a1.446,1.446,0,0,0,1.639,1.664,2.917,2.917,0,0,0,1.813-.546l.447,2.607a6.6,6.6,0,0,1-3.5.944c-2.831,0-4.594-1.093-4.619-3.973V84.623H511.81v-3h2.135V78.837l4.221-1.167v3.948h3.7v3Z" transform="translate(-428.091 -76.127)"/>
        <path id="Path_257707" data-name="Path 257707" d="M555.1,118.89a2.494,2.494,0,1,1-2.483-2.26A2.187,2.187,0,0,1,555.1,118.89Z" transform="translate(-454.517 -102.994)" fill="#3dcca8"/>
        <path id="Path_257708" data-name="Path 257708" d="M578.11,92.5a2.056,2.056,0,0,0-2.21,1.862l-3.576-.844c.447-2.384,2.434-3.923,6.034-3.923s5.736,1.639,5.736,4.718v4.544c0,.67.3.968.869.968a2.1,2.1,0,0,0,.72-.1l-.248,2.409a4.208,4.208,0,0,1-1.813.348c-1.564,0-2.756-.6-3.154-1.862a4.521,4.521,0,0,1-4.048,1.887c-2.558,0-4.172-1.192-4.172-3.427,0-1.788,1.043-2.98,3.352-3.452l4.3-.894v-.348A1.71,1.71,0,0,0,578.11,92.5Zm-.348,7.276A1.983,1.983,0,0,0,579.9,97.66v-.7l-2.011.422c-.993.2-1.465.546-1.465,1.291S577.018,99.771,577.763,99.771Z" transform="translate(-469.771 -84.347)"/>
        <path id="Path_257709" data-name="Path 257709" d="M618.82,74.736c0-1.415.745-2.036,2.458-2.036s2.458.621,2.458,2.036-.745,2.011-2.458,2.011S618.82,76.127,618.82,74.736ZM623.389,90.6h-4.221V78.188h4.221Z" transform="translate(-501.885 -72.7)"/>
      </g>
      <g id="Group_31479" data-name="Group 31479">
        <path id="Path_4548" d="M31.04,0A31.04,31.04,0,1,1,0,31.04,31.04,31.04,0,0,1,31.04,0Z" fill="#3dcca8"/>
        <g id="Group_31478" data-name="Group 31478" transform="translate(13.369 12.726)">
          <path id="Path_4549" d="M51.9,45.327V59.155a.531.531,0,0,1-.441.531c-1.766.354-8.393,1.239-8.393-4.417V45.417a4.417,4.417,0,1,1,8.834,0" transform="translate(-43.07 -41)" fill="#fff"/>
          <path id="Path_4550" d="M94.6,73.8V87.672a.532.532,0,0,1-.441.487c-1.766.351-8.393,1.235-8.393-4.42V73.887a4.417,4.417,0,0,1,8.834,0" transform="translate(-72.516 -60.633)" fill="#fff"/>
          <path id="Path_4551" d="M137.314,102.267v13.875a.532.532,0,0,1-.441.487c-1.766.351-8.393,1.235-8.393-4.42v-9.852a4.417,4.417,0,1,1,8.834,0" transform="translate(-101.969 -80.266)" fill="#fff"/>
        </g>
      </g>
    </g>
  </g>
</svg>
