<svg xmlns="http://www.w3.org/2000/svg" width="44.44" height="64.252"><path fill="#232630" stroke="rgba(0,0,0,0)" d="M1.184 20.156h16.044c.168-2.856 1.26-5.964 4.872-5.964 2.772 0 4.7 1.68 4.7 5.208 0 5.208-4.452 5.712-7.644 5.628h-2.852v13.356h2.94c6.216 0 8.736 2.016 8.736 6.216 0 3.276-1.932 5.548-5.208 5.548-4.368 0-6.384-2.688-6.216-7.056H.512c.336 14.612 9.66 20.656 22.932 20.656 12.936 0 20.5-7.308 20.5-17.892 0-7.9-4.284-12.264-10.164-14.448v-.336c3.864-1.26 9.072-5.292 9.072-13.692 0-9.408-7.056-16.884-20.328-16.884C9.416.5 1.604 7.472 1.184 20.156Z" data-name="Path 241851"/></svg>