<svg xmlns="http://www.w3.org/2000/svg" width="45.52" height="64"><path fill="#232630" stroke="rgba(0,0,0,0)" d="M43.424 19.316C42.752 9.824 37.04.5 23.182.5 7.138.5.502 10.664.502 32.42.5 50.228 5.036 63.5 23.682 63.5c13.356 0 21.336-8.148 21.336-20.58 0-12.852-7.476-19.488-17.976-19.488-5.208 0-9.66 2.184-11.928 5.628.084-10 1.68-15.288 7.14-15.288 3.612 0 5.124 1.932 5.88 5.544ZM23.012 36.2c4.116 0 6.552 2.52 6.552 6.636 0 4.368-2.52 6.636-6.468 6.636-4.284 0-6.8-2.352-6.8-6.8-.004-4.292 2.936-6.472 6.716-6.472Z" data-name="Path 241854"/></svg>