<svg xmlns="http://www.w3.org/2000/svg" width="144.282" height="41.466"><g fill="#fff" data-name="Group 839"><g data-name="Group 18414"><path d="M34.103 30.228a4.059 4.059 0 0 1-7.043 2.751l-4.073-4.073 5.795-5.783 3.991 4.1.022.022a4.044 4.044 0 0 1 1.308 2.983Z" data-name="Path 224025"/><path d="M18.47 28.866 6.988 40.215l-.011.011a4.057 4.057 0 0 1-5.839-5.635l.2-.2 11.141-11.515Z" data-name="Path 224026"/><path d="M41.549 4.059a4.023 4.023 0 0 1-.807 2.425l-.838.837-7.368 7.379-1.133 1.13-10.582 10.6L8.688 14.178l-.2-.2a4.015 4.015 0 0 1-1.13-2.8 4.057 4.057 0 0 1 6.857-2.937l.2.207.011.011 6.617 6.78L31.736 4.216l2.5-2.573a4.058 4.058 0 0 1 7.306 2.432Z" data-name="Path 224475"/></g><path d="M46.399 21.545c0 5.315 3.441 8.848 7.742 8.848a6.713 6.713 0 0 0 5.653-2.765v2.489h4.332v-17.02h-4.332v2.427a6.731 6.731 0 0 0-5.622-2.7c-4.329-.004-7.773 3.406-7.773 8.721Zm13.4.061c0 3.226-2.151 5.008-4.516 5.008-2.3 0-4.485-1.843-4.485-5.069s2.181-4.946 4.485-4.946c2.36 0 4.511 1.782 4.511 5.008Zm7.435-.061c0 5.315 3.441 8.848 7.773 8.848a6.433 6.433 0 0 0 5.592-2.8v2.519h4.363V7.382h-4.369v8.08a6.984 6.984 0 0 0-5.561-2.642c-4.362 0-7.803 3.41-7.803 8.725Zm13.4.061c0 3.226-2.151 5.008-4.516 5.008-2.3 0-4.485-1.843-4.485-5.069s2.181-4.946 4.485-4.946c2.355 0 4.506 1.782 4.506 5.008Zm7.435-.061c0 5.315 3.441 8.848 7.773 8.848a6.433 6.433 0 0 0 5.592-2.8v2.519h4.363V7.382h-4.374v8.08a6.984 6.984 0 0 0-5.561-2.642c-4.362 0-7.803 3.41-7.803 8.725Zm13.4.061c0 3.226-2.151 5.008-4.516 5.008-2.3 0-4.485-1.843-4.485-5.069s2.181-4.946 4.485-4.946c2.35 0 4.501 1.782 4.501 5.008Zm17.942 8.51h4.854l-5.653-8.541 5.592-8.479h-4.624l-3.137 5.254-3.472-5.254h-4.85l5.622 8.48-5.561 8.541h4.608l3.1-5.284Zm11.49-14.563v-2.458h-4.3v25.131h4.3V27.69a6.948 6.948 0 0 0 5.622 2.7c4.363 0 7.773-3.533 7.773-8.848s-3.41-8.725-7.773-8.725a6.8 6.8 0 0 0-5.637 2.737Zm9 5.991c0 3.226-2.181 5.069-4.516 5.069-2.3 0-4.485-1.782-4.485-5.008s2.181-5.008 4.485-5.008c2.322.002 4.503 1.722 4.503 4.948Z" data-name="Path 224472"/></g></svg>