<svg xmlns="http://www.w3.org/2000/svg" width="30" height="30"><g data-name="Layer 2"><path d="M11.153 13.164a4.957 4.957 0 1 0-4.957-4.957 4.957 4.957 0 0 0 4.957 4.957Zm0-7.435a2.478 2.478 0 1 1-2.479 2.478 2.478 2.478 0 0 1 2.479-2.479Z" data-name="Path 224509"/><path d="M21.067 15.642a3.718 3.718 0 1 0-3.718-3.717 3.718 3.718 0 0 0 3.718 3.717Zm0-4.957a1.239 1.239 0 1 1-1.239 1.239 1.239 1.239 0 0 1 1.239-1.239Z" data-name="Path 224510"/><path d="M21.066 16.882a6.2 6.2 0 0 0-3.792 1.3 8.674 8.674 0 0 0-14.796 6.135 1.239 1.239 0 1 0 2.478 0 6.2 6.2 0 0 1 12.392 0 1.239 1.239 0 1 0 2.478 0 8.55 8.55 0 0 0-1.066-4.151 3.718 3.718 0 0 1 6.023 2.912 1.239 1.239 0 1 0 2.478 0 6.2 6.2 0 0 0-6.195-6.196Z" data-name="Path 224511"/></g></svg>