<svg xmlns="http://www.w3.org/2000/svg" width="18.986" height="19.019"><path fill="rgba(0,0,0,0)" stroke="#fff" stroke-linecap="round" stroke-linejoin="round" stroke-width="1.5" d="M11.532 4.161a4.167 4.167 0 0 1 3.292 3.292M11.532.828a7.5 7.5 0 0 1 6.625 6.616m-.833 6.65v2.5a1.667 1.667 0 0 1-1.817 1.667 16.491 16.491 0 0 1-7.191-2.558 16.249 16.249 0 0 1-5-5A16.491 16.491 0 0 1 .758 3.478a1.667 1.667 0 0 1 1.658-1.817h2.5a1.667 1.667 0 0 1 1.666 1.434 10.7 10.7 0 0 0 .583 2.342 1.667 1.667 0 0 1-.375 1.758L5.732 8.253a13.333 13.333 0 0 0 5 5l1.058-1.058a1.667 1.667 0 0 1 1.758-.375 10.7 10.7 0 0 0 2.342.583 1.667 1.667 0 0 1 1.433 1.692Z"/></svg>