<svg xmlns="http://www.w3.org/2000/svg" width="30" height="30"><g data-name="Layer 2"><path d="M19.024 20.065h-7.61a1.268 1.268 0 0 0 0 2.536h7.609a1.268 1.268 0 1 0 0-2.536Z" data-name="Path 224517"/><path d="M11.414 17.528h3.8a1.268 1.268 0 1 0 0-2.536h-3.8a1.268 1.268 0 1 0 0 2.536Z" data-name="Path 224518"/><path d="m25.035 10.338-6.9-7.609a1.268 1.268 0 0 0-.938-.419H8.32a3.209 3.209 0 0 0-3.247 3.171v19.023a3.209 3.209 0 0 0 3.247 3.171h13.8a3.209 3.209 0 0 0 3.247-3.171V11.188a1.268 1.268 0 0 0-.33-.85Zm-7.28-4.228 3.475 3.8h-2.536a1 1 0 0 1-.938-1.078Zm4.363 19.023H8.32a.672.672 0 0 1-.71-.634V5.481a.672.672 0 0 1 .71-.634h6.9v3.994a3.538 3.538 0 0 0 3.437 3.614h4.172v12.049a.672.672 0 0 1-.71.634Z" data-name="Path 224519"/></g></svg>