<svg xmlns="http://www.w3.org/2000/svg" width="88.689" height="50"><defs><clipPath id="a"><path data-name="Rectangle 202" fill="#fff" stroke="#707070" d="M0 0h50v50H0z"/></clipPath></defs><g data-name="Component 763 – 2"><g data-name="Mask Group 10" transform="translate(38.689)" clip-path="url(#a)"><path data-name="Path 224518" d="M12.444 38.658a.244.244 0 0 1-.273-.209c-.037-.229-.072-.458-.107-.687-.588-1.417-1.134-2.859-1.725-4.274a31.176 31.176 0 0 1-1.779-5.276.274.274 0 0 1-.212-.148c-1.408-2.474-3.925-4.194-4.749-7.01a.232.232 0 0 1 .413-.2.4.4 0 0 1 .149-.109 23.677 23.677 0 0 1 4.8-1.3c1.742-.345 3.452-.857 5.157-1.348 3.56-1.025 7.107-2.08 10.694-3.008q1.477-.382 2.957-.751l-.152-.094a.2.2 0 0 1 .192-.343 4.515 4.515 0 0 1 .563.287l.316-.079a4.748 4.748 0 0 1-.628-.429c-.152-.126.035-.348.2-.265.33.166.659.356.984.557q3.054-.757 6.112-1.5c1.683-.41 3.349-.889 5.015-1.359 1.542-.435 3.234-1.127 4.861-.906a.07.07 0 0 1 .063.059.308.308 0 0 1 .253.3c-1.136 2.46-3.052 4.516-4.431 6.838-1.515 2.551-3.052 5.09-4.52 7.668-1.391 2.442-2.772 4.914-4.015 7.436a36.039 36.039 0 0 0-1.629 4.051 17.984 17.984 0 0 1-1.324 3.432c0 .008-.01.013-.016.021.11.179-.149.408-.339.253a16.054 16.054 0 0 0-3.968-2.076c-1.5-.634-2.961-1.358-4.439-2.034-1.137-.521-2.28-1.03-3.413-1.56a17.485 17.485 0 0 1-2.247 2.148c-.727.648-1.212 1.509-2.09 1.985a.334.334 0 0 1-.114.037.346.346 0 0 1-.559-.107Zm1.459-1.445c-.235-.078-.467-.165-.7-.251-.188-.069-.391-.121-.582-.2.014.1.028.2.04.306a8.216 8.216 0 0 0 .914.487c.114-.109.221-.224.329-.342Zm2-1.8a19.617 19.617 0 0 1-2.075-.838c-.612-.284-1.259-.525-1.866-.825q.1.347.187.7a7.733 7.733 0 0 1 1.54.593c.59.222 1.132.536 1.707.78Zm.562-.454a24.824 24.824 0 0 0-2.343-1.039c-.84-.342-1.632-.781-2.452-1.164q.08.263.158.528a.139.139 0 0 1 .024.01c1.356.7 2.74 1.472 4.161 2.031q.231-.181.455-.365Zm-5.7-1.878c.273.625.57 1.251.864 1.88a90.624 90.624 0 0 0-.549-3.2.348.348 0 0 1 .01-.649.381.381 0 0 1 .181-.131 17.226 17.226 0 0 0 3.945-2.306q2.145-1.509 4.365-2.9c2.831-1.784 5.805-3.274 8.728-4.9s5.721-3.406 8.513-5.214c2.453-1.588 4.857-3.332 7.389-4.807a19.545 19.545 0 0 0-2.736 1.452c-1.168.685-2.53 1.178-3.718 1.831q-4.8 2.638-9.7 5.088-4.748 2.387-9.537 4.7a81.075 81.075 0 0 1-9.533 4.1.375.375 0 0 1-.119.019c-.007.01-.013.02-.02.028a45.265 45.265 0 0 0 1.924 5.011ZM40.239 11.67q-2.478.792-5 1.449-2.621.682-5.248 1.347c.176.118.349.237.519.354.126.087.016.294-.119.211a11.097 11.097 0 0 0-.836-.454l-.431.11a7.291 7.291 0 0 0 1.09.647c.12.054.039.257-.086.215a9.38 9.38 0 0 1-1.555-.721q-1.931.495-3.859 1c-3.489.922-6.942 1.964-10.405 2.976-1.7.5-3.413 1.011-5.153 1.362a23.84 23.84 0 0 0-4.791 1.313.372.372 0 0 1-.112.029c1 2.273 3.121 3.813 4.444 5.9a.373.373 0 0 1 .09-.051c3.141-1.227 6.218-2.585 9.267-4.007-.286-.061-.572-.124-.859-.179a18.678 18.678 0 0 1-2.21-.424c-.068-.022-.033-.115.033-.1 1.1.21 2.212.387 3.319.574l.934-.439c-.481-.1-.956-.222-1.441-.3a11.977 11.977 0 0 1-2.007-.463.039.039 0 0 1 .024-.074 14.757 14.757 0 0 0 1.991.35c.59.083 1.165.233 1.75.337l.668-.318c-1.156-.216-2.3-.491-3.453-.717-.036-.007-.024-.066.011-.062 1.267.146 2.515.413 3.772.621l.8-.386a18.753 18.753 0 0 1-3.658-.76c-.057-.018-.028-.1.028-.087 1.315.269 2.647.431 3.963.686l.863-.418a21.07 21.07 0 0 1-3.606-.761.028.028 0 0 1 .01-.053c1.317.07 2.643.448 3.946.643l.578-.281a23.8 23.8 0 0 0-3.329-.713.06.06 0 0 1 .005-.119 7.611 7.611 0 0 1 1.732.265c.607.149 1.244.235 1.839.422a.08.08 0 0 1 .023.013l.673-.329c-.993-.207-1.961-.524-2.963-.683-.074-.012-.072-.127.006-.119 1.1.121 2.193.423 3.285.641l.68-.333a21.516 21.516 0 0 1-2.67-.527c-.1-.029-.051-.184.051-.156a26.99 26.99 0 0 0 2.943.524l.546-.268c-.767-.113-1.526-.279-2.29-.411-.093-.016-.087-.164.007-.148.857.145 1.713.3 2.574.416l.471-.232c-.628-.094-1.258-.241-1.877-.361-.07-.013-.047-.134.022-.122.709.116 1.447.178 2.15.338l.616-.3c-.6-.078-1.184-.229-1.776-.326-.075-.012-.073-.131.006-.121.69.091 1.375.214 2.067.3l.193-.1.358-.177c-.37-.046-.738-.113-1.106-.162-.075-.01-.072-.124.005-.119.474.033.948.077 1.421.122l.355-.176a4.717 4.717 0 0 1-.611-.137.082.082 0 0 1 .051-.156 4.179 4.179 0 0 0 .864.143l.413-.2-.058-.01c-.141-.02-.283-.039-.424-.055a.074.074 0 0 1 .007-.148 3.408 3.408 0 0 1 .785.06q3.821-1.9 7.6-3.9a31.424 31.424 0 0 1 6.754-2.973 20.659 20.659 0 0 0-4.662 1.269ZM20.908 35.497c1.554.733 3.1 1.489 4.661 2.2a19.365 19.365 0 0 1 3.487 1.867 19.512 19.512 0 0 0 1.3-3.4 37.562 37.562 0 0 1 1.512-3.74c1.213-2.525 2.633-4.977 4.019-7.412 1.467-2.578 3.029-5.1 4.57-7.634 1.354-2.226 2.98-4.266 4.43-6.428-2.519 1.823-5.177 3.489-7.757 5.219-2.841 1.9-5.722 3.744-8.707 5.417-2.917 1.634-5.874 3.148-8.7 4.944a102.023 102.023 0 0 0-4.352 2.94 19.857 19.857 0 0 1-3.2 1.961 39.815 39.815 0 0 1 3.8 1.727c1.633.817 3.296 1.562 4.944 2.341Zm-3.817-1.062a78.468 78.468 0 0 1-.969-.464 38.669 38.669 0 0 0-4.731-2.1l.14.445a.177.177 0 0 1 .046.013c.833.372 1.624.825 2.454 1.2a19.43 19.43 0 0 1 2.559 1.327c.175-.136.341-.277.508-.419Zm-1.836 1.5c-.483-.151-.952-.35-1.432-.512-.506-.171-1.052-.44-1.579-.577.04.166.078.332.114.5a24.882 24.882 0 0 0 2.387 1.009l.018-.016.499-.408Zm-.716.605a7.855 7.855 0 0 1-1.06-.373c-.339-.137-.688-.249-1.029-.381q.055.278.1.557c.513.218 1.022.446 1.536.665.153-.161.302-.319.459-.47Zm-1.179 1.218a3.828 3.828 0 0 1-.636-.259c.073.2.142.391.207.589a3.65 3.65 0 0 0 .436-.332Z" fill="#fff" stroke="#fff" stroke-width=".25"/></g><path data-name="Path 239626" d="M.712 38.695a24.8 24.8 0 0 1 12.29.284 9.682 9.682 0 0 1 4.468 2.593 10.694 10.694 0 0 1 1.137-.039 14.037 14.037 0 0 1 5.06 1.095c.88.364 1.7.872 2.542 1.316a33.485 33.485 0 0 0 3.382 1.582c2.185.857 4.785 1.5 7.032.494a5.385 5.385 0 0 0 1.242-.77 5.9 5.9 0 0 1-3.943-4.509 3.14 3.14 0 0 1 3.472-3.418c1.511.165 2.249 1.683 2.486 3.021a6.064 6.064 0 0 1-.8 4.474 4.18 4.18 0 0 1-.162.21q.189.053.376.1a8.97 8.97 0 0 0 6.072-.869 7.944 7.944 0 0 0 3.694-4.679c.063-.2.372-.12.313.081a8.4 8.4 0 0 1-4.007 5.113 9.26 9.26 0 0 1-6.811.715l-.044-.013a6.7 6.7 0 0 1-5.186 1.629 18.64 18.64 0 0 1-6.792-2.294 24.452 24.452 0 0 0-5.082-2.263 12.031 12.031 0 0 0-3.526-.4 5.171 5.171 0 0 1 .681 4.952c-.829 1.927-3.377 2.007-4.872.83-1.518-1.194-.851-3.713.292-4.924a4.841 4.841 0 0 1 2.738-1.34q-.068-.068-.138-.133a10.542 10.542 0 0 0-4.753-2.257 24.673 24.673 0 0 0-11-.007c-.366.083-.535-.489-.161-.574Zm38.165 5.338a5.425 5.425 0 0 0 .531-2.325c.044-1.343-.318-3.364-1.837-3.783a2.814 2.814 0 0 0-2.167.52 2.454 2.454 0 0 0-.869 2.594 5.521 5.521 0 0 0 3.774 3.789 3.754 3.754 0 0 0 .569-.795Zm-22.759-1.579a3.58 3.58 0 0 0-2.55 4.189c.333 1.162 1.831 1.559 2.889 1.448a2.278 2.278 0 0 0 1.853-1.946 4.715 4.715 0 0 0-1.055-3.937 7.053 7.053 0 0 0-1.136.246Z" fill="#fff" stroke="rgba(0,0,0,0)"/></g></svg>