<svg xmlns="http://www.w3.org/2000/svg" width="30" height="30"><g data-name="Layer 2"><path data-name="Path 224516" d="m22.839 25.738-2.776-10.819a7.14 7.14 0 0 0 1.575-4.508 7.213 7.213 0 1 0-14.425 0 7.14 7.14 0 0 0 1.611 4.532L6.01 25.738a1.2 1.2 0 0 0 1.779 1.334l6.407-3.762 6.828 3.774a1.094 1.094 0 0 0 .613.156 1.2 1.2 0 0 0 1.2-1.5ZM14.425 5.599a4.808 4.808 0 1 1-4.808 4.812 4.808 4.808 0 0 1 4.808-4.812Zm.373 15.278a1.2 1.2 0 0 0-1.2 0l-4.51 2.649 1.731-6.852a7.14 7.14 0 0 0 7.116 0l1.839 6.96Z"/></g></svg>