<svg xmlns="http://www.w3.org/2000/svg" width="511.301" height="131.608"><g fill="#8e75ff" fill-rule="evenodd" data-name="Group 18424"><path d="M110.293 20.379H36.024v37.238h36.544a2.359 2.359 0 0 1 2.358 2.362v36.035h37.725V22.741a2.358 2.358 0 0 0-2.358-2.362Z" data-name="Path 224476"/><path d="M36.02 20.379v37.238H1.179a1.181 1.181 0 0 1-.828-2.022L36.02 20.379Zm40.915 110.89a1.181 1.181 0 0 1-2.009-.841V96.014h37.725l-35.716 35.251Z" data-name="Path 224477" opacity=".405"/><path d="M36.02 57.617h37.73a1.178 1.178 0 0 1 1.177 1.177v37.22H38.383a2.358 2.358 0 0 1-2.358-2.358V57.617Z" data-name="Path 224478" opacity=".405"/></g><path fill="#2f2e8b" fill-rule="evenodd" d="M493.07 18.029a10.256 10.256 0 0 0 7.467 3.125 10.418 10.418 0 0 0 7.6-3.125 10.041 10.041 0 0 0 3.16-7.385 10.259 10.259 0 0 0-3.16-7.449 10.316 10.316 0 0 0-7.6-3.195 10.17 10.17 0 0 0-7.467 3.19 10.271 10.271 0 0 0-3.16 7.458 10.038 10.038 0 0 0 3.16 7.381ZM264.332 45.24a.4.4 0 0 1-.4.4h-14.809v27.673q0 3.46 1.75 5.057a8.081 8.081 0 0 0 5.113 1.793 71.575 71.575 0 0 0 7.505-.022l.418-.022a.4.4 0 0 1 .418.4v14.788a.4.4 0 0 1-.353.4l-.272.03q-17.395 1.83-24.6-3.4-7.333-5.322-7.329-19.024V45.637h-11.314a.4.4 0 0 1-.4-.4v-15.7a.4.4 0 0 1 .4-.4h11.308V18.159a.8.8 0 0 1 .479-.733l16.321-7.1a.4.4 0 0 1 .56.362v18.451h14.8a.4.4 0 0 1 .4.4v15.7Zm31.47-4.656a17.97 17.97 0 0 1 8-9.583 24.357 24.357 0 0 1 12.045-3.19.4.4 0 0 1 .4.4v18.042a.647.647 0 0 1-.711.642 20.482 20.482 0 0 0-13.485 3.268q-6.253 4.119-6.251 13.7v31.4a.4.4 0 0 1-.4.4h-16.562a.4.4 0 0 1-.4-.4V29.531a.4.4 0 0 1 .4-.4H295.4a.4.4 0 0 1 .4.4v11.054Zm82.063-11.446a.4.4 0 0 0-.4.4v7.458q-7.8-9.719-21.93-9.717-13.45 0-23.072 10.178T322.84 62.4q0 14.769 9.622 24.947t23.072 10.178q14.129 0 21.93-9.713v7.454a.4.4 0 0 0 .4.4h16.558a.4.4 0 0 0 .4-.4V29.531a.4.4 0 0 0-.4-.4h-16.557Zm-32.418 46.835A18.7 18.7 0 0 0 377.464 62.4a18.642 18.642 0 1 0-37.268 0 18.512 18.512 0 0 0 5.251 13.571Zm126.526-38.519a30.79 30.79 0 0 0-23.21-10.178q-14.129 0-21.8 9.713v-7.454a.4.4 0 0 0-.4-.4h-16.556a.4.4 0 0 0-.4.4v92.34a.4.4 0 0 0 .4.4h16.563a.4.4 0 0 0 .4-.4v-34.06q7.669 9.713 21.8 9.713a30.79 30.79 0 0 0 23.21-10.178q9.616-10.178 9.618-24.947t-9.625-24.949Zm-39.76 38.518A18.707 18.707 0 0 0 464.235 62.4a18.642 18.642 0 1 0-37.268 0 18.526 18.526 0 0 0 5.246 13.571Zm60.112 19.692a.4.4 0 0 1-.4-.4V29.531a.4.4 0 0 1 .4-.4h16.563a.4.4 0 0 1 .4.4v65.742a.4.4 0 0 1-.4.4h-16.563ZM182.864 52.357q-3.569-1.662-3.565-4.324a4.543 4.543 0 0 1 2.22-3.992 9.95 9.95 0 0 1 5.583-1.466 10.936 10.936 0 0 1 9.743 4.975.573.573 0 0 0 .7.216l14.649-6.41a.4.4 0 0 0 .181-.56q-.253-.422-.517-.836a26.152 26.152 0 0 0-9.825-9.023 30.729 30.729 0 0 0-14.933-3.66q-10.9 0-18.235 5.656t-7.329 15.5a16.49 16.49 0 0 0 3.564 10.843 20.981 20.981 0 0 0 8.678 6.32 91.044 91.044 0 0 0 10.226 3.324 51.461 51.461 0 0 1 8.678 3q3.563 1.662 3.565 4.324 0 5.723-9.281 5.721-8.84 0-12.247-6.458a.8.8 0 0 0-1.026-.375l-14.605 6.4a.4.4 0 0 0-.2.535l.164.332q7.656 15.131 27.913 15.131 11.568 0 19.3-5.518t7.745-15.772a17.721 17.721 0 0 0-3.565-11.312 19.83 19.83 0 0 0-8.678-6.449 90.49 90.49 0 0 0-10.226-3.194 47.715 47.715 0 0 1-8.678-2.931Z" data-name="Path 224479"/></svg>