<svg xmlns="http://www.w3.org/2000/svg" width="160.9" height="190.6"><g fill="#3544b1"><path data-name="Path 257680" d="M7.229 73.927a74.109 74.109 0 1 1 0 .012ZM79.75 99.273a72.566 72.566 0 0 1-17.106-1.533 13.08 13.08 0 0 1-9.345-7.514q-2.511-5.79-2.429-17.859a113.816 113.816 0 0 1 .789-12.579q.723-6.1 1.445-10.053l.507-2.62a1.464 1.464 0 0 0 0-.231 1.518 1.518 0 0 0-1.242-1.488l-9.549-1.488h-.206a1.518 1.518 0 0 0-1.46 1.16c-.164.607-.258 1.066-.543 2.523a169.642 169.642 0 0 0-1.612 9.552 124.333 124.333 0 0 0-1.075 13.095 66.918 66.918 0 0 0 0 9.166q.337 12.144 4.172 19.413t12.989 10.45q9.154 3.191 25.5 3.124h1.372q16.368.067 25.5-3.124t12.989-10.45q3.835-7.269 4.175-19.413a67.919 67.919 0 0 0 0-9.166 124.3 124.3 0 0 0-1.078-13.095c-.559-3.947-1.066-6.68-1.609-9.552-.3-1.457-.383-1.91-.547-2.523a1.5 1.5 0 0 0-1.46-1.16h-.246l-9.549 1.488a1.5 1.5 0 0 0-1.254 1.488 1.457 1.457 0 0 0 0 .231l.5 2.62q.723 3.965 1.46 10.053a115.313 115.313 0 0 1 .777 12.579q.121 12.047-2.429 17.843a13.077 13.077 0 0 1-9.3 7.53 72.471 72.471 0 0 1-17.093 1.542Z"/><path data-name="Path 257681" d="M142.434 179.688c0-6.4 1.822-10.891 9.233-10.891s9.233 4.49 9.233 10.891-1.822 10.888-9.224 10.888-9.242-4.485-9.242-10.888Zm13.757 0c0-4.451-.577-6.983-4.524-6.983s-4.536 2.538-4.536 6.983.586 6.983 4.536 6.983 4.524-2.548 4.524-6.983Z"/><path data-name="Path 257682" d="M14.558 189.758a.607.607 0 0 0 .534.3h1.728a.607.607 0 0 0 .607-.607v-19.54a.607.607 0 0 0-.607-.607h-3.44a.607.607 0 0 0-.607.607v15.512a9.412 9.412 0 0 1-4.815 1.214c-2.2 0-3.279-.956-3.279-3.076v-13.65a.607.607 0 0 0-.607-.607H.608a.607.607 0 0 0-.607.607v14.054c0 3.99 1.87 6.6 7.147 6.6a11.96 11.96 0 0 0 6.734-2.159l.607 1.375Z"/><path data-name="Path 257683" d="M53.342 175.401c0-3.947-1.952-6.61-6.88-6.61a11.871 11.871 0 0 0-6.652 2.062c-.871-1.284-2.538-2.062-5.322-2.062a10.794 10.794 0 0 0-6.267 2.159l-.607-1.375a.608.608 0 0 0-.537-.3h-1.74a.607.607 0 0 0-.607.607v19.549a.607.607 0 0 0 .607.607h3.44a.607.607 0 0 0 .607-.607v-15.485a8.386 8.386 0 0 1 4.36-1.214c1.873 0 2.951.689 2.951 2.663v14.066a.607.607 0 0 0 .607.607h3.44a.607.607 0 0 0 .607-.607v-15.515a8.1 8.1 0 0 1 4.369-1.214c1.822 0 2.951.689 2.951 2.663v14.054a.607.607 0 0 0 .607.607h3.44a.607.607 0 0 0 .607-.607Z"/><path data-name="Path 257684" d="M63.978 188.416a10.987 10.987 0 0 0 6.749 2.159c6.072 0 8.31-4.071 8.31-10.888s-2.259-10.9-8.31-10.9a10.526 10.526 0 0 0-5.571 1.624v-6.276a.607.607 0 0 0-.607-.625h-3.467a.607.607 0 0 0-.607.607v25.346a.607.607 0 0 0 .607.607h1.728a.607.607 0 0 0 .534-.3Zm5.647-1.788a8.874 8.874 0 0 1-4.484-1.214v-11.468a8.875 8.875 0 0 1 4.484-1.215c4.071 0 4.7 3.118 4.7 6.944s-.607 6.941-4.694 6.941Z"/><path data-name="Path 257685" d="M96.232 172.883a11.49 11.49 0 0 0-1.615-.1 10.175 10.175 0 0 0-5.325 1.245v15.43a.607.607 0 0 1-.607.607h-3.443a.607.607 0 0 1-.607-.607v-19.547a.607.607 0 0 1 .607-.607h1.727a.607.607 0 0 1 .537.3l.607 1.375a10.554 10.554 0 0 1 6.57-2.159 9.768 9.768 0 0 1 1.633.137c.3 0 .565.516.565.847v2.49a.607.607 0 0 1-.607.607h-.049"/><path data-name="Path 257686" d="M108.156 180.476c-2.065.249-3.288 1.032-3.288 3.2 0 1.582.686 3.076 3.2 3.076a7.652 7.652 0 0 0 4.451-1.378v-5.377Zm5.5 7.94a10.086 10.086 0 0 1-6.273 2.159c-5.365 0-7.147-3.322-7.147-6.652 0-4.49 2.909-6.4 7.609-6.774l4.657-.374v-1.038c0-2.125-1-2.951-4.074-2.951a17.428 17.428 0 0 0-5.672.95.68.68 0 0 1-.193 0 .607.607 0 0 1-.607-.607v-2.751a.607.607 0 0 1 .4-.586 19.87 19.87 0 0 1 6.418-1.038c6.816 0 8.392 2.991 8.392 7.4v13.262a.607.607 0 0 1-.607.607h-1.725a.607.607 0 0 1-.537-.3Z"/><path data-name="Path 257687" d="M137.345 185.787a.641.641 0 0 1 .185 0 .607.607 0 0 1 .607.607v2.757a.607.607 0 0 1-.377.571 14.95 14.95 0 0 1-5.353.875c-7.36 0-9.631-4.408-9.631-10.891s2.25-10.888 9.631-10.888a14.8 14.8 0 0 1 5.316.838.607.607 0 0 1 .386.577v2.754a.607.607 0 0 1-.607.607 1.076 1.076 0 0 1-.2 0 14.275 14.275 0 0 0-4.639-.656c-4.032 0-5.2 2.751-5.2 6.777s1.169 6.774 5.2 6.774a14.209 14.209 0 0 0 4.636-.686"/></g></svg>