<svg data-name="download (2)" xmlns="http://www.w3.org/2000/svg" width="376.633" height="108.418"><path data-name="Path 239633" d="M48.882 0 24.441 54.314h24.441L73.323 0Z" fill="#c3c3c3" fill-rule="evenodd"/><path data-name="Path 239634" d="m0 0 24.441 54.314h24.441L24.441 0Zm108.627 65.176a8.147 8.147 0 1 1-8.147-8.147 8.147 8.147 0 0 1 8.147 8.147" fill="#db3a35" fill-rule="evenodd"/><path data-name="Path 239635" d="M82.095 70.607H57.029a43.962 43.962 0 0 0 43.451 37.81V83.892a19.418 19.418 0 0 1-18.385-13.285m0-10.863a19.427 19.427 0 0 1 18.385-13.358V21.725a44.044 44.044 0 0 0-43.451 38.02Z" fill="#f89406" fill-rule="evenodd"/><path data-name="Path 239636" d="M153.947 25.2 164.245.435h2.433l-12.253 29.112h-.909L141.216.435h2.433ZM172.631.435h2.259v28.677h-2.259V.435Zm22.595 15.642 9.69 13.035h-2.65l-9.65-12.861h-7v12.861h-2.253V.435h9.733a8.887 8.887 0 0 1 6.344 2.216 7.408 7.408 0 0 1 2.347 5.649 7.551 7.551 0 0 1-6.561 7.777Zm-2.216-13.6h-7.387v11.731h7.387c4.128 0 6.431-2.39 6.431-5.866s-2.3-5.866-6.431-5.866ZM205.741.435h23.246v2.042h-10.515v26.635h-2.256V2.477h-10.475ZM245.802 0a14.332 14.332 0 0 1 10.428 4.258 14.189 14.189 0 0 1 4.3 10.515 14.326 14.326 0 0 1-4.3 10.515 14.9 14.9 0 0 1-20.856 0 14.459 14.459 0 0 1-4.258-10.515 14.319 14.319 0 0 1 4.258-10.515A14.192 14.192 0 0 1 245.802 0Zm.043 2.086a11.767 11.767 0 0 0-8.821 3.65 12.318 12.318 0 0 0-3.52 8.994 12.49 12.49 0 0 0 3.52 9.038 12.431 12.431 0 0 0 17.6 0 12.49 12.49 0 0 0 3.52-9.038 12.32 12.32 0 0 0-3.563-8.994 11.643 11.643 0 0 0-8.734-3.65Zm-89.334 41.365a14.044 14.044 0 0 1 11.6 5.822l-1.695 1.347a11.438 11.438 0 0 0-9.863-5.084 11.834 11.834 0 0 0-8.821 3.65 12.318 12.318 0 0 0-3.516 8.995 12.592 12.592 0 0 0 3.52 9.081 11.892 11.892 0 0 0 8.821 3.606 11.449 11.449 0 0 0 9.863-5.04l1.696 1.347A14.045 14.045 0 0 1 156.511 73a14.543 14.543 0 0 1-14.687-14.776 14.543 14.543 0 0 1 14.687-14.773Zm30.72 0a14.332 14.332 0 0 1 10.428 4.258 14.189 14.189 0 0 1 4.3 10.515 14.709 14.709 0 1 1-29.416 0 14.543 14.543 0 0 1 14.688-14.773Zm.043 2.086a11.767 11.767 0 0 0-8.821 3.65 12.318 12.318 0 0 0-3.52 8.994 12.49 12.49 0 0 0 3.52 9.038 12.431 12.431 0 0 0 17.6 0 12.49 12.49 0 0 0 3.52-9.038 12.32 12.32 0 0 0-3.563-8.994 11.643 11.643 0 0 0-8.736-3.65Zm34.022 14.99 11.949-17.076h.869v29.112h-2.259V49.23l-10.081 14.382h-.869L210.781 49.23v23.333h-2.259V43.451h.869l11.905 17.076Zm34.109 0 11.949-17.076h.869v29.112h-2.259V49.23l-10.081 14.382h-.867L244.89 49.23v23.333h-2.259V43.451h.869l11.906 17.076Zm21.334-16.642h17.945v2.042h-15.685v10.125h12.21v2.042h-12.21v12.427h16.207v2.042h-18.467Zm36.325 15.642 9.69 13.035h-2.65L310.457 59.7h-7v12.863h-2.259V43.885h9.733a8.886 8.886 0 0 1 6.344 2.216 7.408 7.408 0 0 1 2.346 5.649 7.551 7.551 0 0 1-6.557 7.778Zm-2.216-13.6h-7.387v11.732h7.387c4.128 0 6.431-2.39 6.431-5.866s-2.3-5.866-6.431-5.866Zm29.112-2.477a14.045 14.045 0 0 1 11.6 5.822l-1.695 1.347a11.438 11.438 0 0 0-9.863-5.084 11.834 11.834 0 0 0-8.821 3.65 12.318 12.318 0 0 0-3.52 8.994 12.592 12.592 0 0 0 3.52 9.081 11.892 11.892 0 0 0 8.821 3.606 11.449 11.449 0 0 0 9.863-5.04l1.695 1.347A14.045 14.045 0 0 1 339.961 73a14.543 14.543 0 0 1-14.686-14.773 14.543 14.543 0 0 1 14.686-14.773Zm18.206.435h17.95v2.042h-15.69v10.125h12.21v2.042h-12.21v12.427h16.207v2.042h-18.466Z" fill-rule="evenodd"/></svg>