<svg xmlns="http://www.w3.org/2000/svg" width="184" height="47"><defs><clipPath id="a"><path data-name="Rectangle 185" transform="translate(625 136.5)" fill="#fff" stroke="#707070" d="M0 0h184v47H0z"/></clipPath></defs><g data-name="Mask Group 6" transform="translate(-625 -136.5)" clip-path="url(#a)"><g data-name="download (2)" fill-rule="evenodd"><path data-name="Path 239633" d="m645.85 136.968-10.425 23.167h10.425l10.425-23.167Z" fill="#c3c3c3"/><path data-name="Path 239634" d="m625 136.968 10.425 23.167h10.425l-10.425-23.167Zm46.333 27.8a3.475 3.475 0 1 1-3.475-3.475 3.475 3.475 0 0 1 3.475 3.475" fill="#db3a35"/><path data-name="Path 239635" d="M660.016 167.085h-10.691a18.751 18.751 0 0 0 18.533 16.127v-10.461a8.282 8.282 0 0 1-7.842-5.667m0-4.633a8.286 8.286 0 0 1 7.842-5.7v-10.516a18.786 18.786 0 0 0-18.533 16.217Z" fill="#f89406"/><path data-name="Path 239636" d="m690.663 147.717 4.393-10.564h1.038l-5.227 12.415h-.389l-5.245-12.415h1.038Zm7.97-10.564h.964v12.232h-.964v-12.232Zm9.637 6.672 4.133 5.56h-1.131l-4.114-5.486h-2.984v5.486h-.964v-12.232h4.151a3.79 3.79 0 0 1 2.706.945 3.16 3.16 0 0 1 1 2.409 3.221 3.221 0 0 1-2.797 3.318Zm-.945-5.8h-3.151v5h3.151a2.436 2.436 0 0 0 2.743-2.5 2.436 2.436 0 0 0-2.743-2.5Zm5.43-.871h9.915v.871h-4.485v11.36h-.964v-11.361h-4.466Zm17.088-.186a6.113 6.113 0 0 1 4.448 1.816 6.052 6.052 0 0 1 1.834 4.484 6.111 6.111 0 0 1-1.835 4.485 6.355 6.355 0 0 1-8.9 0 6.167 6.167 0 0 1-1.812-4.485 6.107 6.107 0 0 1 1.816-4.485 6.053 6.053 0 0 1 4.449-1.815Zm.019.89a5.019 5.019 0 0 0-3.762 1.557 5.254 5.254 0 0 0-1.5 3.836 5.327 5.327 0 0 0 1.5 3.855 5.3 5.3 0 0 0 7.506 0 5.327 5.327 0 0 0 1.5-3.855 5.255 5.255 0 0 0-1.52-3.836 4.966 4.966 0 0 0-3.725-1.557Zm-38.1 17.644a5.99 5.99 0 0 1 4.948 2.483l-.723.575a4.879 4.879 0 0 0-4.207-2.168 5.048 5.048 0 0 0-3.767 1.556 5.254 5.254 0 0 0-1.5 3.836 5.371 5.371 0 0 0 1.5 3.873 5.072 5.072 0 0 0 3.762 1.538 4.883 4.883 0 0 0 4.207-2.15l.723.575a5.99 5.99 0 0 1-4.948 2.483 6.2 6.2 0 0 1-6.264-6.3 6.2 6.2 0 0 1 6.264-6.3Zm13.1 0a6.113 6.113 0 0 1 4.448 1.816 6.052 6.052 0 0 1 1.835 4.485 6.274 6.274 0 1 1-12.547 0 6.2 6.2 0 0 1 6.264-6.3Zm.019.89a5.019 5.019 0 0 0-3.762 1.557 5.254 5.254 0 0 0-1.5 3.836 5.327 5.327 0 0 0 1.5 3.855 5.3 5.3 0 0 0 7.506 0 5.327 5.327 0 0 0 1.5-3.855 5.255 5.255 0 0 0-1.52-3.836 4.966 4.966 0 0 0-3.727-1.558Zm14.512 6.394 5.1-7.284h.371v12.417h-.971v-9.951l-4.3 6.135h-.37l-4.318-6.135v9.952h-.964v-12.419h.371l5.078 7.284Zm14.549 0 5.1-7.284h.371v12.417h-.964v-9.951l-4.3 6.135h-.371l-4.325-6.135v9.952h-.964v-12.419h.371l5.078 7.284Zm9.1-7.1h7.654v.871h-6.691v4.318h5.208v.871h-5.208v5.3h6.913v.871h-7.877Zm15.491 6.673 4.133 5.56h-1.133l-4.114-5.486h-2.986v5.486h-.964v-12.232h4.151a3.79 3.79 0 0 1 2.706.945 3.16 3.16 0 0 1 1 2.409 3.221 3.221 0 0 1-2.793 3.318Zm-.945-5.8h-3.155v5h3.151a2.513 2.513 0 1 0 0-5Zm12.417-1.056a5.99 5.99 0 0 1 4.948 2.483l-.723.575a4.879 4.879 0 0 0-4.207-2.168 5.048 5.048 0 0 0-3.762 1.557 5.254 5.254 0 0 0-1.5 3.836 5.371 5.371 0 0 0 1.5 3.873 5.072 5.072 0 0 0 3.762 1.538 4.883 4.883 0 0 0 4.21-2.151l.723.575a5.991 5.991 0 0 1-4.948 2.483 6.2 6.2 0 0 1-6.264-6.3 6.2 6.2 0 0 1 6.264-6.3Zm7.765.185h7.654v.871h-6.691v4.318h5.208v.871h-5.208v5.3h6.913v.871h-7.877Z"/></g></g></svg>